<svg width="320" height="320" viewBox="0 0 320 320" fill="none" xmlns="http://www.w3.org/2000/svg">
<g id="pic" clip-path="url(#clip0_1902_24912)">
<g id="Group">
<path id="Vector" d="M143.209 109.69C144.229 109.69 145.059 110.52 145.059 111.54C145.059 112.56 144.229 113.39 143.209 113.39C142.189 113.39 141.359 112.56 141.359 111.54C141.359 110.52 142.189 109.69 143.209 109.69Z" fill="#724494"/>
<path id="Vector_2" d="M175.353 237.668C176.431 236.591 176.431 234.843 175.353 233.765C174.275 232.687 172.528 232.687 171.45 233.765C170.372 234.843 170.372 236.591 171.45 237.668C172.528 238.746 174.275 238.746 175.353 237.668Z" fill="#724494"/>
<path id="Vector_3" d="M103.864 139.784C104.356 137.699 103.064 135.609 100.979 135.117C98.8931 134.625 96.8034 135.916 96.3112 138.002C95.819 140.087 97.1106 142.177 99.1962 142.669C101.282 143.162 103.371 141.87 103.864 139.784Z" fill="#724494"/>
<path id="Vector_4" d="M57.2997 237.66C59.0228 237.66 60.4197 236.263 60.4197 234.54C60.4197 232.817 59.0228 231.42 57.2997 231.42C55.5766 231.42 54.1797 232.817 54.1797 234.54C54.1797 236.263 55.5766 237.66 57.2997 237.66Z" fill="#724494"/>
<path id="Vector_5" d="M110.479 178.09C111.629 178.09 112.559 179.02 112.559 180.17C112.559 181.32 111.629 182.25 110.479 182.25C109.329 182.25 108.399 181.32 108.399 180.17C108.399 179.02 109.329 178.09 110.479 178.09Z" fill="#724494"/>
<path id="Vector_6" d="M94.4776 117.408C96.4829 116.577 97.4351 114.278 96.6045 112.273C95.7739 110.268 93.475 109.316 91.4697 110.146C89.4645 110.977 88.5122 113.276 89.3428 115.281C90.1734 117.286 92.4723 118.239 94.4776 117.408Z" fill="#724494"/>
<path id="Vector_7" d="M117.105 146.898C117.525 145.119 116.423 143.336 114.644 142.916C112.864 142.496 111.082 143.598 110.662 145.377C110.242 147.156 111.344 148.939 113.123 149.359C114.902 149.779 116.685 148.677 117.105 146.898Z" fill="#724494"/>
<path id="Vector_8" d="M43.4395 215.36C44.4999 215.36 45.3595 214.5 45.3595 213.44C45.3595 212.38 44.4999 211.52 43.4395 211.52C42.3791 211.52 41.5195 212.38 41.5195 213.44C41.5195 214.5 42.3791 215.36 43.4395 215.36Z" fill="#724494"/>
<path id="Vector_9" d="M161.56 261.9C162.548 261.9 163.35 261.099 163.35 260.11C163.35 259.121 162.548 258.32 161.56 258.32C160.571 258.32 159.77 259.121 159.77 260.11C159.77 261.099 160.571 261.9 161.56 261.9Z" fill="#724494"/>
<path id="Vector_10" d="M226.321 212.074C227.88 211.423 228.617 209.631 227.967 208.071C227.316 206.512 225.525 205.775 223.965 206.425C222.405 207.076 221.668 208.867 222.319 210.427C222.969 211.987 224.761 212.724 226.321 212.074Z" fill="#724494"/>
<path id="Vector_11" d="M107.599 102.57C110.189 102.57 112.289 100.47 112.289 97.8799C112.289 95.2897 110.189 93.1899 107.599 93.1899C105.009 93.1899 102.909 95.2897 102.909 97.8799C102.909 100.47 105.009 102.57 107.599 102.57Z" fill="#724494"/>
<path id="Vector_12" d="M223.129 119.52C224.631 119.52 225.849 118.302 225.849 116.8C225.849 115.298 224.631 114.08 223.129 114.08C221.627 114.08 220.409 115.298 220.409 116.8C220.409 118.302 221.627 119.52 223.129 119.52Z" fill="#724494"/>
<path id="Vector_13" d="M119.192 46.493C120.837 44.8489 120.837 42.1833 119.192 40.5392C117.548 38.8951 114.883 38.8951 113.239 40.5392C111.595 42.1833 111.595 44.8489 113.239 46.493C114.883 48.1371 117.548 48.1371 119.192 46.493Z" fill="#724494"/>
<path id="Vector_14" d="M27.7696 256.21C29.5204 256.21 30.9396 254.791 30.9396 253.04C30.9396 251.289 29.5204 249.87 27.7696 249.87C26.0189 249.87 24.5996 251.289 24.5996 253.04C24.5996 254.791 26.0189 256.21 27.7696 256.21Z" fill="#724494"/>
<path id="Vector_15" d="M248.735 190.056C250.547 189.416 251.498 187.429 250.858 185.616C250.218 183.804 248.231 182.853 246.418 183.493C244.606 184.133 243.655 186.12 244.295 187.933C244.935 189.745 246.922 190.696 248.735 190.056Z" fill="#724494"/>
<path id="Vector_16" d="M107.299 286.91C109.133 286.91 110.619 285.424 110.619 283.59C110.619 281.756 109.133 280.27 107.299 280.27C105.466 280.27 103.979 281.756 103.979 283.59C103.979 285.424 105.466 286.91 107.299 286.91Z" fill="#724494"/>
<path id="Vector_17" d="M62.9096 116.67C65.9583 116.67 68.4296 114.198 68.4296 111.15C68.4296 108.101 65.9583 105.63 62.9096 105.63C59.861 105.63 57.3896 108.101 57.3896 111.15C57.3896 114.198 59.861 116.67 62.9096 116.67Z" fill="#724494"/>
<path id="Vector_18" d="M90.0984 80.3383C91.5082 78.9285 91.5082 76.6428 90.0984 75.233C88.6886 73.8232 86.4029 73.8232 84.9931 75.233C83.5833 76.6428 83.5833 78.9285 84.9931 80.3383C86.4029 81.7481 88.6886 81.7481 90.0984 80.3383Z" fill="#724494"/>
<path id="Vector_19" d="M134.222 232.201C134.623 230.845 133.849 229.421 132.493 229.021C131.137 228.62 129.713 229.395 129.312 230.75C128.912 232.106 129.686 233.53 131.042 233.931C132.398 234.332 133.822 233.557 134.222 232.201Z" fill="#724494"/>
<path id="Vector_20" d="M126.79 199.097C128.306 197.582 128.306 195.125 126.79 193.61C125.275 192.095 122.818 192.095 121.303 193.61C119.788 195.125 119.788 197.582 121.303 199.097C122.818 200.613 125.275 200.613 126.79 199.097Z" fill="#724494"/>
<path id="Vector_21" d="M197.83 149.18C199.597 149.18 201.03 147.747 201.03 145.98C201.03 144.213 199.597 142.78 197.83 142.78C196.063 142.78 194.63 144.213 194.63 145.98C194.63 147.747 196.063 149.18 197.83 149.18Z" fill="#724494"/>
<path id="Vector_22" d="M116.99 66.0499C118.68 66.0499 120.05 64.6799 120.05 62.9899C120.05 61.2999 118.68 59.9299 116.99 59.9299C115.3 59.9299 113.93 61.2999 113.93 62.9899C113.93 64.6799 115.3 66.0499 116.99 66.0499Z" fill="#724494"/>
<path id="Vector_23" d="M257.704 176.81C258.906 175.607 258.906 173.657 257.704 172.454C256.501 171.251 254.551 171.251 253.348 172.454C252.145 173.657 252.145 175.607 253.348 176.81C254.551 178.013 256.501 178.013 257.704 176.81Z" fill="#724494"/>
<path id="Vector_24" d="M219.349 89.38C221.393 89.38 223.049 87.7234 223.049 85.68C223.049 83.6365 221.393 81.98 219.349 81.98C217.306 81.98 215.649 83.6365 215.649 85.68C215.649 87.7234 217.306 89.38 219.349 89.38Z" fill="#724494"/>
<path id="Vector_25" d="M127.369 140.075C129.056 138.388 129.056 135.653 127.369 133.966C125.682 132.279 122.947 132.278 121.26 133.966C119.573 135.653 119.573 138.388 121.26 140.075C122.947 141.762 125.682 141.762 127.369 140.075Z" fill="#724494"/>
<path id="Vector_26" d="M185.049 116.12C186.319 116.12 187.359 117.15 187.359 118.43C187.359 119.71 186.329 120.74 185.049 120.74C183.769 120.74 182.739 119.71 182.739 118.43C182.739 117.15 183.769 116.12 185.049 116.12Z" fill="#724494"/>
<path id="Vector_27" d="M39.5599 188.38C41.4322 188.38 42.9499 186.862 42.9499 184.99C42.9499 183.118 41.4322 181.6 39.5599 181.6C37.6877 181.6 36.1699 183.118 36.1699 184.99C36.1699 186.862 37.6877 188.38 39.5599 188.38Z" fill="#724494"/>
<path id="Vector_28" d="M223.75 169.648C224.021 167.975 222.883 166.398 221.209 166.127C219.536 165.857 217.959 166.994 217.689 168.668C217.418 170.341 218.555 171.918 220.229 172.189C221.903 172.459 223.479 171.322 223.75 169.648Z" fill="#724494"/>
<path id="Vector_29" d="M167.667 153.534C168.054 151.894 167.038 150.252 165.399 149.865C163.76 149.478 162.117 150.493 161.73 152.133C161.343 153.772 162.358 155.415 163.998 155.802C165.637 156.189 167.28 155.173 167.667 153.534Z" fill="#724494"/>
<path id="Vector_30" d="M127.53 173.55C128.38 173.55 129.06 174.24 129.06 175.08C129.06 175.92 128.37 176.61 127.53 176.61C126.69 176.61 126 175.92 126 175.08C126 174.24 126.69 173.55 127.53 173.55Z" fill="#724494"/>
<path id="Vector_31" d="M250.791 167.466C251.15 165.253 249.647 163.167 247.434 162.808C245.22 162.449 243.135 163.952 242.776 166.165C242.416 168.378 243.919 170.464 246.133 170.823C248.346 171.182 250.431 169.679 250.791 167.466Z" fill="#724494"/>
<path id="Vector_32" d="M258.53 145.83C260.772 145.83 262.59 144.012 262.59 141.77C262.59 139.528 260.772 137.71 258.53 137.71C256.287 137.71 254.47 139.528 254.47 141.77C254.47 144.012 256.287 145.83 258.53 145.83Z" fill="#724494"/>
<path id="Vector_33" d="M72.0491 201.37C72.9791 201.37 73.7291 202.12 73.7291 203.05C73.7291 203.98 72.9791 204.73 72.0491 204.73C71.1191 204.73 70.3691 203.98 70.3691 203.05C70.3691 202.12 71.1191 201.37 72.0491 201.37Z" fill="#724494"/>
<path id="Vector_34" d="M65.2093 172.28C66.1393 172.28 66.8893 173.03 66.8893 173.96C66.8893 174.89 66.1393 175.64 65.2093 175.64C64.2793 175.64 63.5293 174.89 63.5293 173.96C63.5293 173.03 64.2793 172.28 65.2093 172.28Z" fill="#724494"/>
<path id="Vector_35" d="M80.4819 131.593C80.8297 129.45 79.3748 127.431 77.2324 127.084C75.0899 126.736 73.0712 128.191 72.7234 130.333C72.3757 132.476 73.8305 134.494 75.973 134.842C78.1154 135.19 80.1341 133.735 80.4819 131.593Z" fill="#724494"/>
<path id="Vector_36" d="M142.369 137.92C143.369 137.92 144.169 138.73 144.169 139.72C144.169 140.71 143.359 141.52 142.369 141.52C141.379 141.52 140.569 140.71 140.569 139.72C140.569 138.73 141.379 137.92 142.369 137.92Z" fill="#724494"/>
<path id="Vector_37" d="M202.543 239.133C202.86 237.795 202.032 236.453 200.694 236.136C199.356 235.819 198.014 236.647 197.697 237.985C197.38 239.323 198.208 240.665 199.546 240.982C200.884 241.299 202.226 240.471 202.543 239.133Z" fill="#724494"/>
<path id="Vector_38" d="M215.459 234.1C217.724 234.1 219.559 232.264 219.559 230C219.559 227.736 217.724 225.9 215.459 225.9C213.195 225.9 211.359 227.736 211.359 230C211.359 232.264 213.195 234.1 215.459 234.1Z" fill="#724494"/>
<path id="Vector_39" d="M89.3991 253.1C92.0391 253.1 94.1791 250.96 94.1791 248.32C94.1791 245.68 92.0391 243.54 89.3991 243.54C86.7592 243.54 84.6191 245.68 84.6191 248.32C84.6191 250.96 86.7592 253.1 89.3991 253.1Z" fill="#724494"/>
<path id="Vector_40" d="M217.699 250.47C218.789 250.47 219.669 251.35 219.669 252.44C219.669 253.53 218.789 254.41 217.699 254.41C216.609 254.41 215.729 253.53 215.729 252.44C215.729 251.35 216.609 250.47 217.699 250.47Z" fill="#724494"/>
<path id="Vector_41" d="M226.235 65.4765C226.557 63.4922 225.21 61.6225 223.225 61.3004C221.241 60.9782 219.371 62.3258 219.049 64.3101C218.727 66.2944 220.074 68.1642 222.059 68.4863C224.043 68.8084 225.913 67.4609 226.235 65.4765Z" fill="#724494"/>
<path id="Vector_42" d="M73.9824 74.0369C75.2204 72.799 75.2204 70.7918 73.9824 69.5539C72.7444 68.3159 70.7373 68.3159 69.4993 69.5539C68.2614 70.7918 68.2614 72.799 69.4993 74.0369C70.7373 75.2749 72.7444 75.2749 73.9824 74.0369Z" fill="#724494"/>
<path id="Vector_43" d="M111.75 256.02C113.49 254.69 115.47 256.66 114.14 258.41C112.4 259.74 110.42 257.77 111.75 256.02Z" fill="#724494"/>
<path id="Vector_44" d="M279.221 235.595C280.186 234.631 280.186 233.067 279.221 232.102C278.257 231.138 276.693 231.138 275.728 232.102C274.763 233.067 274.763 234.631 275.728 235.595C276.693 236.56 278.257 236.56 279.221 235.595Z" fill="#724494"/>
<path id="Vector_45" d="M108.97 189.61C110.809 189.61 112.3 188.119 112.3 186.28C112.3 184.441 110.809 182.95 108.97 182.95C107.131 182.95 105.64 184.441 105.64 186.28C105.64 188.119 107.131 189.61 108.97 189.61Z" fill="#724494"/>
<path id="Vector_46" d="M174.629 119.67C175.119 119.67 175.519 120.07 175.519 120.56C175.519 121.05 175.119 121.45 174.629 121.45C174.139 121.45 173.739 121.05 173.739 120.56C173.739 120.07 174.139 119.67 174.629 119.67Z" fill="#724494"/>
<path id="Vector_47" d="M170.609 194.18C171.918 194.18 172.979 193.119 172.979 191.81C172.979 190.501 171.918 189.44 170.609 189.44C169.3 189.44 168.239 190.501 168.239 191.81C168.239 193.119 169.3 194.18 170.609 194.18Z" fill="#724494"/>
<path id="Vector_48" d="M198.95 124.25C200.988 124.25 202.64 122.598 202.64 120.56C202.64 118.522 200.988 116.87 198.95 116.87C196.912 116.87 195.26 118.522 195.26 120.56C195.26 122.598 196.912 124.25 198.95 124.25Z" fill="#724494"/>
<path id="Vector_49" d="M163.51 86.3599C164.686 86.3599 165.64 85.4062 165.64 84.2299C165.64 83.0535 164.686 82.0999 163.51 82.0999C162.334 82.0999 161.38 83.0535 161.38 84.2299C161.38 85.4062 162.334 86.3599 163.51 86.3599Z" fill="#724494"/>
<path id="Vector_50" d="M197.899 184.39C199.39 184.39 200.599 183.181 200.599 181.69C200.599 180.199 199.39 178.99 197.899 178.99C196.408 178.99 195.199 180.199 195.199 181.69C195.199 183.181 196.408 184.39 197.899 184.39Z" fill="#724494"/>
<path id="Vector_51" d="M148.48 244.85C149.684 244.85 150.66 243.874 150.66 242.67C150.66 241.466 149.684 240.49 148.48 240.49C147.276 240.49 146.3 241.466 146.3 242.67C146.3 243.874 147.276 244.85 148.48 244.85Z" fill="#724494"/>
<path id="Vector_52" d="M149.11 196.41C150.816 196.41 152.2 195.027 152.2 193.32C152.2 191.613 150.816 190.23 149.11 190.23C147.403 190.23 146.02 191.613 146.02 193.32C146.02 195.027 147.403 196.41 149.11 196.41Z" fill="#724494"/>
<path id="Vector_53" d="M94.4692 210.76C96.9876 210.76 99.0292 208.718 99.0292 206.2C99.0292 203.681 96.9876 201.64 94.4692 201.64C91.9508 201.64 89.9092 203.681 89.9092 206.2C89.9092 208.718 91.9508 210.76 94.4692 210.76Z" fill="#724494"/>
<path id="Vector_54" d="M165.779 121.46C167.939 121.46 169.689 119.709 169.689 117.55C169.689 115.39 167.939 113.64 165.779 113.64C163.62 113.64 161.869 115.39 161.869 117.55C161.869 119.709 163.62 121.46 165.779 121.46Z" fill="#724494"/>
<path id="Vector_55" d="M174.499 206.63C176.344 206.63 177.839 205.135 177.839 203.29C177.839 201.445 176.344 199.95 174.499 199.95C172.655 199.95 171.159 201.445 171.159 203.29C171.159 205.135 172.655 206.63 174.499 206.63Z" fill="#724494"/>
<path id="Vector_56" d="M60.5297 221.61C63.0702 221.61 65.1297 219.55 65.1297 217.01C65.1297 214.469 63.0702 212.41 60.5297 212.41C57.9892 212.41 55.9297 214.469 55.9297 217.01C55.9297 219.55 57.9892 221.61 60.5297 221.61Z" fill="#724494"/>
<path id="Vector_57" d="M235.299 105.21C236.917 105.21 238.229 103.898 238.229 102.28C238.229 100.662 236.917 99.3499 235.299 99.3499C233.681 99.3499 232.369 100.662 232.369 102.28C232.369 103.898 233.681 105.21 235.299 105.21Z" fill="#724494"/>
<path id="Vector_58" d="M196.3 88.2351C196.869 85.827 195.377 83.4142 192.969 82.8458C190.561 82.2775 188.148 83.7688 187.58 86.1769C187.012 88.585 188.503 90.9979 190.911 91.5662C193.319 92.1346 195.732 90.6432 196.3 88.2351Z" fill="#724494"/>
<path id="Vector_59" d="M253.53 220.954C255.022 219.462 255.022 217.043 253.53 215.551C252.038 214.059 249.62 214.059 248.128 215.551C246.636 217.043 246.636 219.462 248.128 220.954C249.62 222.445 252.038 222.445 253.53 220.954Z" fill="#724494"/>
<path id="Vector_60" d="M199.09 221.674C200 220.764 200 219.289 199.09 218.379C198.18 217.469 196.705 217.469 195.795 218.379C194.885 219.289 194.885 220.764 195.795 221.674C196.705 222.584 198.18 222.584 199.09 221.674Z" fill="#724494"/>
<path id="Vector_61" d="M146.93 221.05C148.36 221.05 149.52 219.89 149.52 218.46C149.52 217.029 148.36 215.87 146.93 215.87C145.499 215.87 144.34 217.029 144.34 218.46C144.34 219.89 145.499 221.05 146.93 221.05Z" fill="#724494"/>
<path id="Vector_62" d="M143.21 111.54L100.09 138.9" stroke="#724494" stroke-width="0.48"/>
<path id="Vector_63" opacity="0.4" d="M110.48 180.17L100.09 138.9" stroke="#724494" stroke-width="0.48"/>
<path id="Vector_64" opacity="0.4" d="M143.21 111.54L113.89 146.15" stroke="#724494" stroke-width="0.48"/>
<path id="Vector_65" opacity="0.4" d="M143.209 111.54L107.739 97.8699" stroke="#724494" stroke-width="0.48"/>
<path id="Vector_66" opacity="0.4" d="M100.089 138.9L93.2393 113.96" stroke="#724494" stroke-width="0.48"/>
<path id="Vector_67" opacity="0.4" d="M173.4 235.72L161.56 260.11" stroke="#724494" stroke-width="0.48"/>
<path id="Vector_68" d="M100.09 138.9L113.89 146.15" stroke="#724494" stroke-width="0.48"/>
<path id="Vector_69" opacity="0.4" d="M197.449 220.03L173.399 235.72" stroke="#724494" stroke-width="0.48"/>
<path id="Vector_70" d="M110.479 180.17L113.889 146.15" stroke="#724494" stroke-width="0.48"/>
<path id="Vector_71" d="M57.2995 234.54L43.4395 213.44" stroke="#724494" stroke-width="0.48"/>
<path id="Vector_72" d="M52.2998 129.83L93.2398 113.96" stroke="#724494" stroke-width="0.48"/>
<path id="Vector_73" d="M57.3 234.54L27.71 253.09" stroke="#724494" stroke-width="0.48"/>
<path id="Vector_74" d="M107.739 97.8699L93.2393 113.96" stroke="#724494" stroke-width="0.48"/>
<path id="Vector_75" opacity="0.4" d="M57.4795 234.57L113.179 256.91" stroke="#724494" stroke-width="0.48"/>
<path id="Vector_76" opacity="0.4" d="M116.219 43.51L93.2393 113.96" stroke="#724494" stroke-width="0.48"/>
<path id="Vector_77" opacity="0.4" d="M116.219 43.51L107.739 97.87" stroke="#724494" stroke-width="0.48"/>
<path id="Vector_78" d="M43.44 213.44L27.71 253.09" stroke="#724494" stroke-width="0.48"/>
<path id="Vector_79" d="M62.4298 111.67L52.2998 129.83" stroke="#724494" stroke-width="0.48"/>
<path id="Vector_80" d="M225.369 209.75L247.569 186.8" stroke="#724494" stroke-width="0.48"/>
<path id="Vector_81" d="M62.4297 111.67L93.2397 113.96" stroke="#724494" stroke-width="0.48"/>
<path id="Vector_82" d="M43.4393 213.44L38.7393 184.9" stroke="#724494" stroke-width="0.48"/>
<path id="Vector_83" opacity="0.4" d="M87.54 77.79L93.24 113.96" stroke="#724494" stroke-width="0.48"/>
<path id="Vector_84" opacity="0.4" d="M110.479 180.17L124.049 196.35" stroke="#724494" stroke-width="0.48"/>
<path id="Vector_85" d="M107.74 97.8699L62.4297 111.67" stroke="#724494" stroke-width="0.48"/>
<path id="Vector_86" d="M107.74 97.87L87.54 77.79" stroke="#724494" stroke-width="0.48"/>
<path id="Vector_87" opacity="0.4" d="M116.22 43.51L87.54 77.79" stroke="#724494" stroke-width="0.48"/>
<path id="Vector_88" d="M287.609 182.01L247.569 186.8" stroke="#724494" stroke-width="0.48"/>
<path id="Vector_89" d="M116.22 43.51L116.99 62.99" stroke="#724494" stroke-width="0.48"/>
<path id="Vector_90" d="M62.4297 111.67L87.5397 77.79" stroke="#724494" stroke-width="0.48"/>
<path id="Vector_91" opacity="0.4" d="M219.449 85.47L223.129 116.8" stroke="#724494" stroke-width="0.48"/>
<path id="Vector_92" opacity="0.4" d="M277.619 233.82L247.569 186.8" stroke="#724494" stroke-width="0.48"/>
<path id="Vector_93" d="M132.45 231.87L113 256.88" stroke="#724494" stroke-width="0.48"/>
<path id="Vector_94" d="M255.529 174.64L247.569 186.8" stroke="#724494" stroke-width="0.48"/>
<path id="Vector_95" d="M255.529 174.64L287.609 182.01" stroke="#724494" stroke-width="0.48"/>
<path id="Vector_96" d="M116.99 62.99L87.54 77.79" stroke="#724494" stroke-width="0.48"/>
<path id="Vector_97" d="M197.76 146.15L198.35 120.73" stroke="#724494" stroke-width="0.48"/>
<path id="Vector_98" opacity="0.4" d="M107.779 284.26L112.999 256.88" stroke="#724494" stroke-width="0.48"/>
<path id="Vector_99" opacity="0.4" d="M132.449 231.87L127.529 175.09" stroke="#724494" stroke-width="0.48"/>
<path id="Vector_100" opacity="0.4" d="M219.45 85.47L198.35 120.73" stroke="#724494" stroke-width="0.48"/>
<path id="Vector_101" d="M197.76 146.15L220.72 169.15" stroke="#724494" stroke-width="0.48"/>
<path id="Vector_102" d="M258.53 141.77L198.35 120.73" stroke="#724494" stroke-width="0.48"/>
<path id="Vector_103" d="M124.05 196.35L127.53 175.09" stroke="#724494" stroke-width="0.48"/>
<path id="Vector_104" opacity="0.4" d="M71.5997 71.7L62.4297 111.67" stroke="#724494" stroke-width="0.48"/>
<path id="Vector_105" opacity="0.4" d="M71.5996 71.7L87.5396 77.79" stroke="#724494" stroke-width="0.48"/>
<path id="Vector_106" d="M197.76 146.15L246.77 166.81" stroke="#724494" stroke-width="0.48"/>
<path id="Vector_107" d="M255.53 174.64L246.77 166.81" stroke="#724494" stroke-width="0.48"/>
<path id="Vector_108" opacity="0.4" d="M258.53 141.77L197.76 146.15" stroke="#724494" stroke-width="0.48"/>
<path id="Vector_109" d="M258.529 141.77L255.529 174.64" stroke="#724494" stroke-width="0.48"/>
<path id="Vector_110" d="M124.319 137.02L127.529 175.09" stroke="#724494" stroke-width="0.48"/>
<path id="Vector_111" d="M124.319 137.02L142.369 139.72" stroke="#724494" stroke-width="0.48"/>
<path id="Vector_112" d="M127.529 175.09L164.709 152.84" stroke="#724494" stroke-width="0.48"/>
<path id="Vector_113" opacity="0.4" d="M71.5996 71.7L116.99 62.99" stroke="#724494" stroke-width="0.48"/>
<path id="Vector_114" d="M246.77 166.81L220.72 169.15" stroke="#724494" stroke-width="0.48"/>
<path id="Vector_115" d="M222.629 64.8899L219.449 85.4699" stroke="#724494" stroke-width="0.48"/>
<path id="Vector_116" d="M200.05 238.52L220.72 169.15" stroke="#724494" stroke-width="0.48"/>
<path id="Vector_117" d="M142.369 139.72L164.709 152.84" stroke="#724494" stroke-width="0.48"/>
<path id="Vector_118" d="M215.46 230L220.72 169.15" stroke="#724494" stroke-width="0.48"/>
<path id="Vector_119" opacity="0.4" d="M222.63 64.8899L198.35 120.73" stroke="#724494" stroke-width="0.48"/>
<path id="Vector_120" d="M258.53 141.77L246.77 166.81" stroke="#724494" stroke-width="0.48"/>
<path id="Vector_121" d="M224.95 209.07L221.04 169.45" stroke="#724494" stroke-width="0.48"/>
<path id="Vector_122" d="M149.96 193.31L164.71 152.84" stroke="#724494" stroke-width="0.48"/>
<path id="Vector_123" d="M200.05 238.52L215.46 230" stroke="#724494" stroke-width="0.48"/>
<path id="Vector_124" d="M200.05 238.52L217.52 252.48" stroke="#724494" stroke-width="0.48"/>
<path id="Vector_125" d="M71.5996 71.7L76.6096 130.96" stroke="#724494" stroke-width="0.48"/>
<path id="Vector_126" opacity="0.4" d="M89.4198 248.39L72.0498 203.05" stroke="#724494" stroke-width="0.48"/>
<path id="Vector_127" d="M108.97 186.28L72.0498 203.05" stroke="#724494" stroke-width="0.48"/>
<path id="Vector_128" d="M65.3398 174.2L72.0499 203.05" stroke="#724494" stroke-width="0.48"/>
<path id="Vector_129" d="M107.78 284.26L89.4199 248.39" stroke="#724494" stroke-width="0.48"/>
<path id="Vector_130" opacity="0.4" d="M163.069 84L142.369 139.72" stroke="#724494" stroke-width="0.48"/>
<path id="Vector_131" opacity="0.4" d="M149.649 193.42L170.609 191.81" stroke="#724494" stroke-width="0.48"/>
<path id="Vector_132" opacity="0.4" d="M89.4199 248.39L108.97 186.28" stroke="#724494" stroke-width="0.48"/>
<path id="Vector_133" d="M107.779 284.26L149.009 242.88" stroke="#724494" stroke-width="0.48"/>
<path id="Vector_134" d="M108.97 186.28L65.3398 174.2" stroke="#724494" stroke-width="0.48"/>
<path id="Vector_135" opacity="0.4" d="M165.529 117.86L142.369 139.72" stroke="#724494" stroke-width="0.48"/>
<path id="Vector_136" opacity="0.4" d="M107.78 284.26L94.4697 206.2" stroke="#724494" stroke-width="0.48"/>
<path id="Vector_137" d="M174.63 120.56L185.45 118.63" stroke="#724494" stroke-width="0.48"/>
<path id="Vector_138" d="M170.609 191.81L197.899 181.69" stroke="#724494" stroke-width="0.48"/>
<path id="Vector_139" d="M185.449 118.63L163.069 84" stroke="#724494" stroke-width="0.48"/>
<path id="Vector_140" d="M149.11 193.32L108.97 186.28" stroke="#724494" stroke-width="0.48"/>
<path id="Vector_141" d="M174.629 120.56L165.529 117.86" stroke="#724494" stroke-width="0.48"/>
<path id="Vector_142" opacity="0.4" d="M222.63 64.8899L235.3 102.28" stroke="#724494" stroke-width="0.48"/>
<path id="Vector_143" opacity="0.4" d="M222.63 64.8899L191.83 87.1199" stroke="#724494" stroke-width="0.48"/>
<path id="Vector_144" d="M185.449 118.63L165.529 117.86" stroke="#724494" stroke-width="0.48"/>
<path id="Vector_145" d="M149.01 242.88L149.11 193.32" stroke="#724494" stroke-width="0.48"/>
<path id="Vector_146" opacity="0.4" d="M94.4697 206.2L149.01 242.88" stroke="#724494" stroke-width="0.48"/>
<path id="Vector_147" d="M165.529 117.86L163.069 84" stroke="#724494" stroke-width="0.48"/>
<path id="Vector_148" d="M170.609 191.81L174.499 203.29" stroke="#724494" stroke-width="0.48"/>
<path id="Vector_149" d="M149.01 242.88L174.5 203.29" stroke="#724494" stroke-width="0.48"/>
<path id="Vector_150" opacity="0.4" d="M174.13 236.14L149.01 242.88" stroke="#724494" stroke-width="0.48"/>
<path id="Vector_151" d="M191.829 87.12L163.069 84" stroke="black"/>
<path id="Vector_152" d="M60.5293 217.01L94.4693 206.2" stroke="#724494" stroke-width="0.48"/>
<path id="Vector_153" opacity="0.4" d="M250.829 218.25L197.899 181.69" stroke="#724494" stroke-width="0.48"/>
<path id="Vector_154" opacity="0.4" d="M191.829 87.1199L165.529 117.86" stroke="#724494" stroke-width="0.48"/>
<path id="Vector_155" d="M191.83 87.1199L235.3 102.28" stroke="#724494" stroke-width="0.48"/>
<path id="Vector_156" d="M197.45 220.03L174.5 203.29" stroke="#724494" stroke-width="0.48"/>
<path id="Vector_157" opacity="0.4" d="M146.93 218.46L174.5 203.29" stroke="#724494" stroke-width="0.48"/>
<path id="Vector_158" opacity="0.4" d="M250.829 218.25L197.449 220.03" stroke="#724494" stroke-width="0.48"/>
<path id="Vector_159" opacity="0.4" d="M146.93 218.46L197.45 220.03" stroke="#724494" stroke-width="0.48"/>
<path id="Vector_160" opacity="0.5" d="M223.24 179.43C223.71 179.43 224.09 179.81 224.09 180.28C224.09 180.75 223.71 181.13 223.24 181.13C222.77 181.13 222.39 180.75 222.39 180.28C222.39 179.81 222.77 179.43 223.24 179.43Z" fill="#A97BB5"/>
<path id="Vector_161" opacity="0.5" d="M95.1394 148.84C95.2694 148.84 95.3794 148.95 95.3794 149.08C95.3794 149.21 95.2694 149.32 95.1394 149.32C95.0094 149.32 94.8994 149.21 94.8994 149.08C94.8994 148.95 95.0094 148.84 95.1394 148.84Z" fill="#A97BB5"/>
<path id="Vector_162" opacity="0.5" d="M144.119 82.97C145.412 82.97 146.459 81.9224 146.459 80.63C146.459 79.3377 145.412 78.29 144.119 78.29C142.827 78.29 141.779 79.3377 141.779 80.63C141.779 81.9224 142.827 82.97 144.119 82.97Z" fill="#A97BB5"/>
<path id="Vector_163" opacity="0.5" d="M157.549 173.83C158.059 173.83 158.479 174.25 158.479 174.76C158.479 175.27 158.059 175.69 157.549 175.69C157.039 175.69 156.619 175.27 156.619 174.76C156.619 174.25 157.039 173.83 157.549 173.83Z" fill="#A97BB5"/>
<path id="Vector_164" opacity="0.5" d="M194.36 246.93C195.105 246.93 195.71 246.326 195.71 245.58C195.71 244.834 195.105 244.23 194.36 244.23C193.614 244.23 193.01 244.834 193.01 245.58C193.01 246.326 193.614 246.93 194.36 246.93Z" fill="#A97BB5"/>
<path id="Vector_165" opacity="0.5" d="M175.229 254.11C176.748 254.11 177.979 252.879 177.979 251.36C177.979 249.841 176.748 248.61 175.229 248.61C173.711 248.61 172.479 249.841 172.479 251.36C172.479 252.879 173.711 254.11 175.229 254.11Z" fill="#A97BB5"/>
<path id="Vector_166" opacity="0.5" d="M238.059 186.63C238.788 186.63 239.379 186.039 239.379 185.31C239.379 184.581 238.788 183.99 238.059 183.99C237.33 183.99 236.739 184.581 236.739 185.31C236.739 186.039 237.33 186.63 238.059 186.63Z" fill="#A97BB5"/>
<path id="Vector_167" opacity="0.5" d="M193.639 107.76C194.551 107.76 195.289 107.021 195.289 106.11C195.289 105.199 194.551 104.46 193.639 104.46C192.728 104.46 191.989 105.199 191.989 106.11C191.989 107.021 192.728 107.76 193.639 107.76Z" fill="#A97BB5"/>
<path id="Vector_168" opacity="0.5" d="M241.399 183.37C241.859 183.37 242.229 183.74 242.229 184.2C242.229 184.66 241.859 185.03 241.399 185.03C240.939 185.03 240.569 184.66 240.569 184.2C240.569 183.74 240.939 183.37 241.399 183.37Z" fill="#A97BB5"/>
<path id="Vector_169" opacity="0.5" d="M226.489 61.6899C227.202 61.6899 227.779 61.1123 227.779 60.3999C227.779 59.6874 227.202 59.1099 226.489 59.1099C225.777 59.1099 225.199 59.6874 225.199 60.3999C225.199 61.1123 225.777 61.6899 226.489 61.6899Z" fill="#A97BB5"/>
<path id="Vector_170" opacity="0.5" d="M199.8 206.27C200.72 206.27 201.46 207.01 201.46 207.93C201.46 208.85 200.72 209.59 199.8 209.59C198.88 209.59 198.14 208.85 198.14 207.93C198.14 207.01 198.88 206.27 199.8 206.27Z" fill="#A97BB5"/>
<path id="Vector_171" opacity="0.5" d="M252.93 101.27C253.83 101.27 254.56 102 254.56 102.9C254.56 103.8 253.83 104.53 252.93 104.53C252.03 104.53 251.3 103.8 251.3 102.9C251.3 102 252.03 101.27 252.93 101.27Z" fill="#A97BB5"/>
<path id="Vector_172" opacity="0.5" d="M33.2195 191.2C33.9295 191.2 34.4995 191.77 34.4995 192.48C34.4995 193.19 33.9295 193.76 33.2195 193.76C32.5095 193.76 31.9395 193.19 31.9395 192.48C31.9395 191.77 32.5095 191.2 33.2195 191.2Z" fill="#A97BB5"/>
<path id="Vector_173" opacity="0.5" d="M235.84 85.45C236.58 85.45 237.17 86.05 237.17 86.78C237.17 87.51 236.57 88.11 235.84 88.11C235.11 88.11 234.51 87.51 234.51 86.78C234.51 86.05 235.11 85.45 235.84 85.45Z" fill="#A97BB5"/>
<path id="Vector_174" opacity="0.5" d="M57.8096 74.71C58.6396 74.71 59.3096 75.38 59.3096 76.21C59.3096 77.04 58.6396 77.71 57.8096 77.71C56.9796 77.71 56.3096 77.04 56.3096 76.21C56.3096 75.38 56.9796 74.71 57.8096 74.71Z" fill="#A97BB5"/>
<path id="Vector_175" opacity="0.5" d="M82.8991 254.48C83.6091 254.48 84.1791 255.05 84.1791 255.76C84.1791 256.47 83.6091 257.04 82.8991 257.04C82.1891 257.04 81.6191 256.47 81.6191 255.76C81.6191 255.05 82.1891 254.48 82.8991 254.48Z" fill="#A97BB5"/>
<path id="Vector_176" opacity="0.5" d="M113.189 124.71C114.139 124.71 114.899 125.48 114.899 126.42C114.899 127.36 114.129 128.13 113.189 128.13C112.249 128.13 111.479 127.36 111.479 126.42C111.479 125.48 112.249 124.71 113.189 124.71Z" fill="#A97BB5"/>
<path id="Vector_177" opacity="0.5" d="M131.21 254.07C132.2 254.07 133 254.87 133 255.86C133 256.85 132.2 257.65 131.21 257.65C130.22 257.65 129.42 256.85 129.42 255.86C129.42 254.87 130.22 254.07 131.21 254.07Z" fill="#A97BB5"/>
<path id="Vector_178" opacity="0.5" d="M124.399 87.2C125.179 87.2 125.809 87.83 125.809 88.61C125.809 89.39 125.179 90.02 124.399 90.02C123.619 90.02 122.989 89.39 122.989 88.61C122.989 87.83 123.619 87.2 124.399 87.2Z" fill="#A97BB5"/>
<path id="Vector_179" opacity="0.5" d="M214.89 68.46C215.48 68.46 215.95 68.93 215.95 69.52C215.95 70.11 215.48 70.58 214.89 70.58C214.3 70.58 213.83 70.11 213.83 69.52C213.83 68.93 214.3 68.46 214.89 68.46Z" fill="#A97BB5"/>
<path id="Vector_180" opacity="0.5" d="M173.01 69.46C173.53 69.46 173.94 69.88 173.94 70.39C173.94 70.9 173.52 71.33 173.01 71.33C172.5 71.33 172.08 70.91 172.08 70.39C172.08 69.87 172.5 69.46 173.01 69.46Z" fill="#A97BB5"/>
<path id="Vector_181" opacity="0.5" d="M237.03 150.3C237.985 150.3 238.76 149.525 238.76 148.57C238.76 147.614 237.985 146.84 237.03 146.84C236.074 146.84 235.3 147.614 235.3 148.57C235.3 149.525 236.074 150.3 237.03 150.3Z" fill="#A97BB5"/>
<path id="Vector_182" opacity="0.5" d="M116.31 42.0199C116.68 42.0199 116.98 41.72 116.98 41.3499C116.98 40.9799 116.68 40.6799 116.31 40.6799C115.94 40.6799 115.64 40.9799 115.64 41.3499C115.64 41.72 115.94 42.0199 116.31 42.0199Z" fill="#A97BB5"/>
<path id="Vector_183" opacity="0.5" d="M82.5194 145.02C83.4194 145.02 84.1394 145.75 84.1394 146.64C84.1394 147.53 83.4094 148.26 82.5194 148.26C81.6294 148.26 80.8994 147.53 80.8994 146.64C80.8994 145.75 81.6294 145.02 82.5194 145.02Z" fill="#A97BB5"/>
<path id="Vector_184" opacity="0.5" d="M269.68 148.68C270.36 148.68 270.9 149.23 270.9 149.9C270.9 150.57 270.35 151.12 269.68 151.12C269.01 151.12 268.46 150.57 268.46 149.9C268.46 149.23 269.01 148.68 269.68 148.68Z" fill="#A97BB5"/>
<path id="Vector_185" opacity="0.5" d="M119.819 150.46C120.145 150.46 120.409 150.196 120.409 149.87C120.409 149.544 120.145 149.28 119.819 149.28C119.494 149.28 119.229 149.544 119.229 149.87C119.229 150.196 119.494 150.46 119.819 150.46Z" fill="#A97BB5"/>
<path id="Vector_186" opacity="0.5" d="M72.3198 186.48C73.0433 186.48 73.6298 185.893 73.6298 185.17C73.6298 184.446 73.0433 183.86 72.3198 183.86C71.5963 183.86 71.0098 184.446 71.0098 185.17C71.0098 185.893 71.5963 186.48 72.3198 186.48Z" fill="#A97BB5"/>
<path id="Vector_187" opacity="0.5" d="M222.75 225.47C223.346 225.47 223.83 224.987 223.83 224.39C223.83 223.794 223.346 223.31 222.75 223.31C222.153 223.31 221.67 223.794 221.67 224.39C221.67 224.987 222.153 225.47 222.75 225.47Z" fill="#A97BB5"/>
<path id="Vector_188" opacity="0.5" d="M99.0595 150.97C99.4895 150.97 99.8495 151.32 99.8495 151.76C99.8495 152.2 99.4995 152.55 99.0595 152.55C98.6195 152.55 98.2695 152.2 98.2695 151.76C98.2695 151.32 98.6195 150.97 99.0595 150.97Z" fill="#A97BB5"/>
<path id="Vector_189" opacity="0.5" d="M195.98 35.34C196.289 35.34 196.54 35.0892 196.54 34.78C196.54 34.4707 196.289 34.22 195.98 34.22C195.671 34.22 195.42 34.4707 195.42 34.78C195.42 35.0892 195.671 35.34 195.98 35.34Z" fill="#A97BB5"/>
<path id="Vector_190" opacity="0.5" d="M116.179 169.91C116.719 169.91 117.159 170.35 117.159 170.89C117.159 171.43 116.719 171.87 116.179 171.87C115.639 171.87 115.199 171.43 115.199 170.89C115.199 170.35 115.639 169.91 116.179 169.91Z" fill="#A97BB5"/>
<path id="Vector_191" d="M288.322 183.181C289.286 182.217 289.286 180.653 288.322 179.688C287.357 178.724 285.793 178.724 284.829 179.688C283.864 180.653 283.864 182.217 284.829 183.181C285.793 184.146 287.357 184.146 288.322 183.181Z" fill="#724494"/>
</g>
<g id="Group_2">
<g id="Group_3">
<path id="Vector_192" d="M145.27 158.61C145.38 158.7 145.53 158.79 145.66 158.87C145.26 158.59 144.88 158.3 144.5 157.99C144.77 158.21 145.03 158.42 145.27 158.6V158.61Z" fill="#8BC1CD"/>
<path id="Vector_193" d="M146.88 159.65C146.46 159.41 146.06 159.15 145.66 158.87C146.07 159.14 146.51 159.41 146.88 159.65Z" fill="#8BC1CD"/>
<path id="Vector_194" d="M184.89 73.29C163.77 85.48 146.71 115.04 146.78 139.3C146.85 163.56 164.03 173.35 185.14 161.16C206.26 148.97 223.32 119.41 223.25 95.15C223.18 70.89 206 61.1 184.89 73.29Z" fill="#E1D3E9"/>
<path id="Vector_195" d="M144.48 139.56C144.41 114.42 162.09 83.7899 183.97 71.1599C194.98 64.7999 204.96 64.2099 212.16 68.3999L203.01 63.0799C202.36 62.6999 201.67 62.3799 200.98 62.0799C200.63 61.9199 200.28 61.7699 199.97 61.6499C199.08 61.3099 197.85 60.9599 196.91 60.7799C193.39 60.1199 191.13 60.3299 189.32 60.4999C188.3 60.5999 186.95 60.8199 185.96 61.0799C184.38 61.4799 182.32 62.1399 180.78 62.6799C179.67 63.0699 178.25 63.7599 177.19 64.2699C176.31 64.6999 175.18 65.3499 174.32 65.8099C169.11 68.8499 165.63 71.8799 164.68 72.7399C161.29 75.8099 161.01 76.0599 158.89 78.3199C155.81 81.5999 153.55 84.5899 153.53 84.6199C150.85 88.2199 150.44 88.7699 148.69 91.5099C148.12 92.4099 146.37 95.1399 144.45 98.8599C140.84 105.83 138.91 111.61 138.09 114.43C137.55 116.28 136.81 118.81 136.15 122.4C135.57 125.54 135.53 125.99 135.17 130.32C135.01 132.25 134.94 137.6 135.76 141.85C136.07 143.43 137 148.23 139.53 152.27C140.66 154.08 141.59 155.27 142.83 156.52C143.23 156.92 143.73 157.36 144.24 157.78C144.33 157.86 144.42 157.93 144.52 158.01C144.9 158.32 145.29 158.61 145.68 158.89C146.08 159.17 146.48 159.43 146.9 159.67L156.05 164.99C148.94 160.86 144.53 152.07 144.49 139.58L144.48 139.56Z" fill="url(#paint0_linear_1902_24912)"/>
<path id="Vector_196" d="M221.97 81.0799C221.63 80.0599 221.05 78.7499 220.6 77.7699C220.32 77.1599 219.85 76.3899 219.52 75.7999C219.04 74.9099 218.2 73.8499 217.58 73.0499C216.97 72.2599 216.04 71.3099 215.28 70.6599C214.4 69.9099 213.14 69.0099 212.15 68.3999C204.95 64.2099 194.97 64.7999 183.96 71.1599C162.08 83.7899 144.4 114.42 144.47 139.56C144.51 152.05 148.92 160.84 156.03 164.97C157.58 165.8 158.7 166.39 160.94 166.99C162.56 167.42 164.65 167.71 166.28 167.71C168.4 167.71 170.35 167.54 172.08 167.18C175.35 166.5 177.66 165.65 179.03 165.06C180.84 164.27 182.56 163.52 185.24 161.94C188.74 159.87 191.4 157.74 191.42 157.72C194.44 155.25 195.82 154.12 197.33 152.59C199.03 150.87 201.24 148.51 202.85 146.7C203.69 145.76 204.72 144.42 205.5 143.43C206.28 142.44 207.29 141.1 207.99 140.05C209.4 137.94 211.23 135.08 212.55 132.91C213.71 131.01 214.57 129.25 216.46 125.39C216.48 125.36 218.12 121.91 219.64 117.63C220.78 114.42 221.22 112.76 222.01 109.76C222.01 109.72 222.95 106.14 223.49 101.92C223.71 100.22 223.99 97.5699 223.99 94.2299C223.99 91.1699 223.77 86.4699 221.97 81.0699V81.0799ZM185.14 161.16C164.02 173.35 146.85 163.56 146.78 139.3C146.71 115.04 163.78 85.4799 184.89 73.2899C206.01 61.0999 223.18 70.8899 223.25 95.1499C223.32 119.41 206.25 148.97 185.14 161.16Z" fill="#F6F7FC"/>
</g>
<g id="Group_4">
<path id="Vector_197" d="M220.34 113.28C210.98 105.61 201.61 97.94 192.25 90.27C192.31 90.32 192.36 90.41 192.41 90.48C192.33 90.38 192.25 90.26 192.17 90.21L164.29 145.55C164.48 145.66 164.84 145.55 165.29 145.29C165.74 145.17 166.24 144.75 166.64 144.51C166.9 144.36 167.17 144.21 167.43 144.05C167.54 143.99 168.44 143.47 169.75 142.71C169.84 142.65 169.93 142.6 170.02 142.55C173.06 140.79 176.1 139.04 179.14 137.28V137.3L179.27 184.52C179.51 184.66 179.87 184.53 180.27 184.23C180.18 184.3 180.1 184.37 180.01 184.42C188.62 179.45 197.22 174.48 205.83 169.51C205.79 153.68 205.74 137.85 205.7 122.02C211.71 118.54 216.95 115.46 218.89 114.34C219.35 114.07 219.82 113.8 220.28 113.54C220.28 113.54 220.26 113.54 220.25 113.55C220.41 113.47 220.45 113.37 220.33 113.27L220.34 113.28ZM181.48 148.85C181.49 153.93 181.51 158.9 181.52 163.68C181.5 156.81 181.49 152.93 181.48 148.85ZM204.99 131C204.99 127.9 204.97 125.67 204.96 122.46L204.98 131H204.99Z" fill="url(#paint1_linear_1902_24912)"/>
<path id="Vector_198" d="M179.151 137.3C176.111 139.06 173.071 140.81 170.031 142.57C169.941 142.62 169.851 142.68 169.761 142.73C169.791 154.67 169.831 166.6 169.861 178.53C169.861 178.86 169.951 179.11 170.141 179.22L179.291 184.54L179.161 137.32V137.3H179.151Z" fill="#CC771C"/>
<path id="Vector_199" d="M183.02 84.8899C182.78 84.7499 182.56 84.8799 182.4 85.1999C173.37 103.13 164.34 121.06 155.31 138.98C154.99 139.62 154.91 140.08 155.15 140.22L164.3 145.54L192.18 90.1999L183.03 84.8799L183.02 84.8899Z" fill="#CC771C"/>
</g>
</g>
<g id="Group_5">
<g id="Group_6">
<path id="Vector_200" d="M87.6402 226.29C87.7102 226.34 87.8002 226.4 87.8902 226.46C87.6402 226.29 87.4002 226.1 87.1602 225.91C87.3302 226.05 87.4902 226.18 87.6502 226.3L87.6402 226.29Z" fill="#85D1F5"/>
<path id="Vector_201" d="M88.6509 226.95C88.3909 226.8 88.1309 226.63 87.8809 226.46C88.1409 226.63 88.4209 226.8 88.6509 226.95Z" fill="#85D1F5"/>
<path id="Vector_202" d="M112.58 172.58C99.29 180.25 88.54 198.86 88.59 214.14C88.63 229.41 99.45 235.58 112.74 227.9C126.03 220.23 136.78 201.62 136.73 186.34C136.69 171.06 125.87 164.9 112.58 172.58Z" fill="#CEABE3"/>
<path id="Vector_203" d="M87.1404 214.3C87.1004 198.47 98.2204 179.19 112 171.24C118.93 167.24 125.21 166.87 129.75 169.5L123.99 166.15C123.58 165.91 123.15 165.71 122.71 165.52C122.49 165.42 122.27 165.33 122.07 165.25C121.51 165.04 120.73 164.81 120.14 164.7C117.92 164.28 116.5 164.42 115.36 164.53C114.72 164.59 113.87 164.73 113.24 164.89C112.25 165.14 110.95 165.56 109.98 165.9C109.28 166.15 108.39 166.58 107.72 166.9C107.17 167.17 106.45 167.58 105.91 167.87C102.63 169.79 100.44 171.69 99.8404 172.23C97.7004 174.16 97.5304 174.32 96.2004 175.74C94.2604 177.81 92.8404 179.69 92.8304 179.71C91.1404 181.98 90.8804 182.32 89.7804 184.05C89.4204 184.62 88.3204 186.34 87.1104 188.68C84.8404 193.07 83.6304 196.7 83.1104 198.48C82.7704 199.64 82.3004 201.24 81.8904 203.49C81.5304 205.46 81.5004 205.75 81.2704 208.47C81.1704 209.68 81.1204 213.05 81.6404 215.73C81.8304 216.72 82.4204 219.75 84.0104 222.29C84.7204 223.43 85.3104 224.18 86.0904 224.96C86.3404 225.21 86.6604 225.49 86.9804 225.75C87.0404 225.8 87.1004 225.85 87.1504 225.89C87.3904 226.08 87.6304 226.27 87.8804 226.44C88.1304 226.62 88.3904 226.78 88.6504 226.93L94.4104 230.28C89.9304 227.68 87.1604 222.15 87.1304 214.28L87.1404 214.3Z" fill="url(#paint2_linear_1902_24912)"/>
<path id="Vector_204" d="M135.931 177.48C135.721 176.84 135.351 176.01 135.071 175.4C134.891 175.02 134.601 174.53 134.391 174.16C134.091 173.6 133.561 172.93 133.171 172.43C132.791 171.93 132.201 171.34 131.721 170.93C131.171 170.46 130.371 169.89 129.751 169.51C125.211 166.87 118.931 167.25 112.001 171.25C98.2307 179.2 87.1007 198.48 87.1407 214.31C87.1607 222.17 89.9407 227.71 94.4207 230.31C95.4007 230.83 96.1007 231.21 97.5107 231.58C98.5307 231.85 99.8507 232.03 100.871 232.04C102.201 232.04 103.431 231.93 104.521 231.71C106.581 231.28 108.041 230.75 108.891 230.37C110.031 229.87 111.111 229.4 112.801 228.4C115.001 227.1 116.681 225.76 116.691 225.75C118.591 224.2 119.461 223.49 120.411 222.52C121.481 221.43 122.871 219.95 123.891 218.81C124.421 218.22 125.071 217.38 125.561 216.75C126.051 216.13 126.681 215.28 127.131 214.63C128.021 213.3 129.171 211.5 130.001 210.13C130.731 208.93 131.271 207.82 132.461 205.4C132.461 205.38 133.501 203.21 134.461 200.51C135.181 198.49 135.451 197.45 135.951 195.56C135.951 195.54 136.541 193.28 136.881 190.62C137.021 189.55 137.201 187.88 137.191 185.78C137.191 183.85 137.051 180.9 135.921 177.49L135.931 177.48ZM112.741 227.89C99.4507 235.56 88.6307 229.4 88.5907 214.13C88.5507 198.86 99.2907 180.25 112.581 172.57C125.871 164.9 136.691 171.06 136.731 186.33C136.771 201.6 126.031 220.21 112.741 227.89Z" fill="#E8D6FF"/>
</g>
<g id="Group_7">
<path id="Vector_205" d="M101.581 225.92L100.351 224.91L94.5908 221.56C94.5908 221.56 94.5608 221.54 94.5508 221.53C96.0208 222.74 97.5008 223.94 98.9708 225.15C99.5008 225.58 100.211 226.16 100.741 226.6C101.011 226.82 101.361 227.11 101.621 227.32C102.151 227.75 102.861 228.33 103.391 228.77C103.921 229.2 104.631 229.78 105.161 230.22C105.421 230.44 105.781 230.73 106.041 230.94C106.571 231.37 107.281 231.95 107.811 232.39C109.281 233.6 110.761 234.8 112.231 236.01C112.251 236.02 112.261 236.04 112.281 236.04L117.811 239.25C116.031 237.8 113.911 236.12 112.121 234.65C111.711 234.31 104.291 228.12 101.591 225.91L101.581 225.92Z" fill="#41235B"/>
<path id="Vector_206" d="M103.931 216.16L103.851 186.22C103.731 186.15 103.681 186.12 103.681 186.12C103.711 196.1 103.741 206.08 103.771 216.06H103.791C103.791 216.06 103.861 216.11 103.941 216.16H103.931Z" fill="#274347"/>
<path id="Vector_207" d="M109.691 219.51L109.611 189.57L103.841 186.22L103.931 216.16L109.691 219.51Z" fill="#41235B"/>
<path id="Vector_208" d="M126.411 209.86L135.581 204.57L129.821 201.22C129.701 201.15 129.481 201.22 129.191 201.38C128.261 201.92 127.321 202.46 126.391 203V203.2C126.391 205.42 126.401 207.64 126.411 209.87V209.86Z" fill="#724494"/>
<path id="Vector_209" d="M109.691 219.51L103.931 216.16C103.851 216.11 103.801 216.09 103.781 216.07H103.761C100.701 217.82 97.6407 219.59 94.5707 221.36C94.4707 221.42 94.4607 221.49 94.5807 221.56L100.341 224.91L109.691 219.51Z" fill="#724494"/>
<path id="Vector_210" d="M126.151 180.02L120.391 176.67C120.271 176.6 120.111 176.63 119.931 176.74C114.511 179.87 109.091 183 103.671 186.12C103.671 186.12 103.731 186.15 103.841 186.22L109.601 189.57L126.151 180.02Z" fill="#724494"/>
<path id="Vector_211" d="M133.84 208.61C133.65 209 133.43 209.42 133.2 209.89C133.41 209.46 133.63 209.04 133.84 208.61Z" fill="#7E969A"/>
<path id="Vector_212" d="M134.661 206.98C134.471 207.35 134.201 207.9 133.851 208.59C134.121 208.05 134.391 207.52 134.661 206.98Z" fill="#7E969A"/>
<path id="Vector_213" d="M118.271 239.38C118.271 239.38 118.231 239.4 118.211 239.41C118.231 239.41 118.251 239.4 118.271 239.38Z" fill="#7E969A"/>
<path id="Vector_214" d="M123.741 228.65L123.721 228.69C126.871 222.43 130.021 216.18 133.181 209.92C130.201 215.84 124.361 227.42 123.741 228.66V228.65Z" fill="#7E969A"/>
<path id="Vector_215" d="M135.471 205.37C135.681 204.96 135.741 204.66 135.581 204.57L126.411 209.86C126.411 207.64 126.401 205.42 126.391 203.19V202.99C126.391 200.43 126.381 197.86 126.371 195.3C126.361 190.35 126.341 185.4 126.331 180.46C126.331 180.49 126.311 180.54 126.311 180.57C126.331 180.31 126.291 180.11 126.161 180.03L109.611 189.58L109.691 219.52L100.341 224.92L101.571 225.93C104.271 228.14 111.681 234.34 112.101 234.67C113.891 236.14 116.021 237.82 117.791 239.27C117.821 239.29 117.851 239.32 117.881 239.34C117.981 239.42 118.101 239.44 118.211 239.41C118.231 239.41 118.251 239.39 118.271 239.38C118.341 239.35 118.401 239.3 118.441 239.22C120.021 236.05 122.101 231.9 123.711 228.69L123.731 228.65C124.351 227.41 130.181 215.84 133.171 209.91L133.191 209.87C133.421 209.41 133.641 208.98 133.831 208.59C134.181 207.88 134.451 207.34 134.641 206.97C134.701 206.85 134.751 206.75 134.791 206.67C134.801 206.65 134.821 206.62 134.831 206.6C135.041 206.18 135.261 205.75 135.471 205.33C135.471 205.33 135.471 205.34 135.461 205.35L135.471 205.37Z" fill="#B17BE6"/>
</g>
</g>
</g>
<defs>
<linearGradient id="paint0_linear_1902_24912" x1="135.05" y1="112.65" x2="212.16" y2="112.65" gradientUnits="userSpaceOnUse">
<stop stop-color="#724494"/>
<stop offset="0.23" stop-color="#905FA4"/>
<stop offset="0.56" stop-color="#B581B7"/>
<stop offset="0.83" stop-color="#CC96C3"/>
<stop offset="1" stop-color="#D59EC8"/>
</linearGradient>
<linearGradient id="paint1_linear_1902_24912" x1="164.3" y1="137.4" x2="220.41" y2="137.4" gradientUnits="userSpaceOnUse">
<stop stop-color="#F8AA41"/>
<stop offset="1" stop-color="#FBBE47"/>
</linearGradient>
<linearGradient id="paint2_linear_1902_24912" x1="78.0004" y1="211.89" x2="135.16" y2="178.88" gradientUnits="userSpaceOnUse">
<stop stop-color="#724494"/>
<stop offset="0.23" stop-color="#905FA4"/>
<stop offset="0.56" stop-color="#B581B7"/>
<stop offset="0.83" stop-color="#CC96C3"/>
<stop offset="1" stop-color="#D59EC8"/>
</linearGradient>
<clipPath id="clip0_1902_24912">
<rect width="320" height="320" fill="white"/>
</clipPath>
</defs>
</svg>
