<svg width="320" height="320" viewBox="0 0 320 320" fill="none" xmlns="http://www.w3.org/2000/svg">
<g id="a">
<g id="Group">
<path id="Vector" d="M253.414 56.9904L248.126 53.9804C246.766 53.1104 244.939 53.1304 242.929 54.2804L196.064 80.9404C191.851 83.3304 188.44 89.6904 188.44 95.1504V127.78C188.44 130.78 189.476 132.87 191.1 133.75L191.191 133.81H191.222L196.064 136.58V151.33L201.352 154.34L208.498 126.26L242.929 106.68C247.131 104.29 250.542 97.9304 250.542 92.4704V61.0204L253.414 57.0004V56.9904Z" fill="url(#paint0_linear_1902_24855)"/>
<path id="Vector_2" d="M201.352 154.32V136.32L196.063 136.57V151.32L201.352 154.32Z" fill="url(#paint1_linear_1902_24855)"/>
<path id="Vector_3" d="M248.217 57.2804L201.352 83.9404C197.139 86.3304 193.729 92.6904 193.729 98.1504V130.78C193.729 136.23 197.139 138.71 201.352 136.32V154.33L213.786 129.25L248.217 109.67C252.429 107.28 255.84 100.92 255.84 95.4604V62.8304C255.84 57.3804 252.429 54.9004 248.217 57.2904V57.2804Z" fill="#ECDDF7"/>
<path id="Vector_4" d="M234.595 75.3005L222.343 100.981L212.558 96.2905L207.107 105.551L225.754 114.481L242.188 80.0205L234.595 75.3005Z" fill="#569F65"/>
<path id="Vector_5" d="M237.854 77.1505L234.596 75.3005L222.344 100.981L225.602 102.831L237.854 77.1505Z" fill="#CC771C"/>
<path id="Vector_6" d="M215.817 98.1405L212.558 96.2905L207.107 105.551L210.366 107.401L215.817 98.1405Z" fill="#CC771C"/>
<path id="Vector_7" d="M237.853 77.1504L225.601 102.83L215.816 98.1404L210.365 107.4L229.002 116.33L245.446 81.8704L237.853 77.1504Z" fill="url(#paint2_linear_1902_24855)"/>
</g>
<g id="Group_2">
<path id="Vector_8" d="M208.599 218.28L202.532 214.73C201.882 214.37 201.469 213.58 201.48 212.47L201.5 190.92C201.5 188.7 203.1 186.02 205.081 184.92L224.85 174.52C225.831 173.98 226.718 173.93 227.358 174.29L232.857 177.58L208.61 218.28H208.599Z" fill="url(#paint3_linear_1902_24855)"/>
<path id="Vector_9" d="M233.909 179.84L233.889 201.39C233.889 203.6 232.289 206.29 230.308 207.38L211.106 218.04C209.135 219.14 207.536 218.22 207.536 216.01L207.557 194.46C207.557 192.24 209.156 189.56 211.137 188.46L230.339 177.8C232.31 176.7 233.909 177.62 233.909 179.84Z" fill="#ECDDF7"/>
</g>
<g id="Group_3">
<path id="Vector_10" d="M138.08 124.62L132.013 121.07C131.363 120.71 130.95 119.92 130.96 118.81L130.981 97.2601C130.981 95.0401 132.58 92.3601 134.561 91.2601L154.331 80.8601C155.311 80.3201 156.198 80.2701 156.838 80.6301L162.337 83.9201L138.09 124.62H138.08Z" fill="url(#paint4_linear_1902_24855)"/>
<path id="Vector_11" d="M163.4 86.18L163.38 107.73C163.38 109.94 161.78 112.63 159.799 113.72L140.597 124.38C138.627 125.48 137.027 124.56 137.027 122.35L137.048 100.8C137.048 98.58 138.647 95.9 140.628 94.8L159.83 84.14C161.801 83.04 163.4 83.96 163.4 86.18Z" fill="#ECDDF7"/>
</g>
<g id="g">
<g id="Vector_12" style="mix-blend-mode:multiply" opacity="0.24">
<path d="M176.246 218.04L174.076 216.8C173.531 216.49 172.643 216.49 172.098 216.8L169.534 218.27L131.867 210.81L114.204 200.7L115.93 199.71C116.909 199.15 116.909 198.25 115.93 197.69L104.485 191.14C99.095 188.06 90.3545 188.06 84.9547 191.14L77.6272 195.33C72.2375 198.41 72.2375 203.42 77.6272 206.5L89.0727 213.05C90.0517 213.61 91.6363 213.61 92.6052 213.05L94.5935 211.91L112.004 221.87L125.195 243.62L122.632 245.09C122.087 245.4 122.087 245.91 122.632 246.22L124.802 247.46C125.347 247.77 126.235 247.77 126.78 247.46L176.246 219.17C176.791 218.86 176.791 218.35 176.246 218.04Z" fill="#361F51"/>
</g>
<g id="Group_4">
<g id="Group_5">
<path id="Vector_13" d="M92.0403 172.06V199.57C92.0201 201.03 93.0597 202.81 94.3415 203.54L99.1458 206.29C99.7917 206.66 100.367 206.69 100.791 206.46C101.215 206.22 101.891 205.71 101.891 204.98L103.748 176.38L92.0403 172.06Z" fill="#9864A7"/>
<path id="Vector_14" d="M101.498 177.47V204.98C101.478 205.7 101.225 206.21 100.812 206.45L107.2 202.77C107.614 202.53 107.877 202.02 107.877 201.3V173.79L101.498 177.47Z" fill="url(#paint5_linear_1902_24855)"/>
</g>
<g id="Group_6">
<path id="Vector_15" d="M103.051 178.44L106.593 176.41L109.49 183.33L105.947 185.37L103.051 178.44Z" fill="#AE79B2"/>
<path id="Vector_16" d="M103.051 178.44L105.948 185.37L103.031 185.51L103.051 178.44Z" fill="#744595"/>
</g>
<g id="Group_7">
<path id="Vector_17" d="M162.348 151.45L133.704 156.57C138.226 155.81 141.516 158.8 141.617 164.53C141.698 168.74 140.043 173.51 137.388 177.55C135.511 180.41 133.139 182.9 130.535 184.58C130.363 184.69 130.192 184.79 130.02 184.9C124.762 188.01 120.23 186.78 118.585 182.33L127.739 209.43C131.373 219.31 141.577 222.61 153.264 215.69C153.648 215.46 154.566 215.16 154.95 214.92C160.743 211.21 166.486 205.62 170.645 199.26C176.529 190.28 180.576 178.86 180.405 169.51C180.172 156.78 172.381 149.77 162.328 151.46L162.348 151.45Z" fill="url(#paint6_linear_1902_24855)"/>
<path id="Vector_18" d="M117.081 139.67C114.255 138.04 110.318 138.32 105.999 140.87C98.7114 145.18 92.7263 154.57 91.394 163.17C91.1922 164.48 91.0912 165.77 91.1215 167.02C91.2022 171.62 92.8878 174.84 95.5523 176.38C96.4607 176.86 98.3481 177.85 101.326 177.59C104.242 177.34 106.735 176.05 107.957 175.31C116.233 170.29 122.4 159.45 122.289 150.1C122.178 147.85 121.915 142.59 117.081 139.67Z" fill="url(#paint7_linear_1902_24855)"/>
<path id="Vector_19" d="M103.97 132.14C103.738 132.01 103.496 131.89 103.254 131.78C100.811 130.6 98.4091 130 94.6747 130.48C91.9092 130.84 88.2757 132.49 85.8433 134.49C84.612 135.51 80.8473 138.59 78.2332 143.86C76.8101 146.73 75.1346 151.11 75.2759 155.73C75.5081 163.22 79.293 167 82.4319 168.85L95.5427 176.38C92.8781 174.84 91.1926 171.62 91.1118 167.02C90.9403 157.55 97.6016 145.84 105.999 140.87C110.319 138.31 114.255 138.04 117.081 139.67L103.97 132.14Z" fill="url(#paint8_linear_1902_24855)"/>
<path id="Vector_20" d="M117.616 143.03C115.143 141.61 111.702 141.85 107.917 144.09C100.569 148.44 94.7353 158.69 94.8867 166.98C94.9573 171 96.4309 173.82 98.7523 175.17L115.88 185.07L134.764 152.88L117.606 143.03H117.616Z" fill="url(#paint9_linear_1902_24855)"/>
<path id="Vector_21" d="M138.143 176.339C142.773 168.446 142.783 159.892 138.165 157.233C133.548 154.575 126.053 158.819 121.423 166.713C116.794 174.606 116.784 183.16 121.401 185.818C126.018 188.476 133.514 184.232 138.143 176.339Z" fill="#A772AF"/>
<g id="m">
<path id="n" d="M154.405 185.723C158.624 178.482 158.625 170.655 154.406 168.242C150.186 165.828 143.345 169.742 139.126 176.983C134.906 184.225 134.906 192.051 139.125 194.465C143.344 196.878 150.185 192.965 154.405 185.723Z" fill="#A772AF"/>
<path id="o" d="M141.324 184.46C141.324 187.9 143.757 189.29 146.764 187.57C149.772 185.85 152.204 181.67 152.204 178.24C152.204 174.81 149.772 173.41 146.764 175.13C143.757 176.85 141.324 181.03 141.324 184.46Z" fill="#744595"/>
<path id="p" d="M154.475 168.28L139.285 159.59C137.327 158.43 134.592 158.57 131.574 160.3C125.609 163.71 120.774 172.01 120.774 178.84C120.774 182.21 121.955 184.59 123.873 185.73L139.063 194.42C137.145 193.28 135.964 190.9 135.964 187.53C135.964 180.7 140.799 172.4 146.764 168.99C149.782 167.26 152.517 167.12 154.475 168.28Z" fill="#744595"/>
</g>
<path id="Vector_22" d="M112.812 181.32L123.833 209.42C122.794 206.77 122.198 203.62 122.127 200.01C121.804 182.46 134.148 160.77 149.701 151.56C153.335 149.41 156.827 148.13 160.037 147.66L129.939 152.08C128.415 152.3 126.77 152.91 125.044 153.93C117.687 158.29 111.843 168.55 111.994 176.86C112.024 178.57 112.307 180.06 112.802 181.31L112.812 181.32Z" fill="url(#paint10_linear_1902_24855)"/>
<path id="Vector_23" d="M153.87 217.34C138.074 226.69 125.004 219.82 124.681 201.99C124.358 184.16 136.893 162.13 152.689 152.78C168.484 143.43 181.555 150.3 181.878 168.13C182.201 185.96 169.665 207.99 153.87 217.34ZM179.577 169.5C179.274 153.11 167.263 146.79 152.739 155.39C138.216 163.99 126.689 184.24 126.992 200.63C127.295 217.02 139.306 223.34 153.829 214.74C168.353 206.14 179.879 185.89 179.577 169.5Z" fill="#A772AF"/>
<path id="Vector_24" d="M153.718 217.7C163.781 211.6 170.331 202.52 174.055 195.99C177.8 189.4 182.251 179.16 182.12 167.81C182.12 167.93 182.039 168.05 181.887 168.15C182.21 185.98 169.675 208.01 153.879 217.36C138.084 226.71 125.013 219.84 124.69 202.01C124.368 184.18 136.903 162.15 152.699 152.8C168.494 143.45 181.564 150.32 181.887 168.15C182.049 168.06 182.13 167.93 182.12 167.81C181.928 163.8 181.464 154.4 173.389 149.53C167.969 146.41 160.41 146.93 152.123 151.84C136.015 161.37 123.227 183.84 123.56 202.01C123.722 210.83 126.941 217.02 132.058 219.97C133.34 220.64 136.752 222.43 141.596 221.92C145.734 221.49 149.812 220.07 153.718 217.7Z" fill="url(#paint11_linear_1902_24855)"/>
<path id="Vector_25" d="M171.513 148.45C170.635 147.95 169.706 147.55 168.727 147.24C168.697 147.23 168.657 147.22 168.626 147.21C168.465 147.16 168.313 147.11 168.152 147.06C165.124 146.17 161.198 146 155.606 147.96C153.578 148.67 150.197 150.33 147.663 152.11C142.97 155.42 140.961 157.52 138.63 159.95C129.768 169.19 121.028 186.12 121.462 200.62C121.603 205.37 122.3 208.5 124.025 212.19C124.702 213.63 125.56 214.82 126.417 215.78C125.529 214.74 124.762 213.52 124.106 212.16C124.984 213.95 126.074 215.49 127.366 216.75C127.053 216.46 126.74 216.14 126.417 215.79C127.457 217.01 128.638 218.01 129.93 218.75C129.859 218.7 129.758 218.64 129.667 218.58C129.839 218.69 130.011 218.8 130.182 218.9L132.049 219.98C126.932 217.03 123.713 210.84 123.551 202.02C123.218 183.84 136.006 161.38 152.114 151.85C160.401 146.94 167.96 146.42 173.38 149.54L171.513 148.46V148.45Z" fill="url(#paint12_linear_1902_24855)"/>
</g>
<path id="Vector_26" d="M87.4885 166.77L79.1719 162.01C78.2433 161.48 77.4863 160.3 77.4863 159.38C77.4863 158.46 78.2433 158.14 79.1719 158.67L87.4885 163.43C88.417 163.96 89.174 165.14 89.174 166.06C89.174 166.98 88.417 167.3 87.4885 166.77Z" fill="#41235B"/>
</g>
<path id="Vector_27" d="M116.707 139.44C116.455 139.3 116.082 139.1 115.567 138.92C114.548 138.56 112.953 138.28 111.096 138.6C109.249 138.91 107.139 139.68 105.181 140.95C104.697 141.24 104.202 141.57 103.718 141.94C103.223 142.29 102.749 142.67 102.285 143.07C101.346 143.85 100.458 144.72 99.6099 145.63C97.9547 147.47 96.5214 149.49 95.3608 151.49C94.7754 152.49 94.2808 153.49 93.8468 154.45C93.4229 155.42 93.0394 156.34 92.7467 157.21C92.4237 158.07 92.2218 158.89 92.0301 159.61C91.8484 160.33 91.7374 160.98 91.6263 161.5C91.485 162.56 91.4043 163.16 91.4043 163.16C91.4043 163.16 91.5456 162.57 91.7979 161.53C92.0906 160.51 92.5246 159.05 93.221 157.38C93.544 156.53 93.9679 155.64 94.4322 154.72C94.8965 153.79 95.4516 152.84 96.0168 151.87C97.1876 149.93 98.6208 147.98 100.266 146.21C101.073 145.32 101.921 144.46 102.819 143.68C103.264 143.29 103.718 142.91 104.182 142.57C104.626 142.21 105.1 141.88 105.595 141.58C107.472 140.33 109.42 139.44 111.187 139.08C112.953 138.7 114.497 138.79 115.516 139.08C116.031 139.22 116.425 139.36 116.687 139.48L117.091 139.66L116.707 139.44Z" fill="url(#paint13_linear_1902_24855)"/>
</g>
</g>
<defs>
<linearGradient id="paint0_linear_1902_24855" x1="188.451" y1="103.85" x2="253.414" y2="103.85" gradientUnits="userSpaceOnUse">
<stop stop-color="#724494"/>
<stop offset="0.03" stop-color="#7F4F9A"/>
<stop offset="0.1" stop-color="#9968A8"/>
<stop offset="0.18" stop-color="#AF7CB4"/>
<stop offset="0.27" stop-color="#C08BBD"/>
<stop offset="0.39" stop-color="#CC96C3"/>
<stop offset="0.55" stop-color="#D39CC7"/>
<stop offset="1" stop-color="#D59EC8"/>
</linearGradient>
<linearGradient id="paint1_linear_1902_24855" x1="198.703" y1="154.32" x2="198.703" y2="136.32" gradientUnits="userSpaceOnUse">
<stop stop-color="#724494"/>
<stop offset="1" stop-color="#9160A5"/>
</linearGradient>
<linearGradient id="paint2_linear_1902_24855" x1="210.365" y1="96.7404" x2="245.446" y2="96.7404" gradientUnits="userSpaceOnUse">
<stop stop-color="#F8AA41"/>
<stop offset="1" stop-color="#FBBE47"/>
</linearGradient>
<linearGradient id="paint3_linear_1902_24855" x1="213.67" y1="189.313" x2="209.964" y2="195.923" gradientUnits="userSpaceOnUse">
<stop stop-color="#D59EC8"/>
<stop offset="0.2" stop-color="#C791C0"/>
<stop offset="0.57" stop-color="#A370AD"/>
<stop offset="1" stop-color="#724494"/>
</linearGradient>
<linearGradient id="paint4_linear_1902_24855" x1="143.159" y1="95.6548" x2="139.453" y2="102.265" gradientUnits="userSpaceOnUse">
<stop stop-color="#D59EC8"/>
<stop offset="0.2" stop-color="#C791C0"/>
<stop offset="0.57" stop-color="#A370AD"/>
<stop offset="1" stop-color="#724494"/>
</linearGradient>
<linearGradient id="paint5_linear_1902_24855" x1="100.812" y1="190.12" x2="107.887" y2="190.12" gradientUnits="userSpaceOnUse">
<stop stop-color="#D59EC8"/>
<stop offset="1" stop-color="#E4B2D3"/>
</linearGradient>
<linearGradient id="paint6_linear_1902_24855" x1="142.637" y1="215.5" x2="170.66" y2="157.876" gradientUnits="userSpaceOnUse">
<stop stop-color="#FDCBF4"/>
<stop offset="0.951" stop-color="#B77EFF"/>
</linearGradient>
<linearGradient id="paint7_linear_1902_24855" x1="99.5592" y1="175.73" x2="112.831" y2="143.144" gradientUnits="userSpaceOnUse">
<stop stop-color="#744595"/>
<stop offset="1" stop-color="#A772AF"/>
</linearGradient>
<linearGradient id="paint8_linear_1902_24855" x1="103.415" y1="131.82" x2="82.274" y2="168.789" gradientUnits="userSpaceOnUse">
<stop stop-color="#9160A5"/>
<stop offset="1" stop-color="#724494"/>
</linearGradient>
<linearGradient id="paint9_linear_1902_24855" x1="121.472" y1="145.24" x2="102.928" y2="177.658" gradientUnits="userSpaceOnUse">
<stop stop-color="#FDCBF4"/>
<stop offset="0.951" stop-color="#B77EFF"/>
</linearGradient>
<linearGradient id="paint10_linear_1902_24855" x1="154.748" y1="125" x2="111.513" y2="192.202" gradientUnits="userSpaceOnUse">
<stop stop-color="#FDCBF4"/>
<stop offset="0.891" stop-color="#AB6FF6"/>
</linearGradient>
<linearGradient id="paint11_linear_1902_24855" x1="173.995" y1="154.43" x2="134.058" y2="212.955" gradientUnits="userSpaceOnUse">
<stop stop-color="#E1ADD0"/>
<stop offset="0.26" stop-color="#D9A5CB"/>
<stop offset="0.65" stop-color="#C591C0"/>
<stop offset="1" stop-color="#AE79B2"/>
</linearGradient>
<linearGradient id="paint12_linear_1902_24855" x1="161.945" y1="142.97" x2="121.394" y2="213.865" gradientUnits="userSpaceOnUse">
<stop stop-color="#D59EC8"/>
<stop offset="0.17" stop-color="#CD97C4"/>
<stop offset="0.42" stop-color="#B984B9"/>
<stop offset="0.72" stop-color="#9866A8"/>
<stop offset="1" stop-color="#724494"/>
</linearGradient>
<linearGradient id="paint13_linear_1902_24855" x1="91.3942" y1="150.82" x2="117.081" y2="150.82" gradientUnits="userSpaceOnUse">
<stop stop-color="#D59EC8"/>
<stop offset="1" stop-color="#E4B2D3"/>
</linearGradient>
</defs>
</svg>
