<svg width="320" height="320" viewBox="0 0 320 320" fill="none" xmlns="http://www.w3.org/2000/svg">
<g id="a">
<g id="b">
<g id="Group">
<g id="Vector" style="mix-blend-mode:multiply" opacity="0.24">
<path d="M158.09 162.76L154.42 167.93C154.89 168.52 155.3 169.13 155.66 169.75L164.23 171.8V178.36L155.33 180.5C154.94 181.1 154.49 181.7 153.98 182.28L157.54 187.22L149.57 191.85L140.62 189.72C139.6 189.99 138.55 190.23 137.49 190.42L133.97 195.37H122.67L118.94 190.19C117.9 189.96 116.86 189.7 115.85 189.4L107.32 191.46L99.2999 186.83L102.97 181.66C102.5 181.05 102.1 180.45 101.74 179.83L93.1999 177.78L93.1699 171.23L102.07 169.08C102.46 168.48 102.91 167.88 103.42 167.3L99.8399 162.35L107.81 157.72L116.74 159.86C117.78 159.6 118.83 159.36 119.9 159.16L123.41 154.22H134.71L138.45 159.39C139.49 159.62 140.53 159.88 141.54 160.18L150.06 158.13L158.08 162.76H158.09Z" fill="#361F51"/>
</g>
<g id="Vector_2" style="mix-blend-mode:multiply" opacity="0.24">
<path d="M217.17 184.62L213.5 189.79C213.97 190.38 214.38 190.99 214.74 191.61L223.31 193.66V200.22L214.41 202.36C214.02 202.96 213.57 203.56 213.06 204.14L216.62 209.08L208.65 213.71L199.7 211.58C198.68 211.85 197.63 212.09 196.57 212.28L193.05 217.23H181.75L178.02 212.05C176.98 211.82 175.94 211.56 174.93 211.26L166.4 213.32L158.38 208.69L162.05 203.52C161.58 202.91 161.18 202.31 160.82 201.69L152.28 199.64L152.25 193.09L161.15 190.94C161.54 190.34 161.99 189.74 162.5 189.16L158.92 184.21L166.89 179.58L175.82 181.72C176.86 181.46 177.91 181.22 178.98 181.02L182.49 176.08H193.79L197.53 181.25C198.57 181.48 199.61 181.74 200.62 182.04L209.14 179.99L217.16 184.62H217.17Z" fill="#361F51"/>
</g>
<g id="Vector_3" style="mix-blend-mode:multiply" opacity="0.24">
<path d="M200.44 225.69L196.77 230.86C197.24 231.45 197.65 232.06 198.01 232.68L206.58 234.73V241.29L197.68 243.43C197.29 244.03 196.84 244.63 196.33 245.21L199.89 250.15L191.92 254.78L182.97 252.65C181.95 252.92 180.9 253.16 179.84 253.35L176.32 258.3H165.02L161.29 253.12C160.25 252.89 159.21 252.63 158.2 252.33L149.67 254.39L141.65 249.76L145.32 244.59C144.85 243.98 144.45 243.38 144.09 242.76L135.55 240.71L135.52 234.16L144.42 232.01C144.81 231.41 145.26 230.81 145.77 230.23L142.19 225.28L150.16 220.65L159.09 222.79C160.13 222.53 161.18 222.29 162.25 222.09L165.76 217.15H177.06L180.8 222.32C181.84 222.55 182.88 222.81 183.89 223.11L192.41 221.06L200.43 225.69H200.44Z" fill="#361F51"/>
</g>
<g id="c">
<path id="d" d="M194.3 118.19C190.71 120.26 184.88 120.26 181.29 118.19C177.7 116.12 177.7 112.75 181.29 110.68C184.88 108.61 190.71 108.61 194.3 110.68C197.89 112.75 197.89 116.12 194.3 118.19Z" fill="#D399C4"/>
<path id="f" d="M197 114.39V193.7C197.02 195.08 196.12 196.46 194.31 197.51C190.72 199.58 184.89 199.58 181.3 197.51C179.52 196.49 178.63 195.15 178.61 193.8V114.48C178.63 115.82 179.53 117.16 181.3 118.19C184.89 120.26 190.72 120.26 194.31 118.19C196.13 117.14 197.03 115.76 197 114.38V114.39Z" fill="url(#paint0_linear_1902_24758)"/>
</g>
<g id="g">
<path id="h" d="M177.57 160.91C173.98 162.98 168.15 162.98 164.56 160.91C160.97 158.84 160.97 155.47 164.56 153.4C168.15 151.33 173.98 151.33 177.57 153.4C181.16 155.47 181.16 158.84 177.57 160.91Z" fill="#D399C4"/>
<path id="j" d="M180.26 157.1V236.42C180.28 237.8 179.38 239.18 177.57 240.23C173.98 242.3 168.15 242.3 164.56 240.23C162.78 239.21 161.89 237.87 161.87 236.52V157.2C161.89 158.54 162.79 159.88 164.56 160.91C168.15 162.98 173.98 162.98 177.57 160.91C179.39 159.86 180.29 158.48 180.26 157.1Z" fill="url(#paint1_linear_1902_24758)"/>
</g>
<g id="k">
<path id="l" d="M135.22 97.97C131.63 100.04 125.8 100.04 122.21 97.97C118.62 95.9 118.62 92.53 122.21 90.46C125.8 88.39 131.63 88.39 135.22 90.46C138.81 92.53 138.81 95.9 135.22 97.97Z" fill="#D399C4"/>
<path id="n" d="M137.911 94.1699V173.49C137.931 174.87 137.031 176.25 135.221 177.3C131.631 179.37 125.801 179.37 122.211 177.3C120.431 176.28 119.541 174.94 119.521 173.59V94.2699C119.541 95.6099 120.441 96.9499 122.211 97.9799C125.801 100.05 131.631 100.05 135.221 97.9799C137.041 96.9299 137.941 95.5499 137.911 94.1699Z" fill="url(#paint2_linear_1902_24758)"/>
</g>
<g id="Group_2">
<path id="Vector_4" d="M103.43 85.6102L103.39 98.0802L99.8096 93.1301L99.8496 80.6602L103.43 85.6102Z" fill="#724494"/>
<path id="Vector_5" d="M158.09 81.0701L158.05 93.5301L154.38 98.7001L154.42 86.2301L158.09 81.0701Z" fill="#B68ABE"/>
<path id="Vector_6" d="M101.75 98.1501L101.71 110.61L93.2002 108.56L93.2102 96.1001L101.75 98.1501Z" fill="#724494"/>
<path id="Vector_7" d="M164.24 96.6602L164.23 109.12L155.3 111.27L153.54 103.96L155.33 98.8002L164.24 96.6602Z" fill="#A97BB5"/>
<path id="Vector_8" d="M102.97 99.9801L102.93 112.44C102.46 111.83 102.06 111.23 101.7 110.61L101.74 98.1501C102.1 98.7701 102.49 99.3701 102.97 99.9801Z" fill="#9864A7"/>
<path id="Vector_9" d="M155.329 98.8L155.289 111.26C154.899 111.86 154.449 112.46 153.939 113.04L153.979 100.58C154.499 100 154.949 99.4 155.329 98.8Z" fill="#9864A7"/>
<path id="Vector_10" d="M118.95 108.51L118.91 120.97C117.87 120.74 116.83 120.48 115.82 120.18L115.86 107.72C116.87 108.02 117.91 108.28 118.95 108.51Z" fill="#9864A7"/>
<path id="Vector_11" d="M140.63 108.03L140.59 120.49C139.57 120.76 138.52 121 137.46 121.19L137.5 108.73C138.55 108.53 139.61 108.3 140.63 108.03Z" fill="#9864A7"/>
<path id="Vector_12" d="M115.86 107.72L115.83 120.18L107.29 122.24L107.33 109.77L115.86 107.72Z" fill="#A97BB5"/>
<path id="Vector_13" d="M107.33 109.77L107.29 122.24L99.2695 117.61L99.3095 105.14L107.33 109.77Z" fill="#724494"/>
<path id="Vector_14" d="M149.57 110.16L149.54 122.62L140.59 120.49L140.63 108.03L149.57 110.16Z" fill="#724494"/>
<path id="Vector_15" d="M157.54 105.53L157.51 117.99L149.54 122.62L149.57 110.16L157.54 105.53Z" fill="#B68ABE"/>
<path id="Vector_16" d="M137.499 108.73L137.469 121.19L133.939 126.14L133.979 113.68L137.499 108.73Z" fill="#B68ABE"/>
<path id="Vector_17" d="M122.67 113.67L122.64 126.14L118.91 120.97L118.95 108.51L122.67 113.67Z" fill="#724494"/>
<path id="Vector_18" d="M133.98 113.68L133.94 126.14H122.64L122.67 113.67L133.98 113.68Z" fill="#A97BB5"/>
<path id="Vector_19" d="M158.09 81.07L154.42 86.24C154.89 86.83 155.3 87.44 155.66 88.06L164.23 90.11V96.67L155.33 98.81C154.94 99.41 154.49 100.01 153.98 100.59L157.54 105.53L149.57 110.16L140.62 108.03C139.6 108.3 138.55 108.54 137.49 108.73L133.97 113.68H122.67L118.94 108.5C117.9 108.27 116.86 108.01 115.85 107.71L107.32 109.77L99.2999 105.14L102.97 99.97C102.5 99.36 102.1 98.76 101.74 98.14L93.1999 96.09L93.1699 89.54L102.07 87.39C102.46 86.79 102.91 86.19 103.42 85.61L99.8399 80.66L107.81 76.03L116.74 78.17C117.78 77.91 118.83 77.67 119.9 77.47L123.41 72.53H134.71L138.45 77.7C139.49 77.93 140.53 78.19 141.54 78.49L150.06 76.44L158.08 81.07H158.09Z" fill="url(#paint3_linear_1902_24758)"/>
</g>
<g id="p">
<path id="r" d="M128.71 95.8901C136.85 95.8901 143.45 92.0801 143.45 87.3801C143.45 82.6802 136.85 78.8701 128.71 78.8701C120.569 78.8701 113.97 82.6802 113.97 87.3801C113.97 92.0801 120.569 95.8901 128.71 95.8901Z" fill="url(#paint4_linear_1902_24758)"/>
<path id="s" d="M133.92 90.39C131.04 92.05 126.38 92.05 123.5 90.39C120.62 88.73 120.62 86.04 123.5 84.37C126.38 82.71 131.04 82.71 133.92 84.37C136.8 86.03 136.8 88.72 133.92 90.39Z" fill="#3C223A"/>
<path id="t" d="M143.44 87.3V92.54C143.47 94.74 142.04 96.95 139.12 98.63C133.37 101.95 124.04 101.95 118.28 98.63C115.44 96.99 114 94.84 113.96 92.69V87.45C113.99 89.6 115.43 91.75 118.28 93.39C124.03 96.71 133.36 96.71 139.12 93.39C142.03 91.71 143.47 89.5 143.44 87.3Z" fill="#A97BB5"/>
</g>
<g id="Group_3">
<path id="Vector_20" d="M162.52 107.48L162.48 119.94L158.9 114.99L158.94 102.53L162.52 107.48Z" fill="#CC771C"/>
<path id="Vector_21" d="M217.17 102.93L217.14 115.39L213.47 120.56L213.5 108.1L217.17 102.93Z" fill="#F8AA41"/>
<path id="Vector_22" d="M160.84 120.01L160.8 132.47L152.28 130.42L152.29 117.96L160.84 120.01Z" fill="#CC771C"/>
<path id="Vector_23" d="M223.33 118.52L223.32 130.99L214.38 133.13L214.42 120.66L223.33 118.52Z" fill="#EE9525"/>
<path id="Vector_24" d="M162.06 121.84L162.02 134.3C161.55 133.69 161.15 133.09 160.79 132.47L160.83 120.01C161.19 120.63 161.58 121.23 162.06 121.84Z" fill="#DF8B22"/>
<path id="Vector_25" d="M214.42 120.66L214.38 133.12C213.99 133.72 213.54 134.32 213.03 134.9L213.07 122.44C213.59 121.86 214.04 121.26 214.42 120.66Z" fill="#DF8B22"/>
<path id="Vector_26" d="M178.03 130.37L177.99 142.83C176.95 142.6 175.91 142.34 174.9 142.04L174.94 129.58C175.95 129.88 176.99 130.14 178.03 130.37Z" fill="#DF8B22"/>
<path id="Vector_27" d="M199.71 129.89L199.67 142.35C198.65 142.62 197.6 142.86 196.54 143.05L196.58 130.59C197.63 130.39 198.69 130.16 199.71 129.89Z" fill="#DF8B22"/>
<path id="Vector_28" d="M174.95 129.58L174.91 142.04L166.38 144.1L166.41 131.64L174.95 129.58Z" fill="#EE9525"/>
<path id="Vector_29" d="M166.41 131.64L166.38 144.1L158.36 139.47L158.39 127.01L166.41 131.64Z" fill="#CC771C"/>
<path id="Vector_30" d="M208.66 132.02L208.63 144.48L199.68 142.35L199.71 129.89L208.66 132.02Z" fill="#CC771C"/>
<path id="Vector_31" d="M216.63 127.39L216.59 139.85L208.63 144.48L208.66 132.02L216.63 127.39Z" fill="#F8AA41"/>
<path id="Vector_32" d="M196.59 130.59L196.55 143.06L193.03 148.01L193.06 135.54L196.59 130.59Z" fill="#F8AA41"/>
<path id="Vector_33" d="M181.76 135.53L181.73 148L178 142.83L178.03 130.37L181.76 135.53Z" fill="#CC771C"/>
<path id="Vector_34" d="M193.06 135.54L193.03 148.01L181.73 148L181.76 135.53L193.06 135.54Z" fill="#EE9525"/>
<path id="Vector_35" d="M217.17 102.93L213.5 108.1C213.97 108.69 214.38 109.3 214.74 109.92L223.31 111.97V118.53L214.41 120.67C214.02 121.27 213.57 121.87 213.06 122.45L216.62 127.39L208.65 132.02L199.7 129.89C198.68 130.16 197.63 130.4 196.57 130.59L193.05 135.54H181.75L178.02 130.36C176.98 130.13 175.94 129.87 174.93 129.57L166.4 131.63L158.38 127L162.05 121.83C161.58 121.22 161.18 120.62 160.82 120L152.28 117.95L152.25 111.4L161.15 109.25C161.54 108.65 161.99 108.05 162.5 107.47L158.92 102.52L166.89 97.8901L175.82 100.03C176.86 99.7701 177.91 99.5301 178.98 99.3301L182.49 94.3901H193.79L197.53 99.5601C198.57 99.7901 199.61 100.05 200.62 100.35L209.14 98.3001L217.16 102.93H217.17Z" fill="url(#paint5_linear_1902_24758)"/>
</g>
<g id="v">
<path id="x" d="M198.22 115.26C192.47 118.58 183.14 118.58 177.38 115.26C171.63 111.94 171.63 106.55 177.38 103.23C183.13 99.91 192.46 99.91 198.22 103.23C203.97 106.55 203.97 111.94 198.22 115.26Z" fill="url(#paint6_linear_1902_24758)"/>
<path id="y" d="M193.01 112.25C190.13 113.91 185.47 113.91 182.59 112.25C179.71 110.59 179.71 107.9 182.59 106.23C185.47 104.57 190.13 104.57 193.01 106.23C195.89 107.89 195.89 110.58 193.01 112.25Z" fill="#3C223A"/>
<path id="a`" d="M202.53 109.16V114.4C202.56 116.6 201.13 118.81 198.21 120.49C192.46 123.81 183.13 123.81 177.37 120.49C174.53 118.85 173.09 116.7 173.05 114.55V109.31C173.08 111.46 174.52 113.61 177.37 115.25C183.12 118.57 192.45 118.57 198.21 115.25C201.12 113.57 202.56 111.36 202.53 109.16Z" fill="#EE9525"/>
</g>
<g id="Group_4">
<path id="Vector_36" d="M145.78 148.54L145.75 161L142.17 156.05L142.2 143.59L145.78 148.54Z" fill="#724494"/>
<path id="Vector_37" d="M200.439 143.99L200.399 156.46L196.729 161.62L196.77 149.16L200.439 143.99Z" fill="#B68ABE"/>
<path id="Vector_38" d="M144.1 161.07L144.06 173.54L135.55 171.49L135.56 159.02L144.1 161.07Z" fill="#724494"/>
<path id="Vector_39" d="M206.59 159.59L206.58 172.05L197.65 174.19L195.89 166.89L197.68 161.73L206.59 159.59Z" fill="#A97BB5"/>
<path id="Vector_40" d="M145.33 162.9L145.29 175.36C144.82 174.75 144.42 174.15 144.06 173.53L144.1 161.07C144.46 161.69 144.85 162.29 145.33 162.9Z" fill="#9864A7"/>
<path id="Vector_41" d="M197.68 161.73L197.64 174.19C197.25 174.79 196.8 175.39 196.29 175.97L196.33 163.51C196.85 162.93 197.3 162.33 197.68 161.73Z" fill="#9864A7"/>
<path id="Vector_42" d="M161.3 171.43L161.26 183.89C160.22 183.66 159.18 183.4 158.17 183.1L158.21 170.64C159.22 170.94 160.26 171.2 161.3 171.43Z" fill="#9864A7"/>
<path id="Vector_43" d="M182.98 170.95L182.94 183.41C181.92 183.68 180.87 183.92 179.81 184.11L179.85 171.65C180.9 171.45 181.96 171.22 182.98 170.95Z" fill="#9864A7"/>
<path id="Vector_44" d="M158.21 170.64L158.18 183.11L149.64 185.16L149.68 172.7L158.21 170.64Z" fill="#A97BB5"/>
<path id="Vector_45" d="M149.68 172.7L149.64 185.16L141.62 180.53L141.66 168.07L149.68 172.7Z" fill="#724494"/>
<path id="Vector_46" d="M191.929 173.09L191.889 185.55L182.939 183.42L182.979 170.95L191.929 173.09Z" fill="#724494"/>
<path id="Vector_47" d="M199.89 168.45L199.86 180.92L191.89 185.55L191.93 173.09L199.89 168.45Z" fill="#B68ABE"/>
<path id="Vector_48" d="M179.85 171.66L179.82 184.12L176.29 189.07L176.33 176.61L179.85 171.66Z" fill="#B68ABE"/>
<path id="Vector_49" d="M165.03 176.6L164.99 189.06L161.26 183.9L161.3 171.43L165.03 176.6Z" fill="#724494"/>
<path id="Vector_50" d="M176.33 176.61L176.29 189.07L164.99 189.06L165.03 176.6L176.33 176.61Z" fill="#A97BB5"/>
<path id="Vector_51" d="M200.09 144.07L196.42 149.24C196.89 149.83 197.3 150.44 197.66 151.06L206.23 153.11V159.67L197.33 161.81C196.94 162.41 196.49 163.01 195.98 163.59L199.54 168.53L191.57 173.16L182.62 171.03C181.6 171.3 180.55 171.54 179.49 171.73L175.97 176.68H164.67L160.94 171.5C159.9 171.27 158.86 171.01 157.85 170.71L149.32 172.77L141.3 168.14L144.97 162.97C144.5 162.36 144.1 161.76 143.74 161.14L135.2 159.09L135.17 152.54L144.07 150.39C144.46 149.79 144.91 149.19 145.42 148.61L141.84 143.66L149.81 139.03L158.74 141.17C159.78 140.91 160.83 140.67 161.9 140.47L165.41 135.53H176.71L180.45 140.7C181.49 140.93 182.53 141.19 183.54 141.49L192.06 139.44L200.08 144.07H200.09Z" fill="url(#paint7_linear_1902_24758)"/>
</g>
<g id="ab">
<path id="r_2" d="M170.71 158.89C178.85 158.89 185.45 155.08 185.45 150.38C185.45 145.68 178.85 141.87 170.71 141.87C162.569 141.87 155.97 145.68 155.97 150.38C155.97 155.08 162.569 158.89 170.71 158.89Z" fill="url(#paint8_linear_1902_24758)"/>
<path id="ae" d="M176.269 153.31C173.389 154.97 168.729 154.97 165.849 153.31C162.969 151.65 162.969 148.96 165.849 147.29C168.729 145.63 173.389 145.63 176.269 147.29C179.149 148.95 179.149 151.64 176.269 153.31Z" fill="#3C223A"/>
<path id="af" d="M185.799 150.23V155.47C185.829 157.67 184.399 159.88 181.479 161.56C175.729 164.88 166.399 164.88 160.639 161.56C157.799 159.92 156.359 157.77 156.319 155.62V150.38C156.349 152.53 157.789 154.68 160.639 156.32C166.389 159.64 175.719 159.64 181.479 156.32C184.389 154.64 185.829 152.43 185.799 150.23Z" fill="#A97BB5"/>
</g>
</g>
</g>
</g>
<defs>
<linearGradient id="paint0_linear_1902_24758" x1="178.59" y1="156.72" x2="197" y2="156.72" gradientUnits="userSpaceOnUse">
<stop stop-color="#CC771C"/>
<stop offset="1" stop-color="#F8AA41"/>
</linearGradient>
<linearGradient id="paint1_linear_1902_24758" x1="161.86" y1="199.44" x2="180.26" y2="199.44" gradientUnits="userSpaceOnUse">
<stop stop-color="#724494"/>
<stop offset="1" stop-color="#9160A5"/>
</linearGradient>
<linearGradient id="paint2_linear_1902_24758" x1="119.511" y1="136.51" x2="137.911" y2="136.51" gradientUnits="userSpaceOnUse">
<stop stop-color="#724494"/>
<stop offset="1" stop-color="#9160A5"/>
</linearGradient>
<linearGradient id="paint3_linear_1902_24758" x1="93.1799" y1="93.1" x2="164.24" y2="93.1" gradientUnits="userSpaceOnUse">
<stop stop-color="#C39AF8"/>
<stop offset="1" stop-color="#E3B2E4"/>
</linearGradient>
<linearGradient id="paint4_linear_1902_24758" x1="113.97" y1="87.3801" x2="143.44" y2="87.3801" gradientUnits="userSpaceOnUse">
<stop stop-color="#CC99E4"/>
<stop offset="1" stop-color="#E4B2D3"/>
</linearGradient>
<linearGradient id="paint5_linear_1902_24758" x1="152.27" y1="114.96" x2="223.33" y2="114.96" gradientUnits="userSpaceOnUse">
<stop stop-color="#F8AA41"/>
<stop offset="1" stop-color="#FBBE47"/>
</linearGradient>
<linearGradient id="paint6_linear_1902_24758" x1="173.06" y1="109.24" x2="202.53" y2="109.24" gradientUnits="userSpaceOnUse">
<stop stop-color="#F8AA41"/>
<stop offset="1" stop-color="#FBBE47"/>
</linearGradient>
<linearGradient id="paint7_linear_1902_24758" x1="135.18" y1="156.1" x2="206.24" y2="156.1" gradientUnits="userSpaceOnUse">
<stop stop-color="#C39AF8"/>
<stop offset="1" stop-color="#E3B2E4"/>
</linearGradient>
<linearGradient id="paint8_linear_1902_24758" x1="155.97" y1="150.38" x2="185.44" y2="150.38" gradientUnits="userSpaceOnUse">
<stop stop-color="#CC99E4"/>
<stop offset="1" stop-color="#E4B2D3"/>
</linearGradient>
</defs>
</svg>
