<svg width="320" height="320" viewBox="0 0 320 320" fill="none" xmlns="http://www.w3.org/2000/svg">
<g id="pic" clip-path="url(#clip0_1902_25154)">
<g id="Group">
<path id="Vector" d="M179.877 225.677C180.955 224.599 180.955 222.852 179.877 221.774C178.799 220.696 177.052 220.696 175.974 221.774C174.896 222.852 174.896 224.599 175.974 225.677C177.052 226.755 178.799 226.755 179.877 225.677Z" fill="#724494"/>
<path id="Vector_2" d="M108.395 127.791C108.887 125.706 107.596 123.616 105.51 123.124C103.424 122.632 101.335 123.923 100.842 126.009C100.35 128.094 101.642 130.184 103.727 130.676C105.813 131.169 107.903 129.877 108.395 127.791Z" fill="#724494"/>
<path id="Vector_3" d="M61.8397 225.66C63.5629 225.66 64.9597 224.263 64.9597 222.54C64.9597 220.817 63.5629 219.42 61.8397 219.42C60.1166 219.42 58.7197 220.817 58.7197 222.54C58.7197 224.263 60.1166 225.66 61.8397 225.66Z" fill="#724494"/>
<path id="Vector_4" d="M67.0194 97.55C68.1694 97.55 69.0994 98.48 69.0994 99.63C69.0994 100.78 68.1694 101.71 67.0194 101.71C65.8694 101.71 64.9395 100.78 64.9395 99.63C64.9395 98.48 65.8694 97.55 67.0194 97.55Z" fill="#724494"/>
<path id="Vector_5" d="M99.0147 105.427C101.02 104.597 101.972 102.298 101.142 100.292C100.311 98.2871 98.0121 97.3349 96.0068 98.1655C94.0016 98.9961 93.0493 101.295 93.8799 103.3C94.7105 105.306 97.0095 106.258 99.0147 105.427Z" fill="#724494"/>
<path id="Vector_6" d="M121.636 134.905C122.056 133.126 120.954 131.343 119.175 130.923C117.396 130.503 115.613 131.605 115.193 133.384C114.773 135.163 115.875 136.946 117.654 137.366C119.433 137.786 121.216 136.684 121.636 134.905Z" fill="#724494"/>
<path id="Vector_7" d="M47.9698 203.37C49.0302 203.37 49.8898 202.51 49.8898 201.45C49.8898 200.39 49.0302 199.53 47.9698 199.53C46.9094 199.53 46.0498 200.39 46.0498 201.45C46.0498 202.51 46.9094 203.37 47.9698 203.37Z" fill="#724494"/>
<path id="Vector_8" d="M44.3292 149.69C45.3896 149.69 46.2492 148.83 46.2492 147.77C46.2492 146.71 45.3896 145.85 44.3292 145.85C43.2688 145.85 42.4092 146.71 42.4092 147.77C42.4092 148.83 43.2688 149.69 44.3292 149.69Z" fill="#724494"/>
<path id="Vector_9" d="M166.09 249.91C167.078 249.91 167.88 249.109 167.88 248.12C167.88 247.131 167.078 246.33 166.09 246.33C165.101 246.33 164.3 247.131 164.3 248.12C164.3 249.109 165.101 249.91 166.09 249.91Z" fill="#724494"/>
<path id="Vector_10" d="M235.577 184.671C237.136 184.021 237.873 182.229 237.223 180.669C236.572 179.109 234.78 178.372 233.221 179.023C231.661 179.673 230.924 181.465 231.574 183.025C232.225 184.585 234.017 185.322 235.577 184.671Z" fill="#724494"/>
<path id="Vector_11" d="M112.139 90.58C114.729 90.58 116.829 88.4802 116.829 85.89C116.829 83.2997 114.729 81.2 112.139 81.2C109.549 81.2 107.449 83.2997 107.449 85.89C107.449 88.4802 109.549 90.58 112.139 90.58Z" fill="#724494"/>
<path id="Vector_12" d="M227.659 107.53C229.162 107.53 230.379 106.312 230.379 104.81C230.379 103.308 229.162 102.09 227.659 102.09C226.157 102.09 224.939 103.308 224.939 104.81C224.939 106.312 226.157 107.53 227.659 107.53Z" fill="#724494"/>
<path id="Vector_13" d="M155.737 98.4921C157.382 96.848 157.382 94.1823 155.737 92.5382C154.093 90.8941 151.428 90.8941 149.784 92.5382C148.139 94.1823 148.139 96.8479 149.784 98.4921C151.428 100.136 154.093 100.136 155.737 98.4921Z" fill="#724494"/>
<path id="Vector_14" d="M32.3097 244.21C34.0604 244.21 35.4796 242.791 35.4796 241.04C35.4796 239.289 34.0604 237.87 32.3097 237.87C30.5589 237.87 29.1396 239.289 29.1396 241.04C29.1396 242.791 30.5589 244.21 32.3097 244.21Z" fill="#724494"/>
<path id="Vector_15" d="M253.266 178.072C255.078 177.432 256.029 175.445 255.389 173.632C254.75 171.82 252.762 170.869 250.95 171.509C249.137 172.148 248.187 174.136 248.826 175.949C249.466 177.761 251.454 178.712 253.266 178.072Z" fill="#724494"/>
<path id="Vector_16" d="M111.83 274.92C113.663 274.92 115.15 273.434 115.15 271.6C115.15 269.766 113.663 268.28 111.83 268.28C109.996 268.28 108.51 269.766 108.51 271.6C108.51 273.434 109.996 274.92 111.83 274.92Z" fill="#724494"/>
<path id="Vector_17" d="M71.3501 166.84C74.3987 166.84 76.8701 164.369 76.8701 161.32C76.8701 158.271 74.3987 155.8 71.3501 155.8C68.3015 155.8 65.8301 158.271 65.8301 161.32C65.8301 164.369 68.3015 166.84 71.3501 166.84Z" fill="#724494"/>
<path id="Vector_18" d="M94.616 68.3398C96.0258 66.93 96.0258 64.6442 94.616 63.2345C93.2062 61.8247 90.9205 61.8247 89.5107 63.2345C88.1009 64.6442 88.1009 66.93 89.5107 68.3398C90.9205 69.7496 93.2062 69.7496 94.616 68.3398Z" fill="#724494"/>
<path id="Vector_19" d="M138.758 220.22C139.158 218.864 138.384 217.44 137.028 217.039C135.672 216.638 134.248 217.413 133.847 218.769C133.447 220.125 134.221 221.549 135.577 221.949C136.933 222.35 138.357 221.575 138.758 220.22Z" fill="#724494"/>
<path id="Vector_20" d="M180.34 141.95C182.107 141.95 183.54 140.517 183.54 138.75C183.54 136.983 182.107 135.55 180.34 135.55C178.572 135.55 177.14 136.983 177.14 138.75C177.14 140.517 178.572 141.95 180.34 141.95Z" fill="#724494"/>
<path id="Vector_21" d="M121.52 54.0599C123.21 54.0599 124.58 52.6899 124.58 50.9999C124.58 49.31 123.21 47.9399 121.52 47.9399C119.83 47.9399 118.46 49.31 118.46 50.9999C118.46 52.6899 119.83 54.0599 121.52 54.0599Z" fill="#724494"/>
<path id="Vector_22" d="M262.239 164.829C263.442 163.626 263.442 161.676 262.239 160.473C261.036 159.27 259.086 159.27 257.883 160.473C256.68 161.676 256.68 163.626 257.883 164.829C259.086 166.031 261.036 166.031 262.239 164.829Z" fill="#724494"/>
<path id="Vector_23" d="M223.889 77.39C225.933 77.39 227.589 75.7334 227.589 73.69C227.589 71.6465 225.933 69.99 223.889 69.99C221.846 69.99 220.189 71.6465 220.189 73.69C220.189 75.7334 221.846 77.39 223.889 77.39Z" fill="#724494"/>
<path id="Vector_24" d="M121.9 136.092C123.587 134.405 123.587 131.669 121.9 129.982C120.213 128.295 117.478 128.295 115.791 129.982C114.104 131.669 114.104 134.404 115.791 136.092C117.478 137.779 120.213 137.779 121.9 136.092Z" fill="#724494"/>
<path id="Vector_25" d="M189.58 104.13C190.85 104.13 191.89 105.16 191.89 106.44C191.89 107.72 190.86 108.75 189.58 108.75C188.3 108.75 187.27 107.72 187.27 106.44C187.27 105.16 188.3 104.13 189.58 104.13Z" fill="#724494"/>
<path id="Vector_26" d="M44.0892 176.38C45.9615 176.38 47.4792 174.862 47.4792 172.99C47.4792 171.118 45.9615 169.6 44.0892 169.6C42.217 169.6 40.6992 171.118 40.6992 172.99C40.6992 174.862 42.217 176.38 44.0892 176.38Z" fill="#724494"/>
<path id="Vector_27" d="M228.289 157.651C228.56 155.978 227.422 154.401 225.749 154.131C224.075 153.86 222.498 154.997 222.228 156.671C221.957 158.345 223.094 159.921 224.768 160.192C226.442 160.463 228.018 159.325 228.289 157.651Z" fill="#724494"/>
<path id="Vector_28" d="M172.208 141.541C172.595 139.902 171.579 138.259 169.94 137.872C168.301 137.485 166.658 138.5 166.271 140.14C165.884 141.779 166.899 143.422 168.539 143.809C170.178 144.196 171.821 143.18 172.208 141.541Z" fill="#724494"/>
<path id="Vector_29" d="M132.059 161.56C132.909 161.56 133.589 162.25 133.589 163.09C133.589 163.93 132.899 164.62 132.059 164.62C131.219 164.62 130.529 163.93 130.529 163.09C130.529 162.25 131.219 161.56 132.059 161.56Z" fill="#724494"/>
<path id="Vector_30" d="M255.324 155.472C255.683 153.259 254.18 151.173 251.967 150.814C249.753 150.455 247.668 151.958 247.309 154.171C246.949 156.384 248.452 158.47 250.666 158.829C252.879 159.188 254.965 157.685 255.324 155.472Z" fill="#724494"/>
<path id="Vector_31" d="M263.06 133.84C265.302 133.84 267.12 132.022 267.12 129.78C267.12 127.538 265.302 125.72 263.06 125.72C260.818 125.72 259 127.538 259 129.78C259 132.022 260.818 133.84 263.06 133.84Z" fill="#724494"/>
<path id="Vector_32" d="M76.5892 189.37C77.5192 189.37 78.2692 190.12 78.2692 191.05C78.2692 191.98 77.5192 192.73 76.5892 192.73C75.6592 192.73 74.9092 191.98 74.9092 191.05C74.9092 190.12 75.6592 189.37 76.5892 189.37Z" fill="#724494"/>
<path id="Vector_33" d="M69.7493 160.29C70.6793 160.29 71.4293 161.04 71.4293 161.97C71.4293 162.9 70.6793 163.65 69.7493 163.65C68.8193 163.65 68.0693 162.9 68.0693 161.97C68.0693 161.04 68.8193 160.29 69.7493 160.29Z" fill="#724494"/>
<path id="Vector_34" d="M146.9 125.93C147.9 125.93 148.7 126.74 148.7 127.73C148.7 128.72 147.89 129.53 146.9 129.53C145.91 129.53 145.1 128.72 145.1 127.73C145.1 126.74 145.91 125.93 146.9 125.93Z" fill="#724494"/>
<path id="Vector_35" d="M207.073 227.131C207.39 225.793 206.563 224.451 205.224 224.134C203.886 223.817 202.544 224.644 202.227 225.983C201.91 227.321 202.738 228.663 204.076 228.98C205.414 229.297 206.756 228.469 207.073 227.131Z" fill="#724494"/>
<path id="Vector_36" d="M219.999 222.11C222.264 222.11 224.099 220.274 224.099 218.01C224.099 215.746 222.264 213.91 219.999 213.91C217.735 213.91 215.899 215.746 215.899 218.01C215.899 220.274 217.735 222.11 219.999 222.11Z" fill="#724494"/>
<path id="Vector_37" d="M93.9392 241.11C96.5791 241.11 98.7192 238.97 98.7192 236.33C98.7192 233.69 96.5791 231.55 93.9392 231.55C91.2993 231.55 89.1592 233.69 89.1592 236.33C89.1592 238.97 91.2993 241.11 93.9392 241.11Z" fill="#724494"/>
<path id="Vector_38" d="M222.24 238.48C223.33 238.48 224.21 239.36 224.21 240.45C224.21 241.54 223.33 242.42 222.24 242.42C221.15 242.42 220.27 241.54 220.27 240.45C220.27 239.36 221.15 238.48 222.24 238.48Z" fill="#724494"/>
<path id="Vector_39" d="M230.756 53.4824C231.079 51.4981 229.731 49.6283 227.747 49.3062C225.762 48.9841 223.893 50.3316 223.571 52.316C223.248 54.3003 224.596 56.1701 226.58 56.4922C228.565 56.8143 230.434 55.4668 230.756 53.4824Z" fill="#724494"/>
<path id="Vector_40" d="M78.5176 62.0313C79.7555 60.7934 79.7555 58.7862 78.5176 57.5483C77.2796 56.3103 75.2725 56.3103 74.0345 57.5483C72.7965 58.7862 72.7965 60.7934 74.0345 62.0313C75.2725 63.2693 77.2796 63.2693 78.5176 62.0313Z" fill="#724494"/>
<path id="Vector_41" d="M116.279 244.02C118.019 242.69 119.999 244.66 118.669 246.41C116.929 247.74 114.949 245.77 116.279 244.02Z" fill="#724494"/>
<path id="Vector_42" d="M283.756 223.604C284.721 222.639 284.721 221.075 283.756 220.111C282.792 219.146 281.228 219.146 280.263 220.111C279.299 221.075 279.299 222.639 280.263 223.604C281.228 224.569 282.792 224.569 283.756 223.604Z" fill="#724494"/>
<path id="Vector_43" d="M113.51 177.62C115.349 177.62 116.84 176.129 116.84 174.29C116.84 172.451 115.349 170.96 113.51 170.96C111.671 170.96 110.18 172.451 110.18 174.29C110.18 176.129 111.671 177.62 113.51 177.62Z" fill="#724494"/>
<path id="Vector_44" d="M179.16 107.68C179.65 107.68 180.05 108.08 180.05 108.57C180.05 109.06 179.65 109.46 179.16 109.46C178.67 109.46 178.27 109.06 178.27 108.57C178.27 108.08 178.67 107.68 179.16 107.68Z" fill="#724494"/>
<path id="Vector_45" d="M175.14 182.19C176.448 182.19 177.51 181.129 177.51 179.82C177.51 178.511 176.448 177.45 175.14 177.45C173.831 177.45 172.77 178.511 172.77 179.82C172.77 181.129 173.831 182.19 175.14 182.19Z" fill="#724494"/>
<path id="Vector_46" d="M203.48 112.26C205.518 112.26 207.17 110.608 207.17 108.57C207.17 106.532 205.518 104.88 203.48 104.88C201.442 104.88 199.79 106.532 199.79 108.57C199.79 110.608 201.442 112.26 203.48 112.26Z" fill="#724494"/>
<path id="Vector_47" d="M168.039 74.3601C169.216 74.3601 170.169 73.4065 170.169 72.2301C170.169 71.0537 169.216 70.1001 168.039 70.1001C166.863 70.1001 165.909 71.0537 165.909 72.2301C165.909 73.4065 166.863 74.3601 168.039 74.3601Z" fill="#724494"/>
<path id="Vector_48" d="M202.429 172.4C203.921 172.4 205.13 171.191 205.13 169.7C205.13 168.209 203.921 167 202.429 167C200.938 167 199.729 168.209 199.729 169.7C199.729 171.191 200.938 172.4 202.429 172.4Z" fill="#724494"/>
<path id="Vector_49" d="M153.02 232.86C154.224 232.86 155.2 231.884 155.2 230.68C155.2 229.476 154.224 228.5 153.02 228.5C151.816 228.5 150.84 229.476 150.84 230.68C150.84 231.884 151.816 232.86 153.02 232.86Z" fill="#724494"/>
<path id="Vector_50" d="M153.64 184.42C155.346 184.42 156.73 183.037 156.73 181.33C156.73 179.623 155.346 178.24 153.64 178.24C151.933 178.24 150.55 179.623 150.55 181.33C150.55 183.037 151.933 184.42 153.64 184.42Z" fill="#724494"/>
<path id="Vector_51" d="M98.9995 198.77C101.518 198.77 103.559 196.728 103.559 194.21C103.559 191.691 101.518 189.65 98.9995 189.65C96.481 189.65 94.4395 191.691 94.4395 194.21C94.4395 196.728 96.481 198.77 98.9995 198.77Z" fill="#724494"/>
<path id="Vector_52" d="M170.319 109.47C172.479 109.47 174.229 107.719 174.229 105.56C174.229 103.4 172.479 101.65 170.319 101.65C168.16 101.65 166.409 103.4 166.409 105.56C166.409 107.719 168.16 109.47 170.319 109.47Z" fill="#724494"/>
<path id="Vector_53" d="M179.029 194.64C180.874 194.64 182.369 193.145 182.369 191.3C182.369 189.455 180.874 187.96 179.029 187.96C177.185 187.96 175.689 189.455 175.689 191.3C175.689 193.145 177.185 194.64 179.029 194.64Z" fill="#724494"/>
<path id="Vector_54" d="M65.06 209.62C67.6005 209.62 69.66 207.56 69.66 205.02C69.66 202.479 67.6005 200.42 65.06 200.42C62.5194 200.42 60.46 202.479 60.46 205.02C60.46 207.56 62.5194 209.62 65.06 209.62Z" fill="#724494"/>
<path id="Vector_55" d="M239.829 93.2199C241.448 93.2199 242.759 91.9081 242.759 90.2899C242.759 88.6717 241.448 87.3599 239.829 87.3599C238.211 87.3599 236.899 88.6717 236.899 90.2899C236.899 91.9081 238.211 93.2199 239.829 93.2199Z" fill="#724494"/>
<path id="Vector_56" d="M200.832 76.242C201.4 73.8339 199.909 71.421 197.5 70.8526C195.092 70.2843 192.679 71.7757 192.111 74.1837C191.543 76.5918 193.034 79.0047 195.442 79.573C197.85 80.1414 200.263 78.65 200.832 76.242Z" fill="#724494"/>
<path id="Vector_57" d="M258.065 208.962C259.557 207.47 259.557 205.052 258.065 203.56C256.574 202.068 254.155 202.068 252.663 203.56C251.171 205.052 251.171 207.47 252.663 208.962C254.155 210.454 256.574 210.454 258.065 208.962Z" fill="#724494"/>
<path id="Vector_58" d="M203.625 209.693C204.535 208.783 204.535 207.308 203.625 206.398C202.715 205.488 201.24 205.488 200.33 206.398C199.42 207.308 199.42 208.783 200.33 209.693C201.24 210.603 202.715 210.603 203.625 209.693Z" fill="#724494"/>
<path id="Vector_59" opacity="0.4" d="M104.62 126.91L97.7695 101.97" stroke="#724494" stroke-width="0.48"/>
<path id="Vector_60" opacity="0.4" d="M177.93 223.73L166.09 248.12" stroke="#724494" stroke-width="0.48"/>
<path id="Vector_61" d="M104.62 126.91L118.42 134.16" stroke="#724494" stroke-width="0.48"/>
<path id="Vector_62" opacity="0.4" d="M201.98 208.04L177.93 223.73" stroke="#724494" stroke-width="0.48"/>
<path id="Vector_63" d="M61.8397 222.54L47.9697 201.45" stroke="#724494" stroke-width="0.48"/>
<path id="Vector_64" d="M70.8301 159.84L97.7701 101.97" stroke="#724494" stroke-width="0.48"/>
<path id="Vector_65" d="M61.8393 222.54L32.2393 241.09" stroke="#724494" stroke-width="0.48"/>
<path id="Vector_66" d="M112.27 85.8799L97.7695 101.97" stroke="#724494" stroke-width="0.48"/>
<path id="Vector_67" opacity="0.4" d="M62.0195 222.57L117.71 244.92" stroke="#724494" stroke-width="0.48"/>
<path id="Vector_68" opacity="0.4" d="M152.76 95.52L97.7695 101.97" stroke="#724494" stroke-width="0.48"/>
<path id="Vector_69" opacity="0.4" d="M152.76 95.5199L112.27 85.8799" stroke="#724494" stroke-width="0.48"/>
<path id="Vector_70" d="M47.9693 201.45L32.2393 241.09" stroke="#724494" stroke-width="0.48"/>
<path id="Vector_71" d="M66.96 99.6799L70.83 159.84" stroke="#724494" stroke-width="0.48"/>
<path id="Vector_72" d="M234.64 182.34L252.1 174.81" stroke="#724494" stroke-width="0.48"/>
<path id="Vector_73" d="M47.9695 201.45L43.2695 172.91" stroke="#724494" stroke-width="0.48"/>
<path id="Vector_74" opacity="0.4" d="M92.0693 65.79L97.7693 101.97" stroke="#724494" stroke-width="0.48"/>
<path id="Vector_75" d="M112.27 85.8799L66.96 99.6799" stroke="#724494" stroke-width="0.48"/>
<path id="Vector_76" d="M112.269 85.88L92.0693 65.79" stroke="#724494" stroke-width="0.48"/>
<path id="Vector_77" opacity="0.4" d="M152.759 95.52L92.0693 65.79" stroke="#724494" stroke-width="0.48"/>
<path id="Vector_78" d="M292.15 170.02L252.1 174.81" stroke="#724494" stroke-width="0.48"/>
<path id="Vector_79" d="M152.76 95.52L121.52 51" stroke="#724494" stroke-width="0.48"/>
<path id="Vector_80" d="M66.96 99.68L92.07 65.79" stroke="#724494" stroke-width="0.48"/>
<path id="Vector_81" opacity="0.4" d="M223.979 73.48L227.66 104.81" stroke="#724494" stroke-width="0.48"/>
<path id="Vector_82" opacity="0.4" d="M282.15 221.83L252.1 174.81" stroke="#724494" stroke-width="0.48"/>
<path id="Vector_83" d="M136.979 219.88L117.529 244.88" stroke="#724494" stroke-width="0.48"/>
<path id="Vector_84" d="M260.06 162.65L252.1 174.81" stroke="#724494" stroke-width="0.48"/>
<path id="Vector_85" d="M260.06 162.65L292.15 170.02" stroke="#724494" stroke-width="0.48"/>
<path id="Vector_86" d="M121.519 51L92.0693 65.79" stroke="#724494" stroke-width="0.48"/>
<path id="Vector_87" d="M180.26 138.92L202.88 108.74" stroke="#724494" stroke-width="0.48"/>
<path id="Vector_88" opacity="0.4" d="M112.319 272.27L117.529 244.88" stroke="#724494" stroke-width="0.48"/>
<path id="Vector_89" opacity="0.4" d="M136.98 219.88L132.06 163.09" stroke="#724494" stroke-width="0.48"/>
<path id="Vector_90" opacity="0.4" d="M223.98 73.48L202.88 108.74" stroke="#724494" stroke-width="0.48"/>
<path id="Vector_91" d="M180.26 138.92L225.26 157.16" stroke="#724494" stroke-width="0.48"/>
<path id="Vector_92" d="M263.06 129.78L202.88 108.74" stroke="#724494" stroke-width="0.48"/>
<path id="Vector_93" opacity="0.4" d="M76.1396 59.71L92.0696 65.79" stroke="#724494" stroke-width="0.48"/>
<path id="Vector_94" d="M260.06 162.65L251.31 154.81" stroke="#724494" stroke-width="0.48"/>
<path id="Vector_95" opacity="0.4" d="M263.06 129.78L180.26 138.92" stroke="#724494" stroke-width="0.48"/>
<path id="Vector_96" d="M263.06 129.78L260.06 162.65" stroke="#724494" stroke-width="0.48"/>
<path id="Vector_97" d="M118.85 133.03L132.06 163.09" stroke="#724494" stroke-width="0.48"/>
<path id="Vector_98" d="M118.85 133.03L146.9 127.73" stroke="#724494" stroke-width="0.48"/>
<path id="Vector_99" d="M132.06 163.09L169.24 140.85" stroke="#724494" stroke-width="0.48"/>
<path id="Vector_100" opacity="0.4" d="M76.1396 59.71L121.52 51" stroke="#724494" stroke-width="0.48"/>
<path id="Vector_101" d="M251.31 154.81L225.26 157.16" stroke="#724494" stroke-width="0.48"/>
<path id="Vector_102" d="M227.16 52.8899L223.979 73.4799" stroke="#724494" stroke-width="0.48"/>
<path id="Vector_103" d="M204.59 226.53L225.26 157.16" stroke="#724494" stroke-width="0.48"/>
<path id="Vector_104" d="M146.899 127.73L169.239 140.85" stroke="#724494" stroke-width="0.48"/>
<path id="Vector_105" d="M220 218.01L225.26 157.16" stroke="#724494" stroke-width="0.48"/>
<path id="Vector_106" opacity="0.4" d="M227.16 52.8899L202.88 108.74" stroke="#724494" stroke-width="0.48"/>
<path id="Vector_107" d="M263.06 129.78L251.31 154.81" stroke="#724494" stroke-width="0.48"/>
<path id="Vector_108" d="M234.22 181.66L225.58 157.46" stroke="#724494" stroke-width="0.48"/>
<path id="Vector_109" d="M154.489 181.32L169.239 140.85" stroke="#724494" stroke-width="0.48"/>
<path id="Vector_110" d="M204.59 226.53L220 218.01" stroke="#724494" stroke-width="0.48"/>
<path id="Vector_111" d="M204.59 226.53L222.05 240.49" stroke="#724494" stroke-width="0.48"/>
<path id="Vector_112" opacity="0.4" d="M93.9598 236.39L76.5898 191.06" stroke="#724494" stroke-width="0.48"/>
<path id="Vector_113" d="M113.51 174.29L76.5898 191.06" stroke="#724494" stroke-width="0.48"/>
<path id="Vector_114" d="M71.8193 162.92L76.5893 191.06" stroke="#724494" stroke-width="0.48"/>
<path id="Vector_115" d="M112.32 272.27L93.96 236.39" stroke="#724494" stroke-width="0.48"/>
<path id="Vector_116" opacity="0.4" d="M167.599 72L146.899 127.73" stroke="#724494" stroke-width="0.48"/>
<path id="Vector_117" opacity="0.4" d="M154.18 181.43L175.14 179.82" stroke="#724494" stroke-width="0.48"/>
<path id="Vector_118" opacity="0.4" d="M93.96 236.39L113.51 174.29" stroke="#724494" stroke-width="0.48"/>
<path id="Vector_119" d="M112.319 272.27L153.539 230.89" stroke="#724494" stroke-width="0.48"/>
<path id="Vector_120" d="M113.51 174.29L71.4697 161.52" stroke="#724494" stroke-width="0.48"/>
<path id="Vector_121" d="M70.1996 160.7L44.5996 147.61" stroke="#724494" stroke-width="0.48"/>
<path id="Vector_122" opacity="0.4" d="M170.059 105.87L146.899 127.73" stroke="#724494" stroke-width="0.48"/>
<path id="Vector_123" opacity="0.4" d="M112.32 272.27L99 194.21" stroke="#724494" stroke-width="0.48"/>
<path id="Vector_124" d="M179.159 108.57L189.979 106.64" stroke="#724494" stroke-width="0.48"/>
<path id="Vector_125" d="M175.14 179.82L202.43 169.7" stroke="#724494" stroke-width="0.48"/>
<path id="Vector_126" d="M189.98 106.64L167.6 72" stroke="#724494" stroke-width="0.48"/>
<path id="Vector_127" d="M153.64 181.33L113.51 174.29" stroke="#724494" stroke-width="0.48"/>
<path id="Vector_128" d="M179.16 108.57L170.06 105.87" stroke="#724494" stroke-width="0.48"/>
<path id="Vector_129" opacity="0.4" d="M227.159 52.8899L239.829 90.2899" stroke="#724494" stroke-width="0.48"/>
<path id="Vector_130" opacity="0.4" d="M227.16 52.8899L196.37 75.1299" stroke="#724494" stroke-width="0.48"/>
<path id="Vector_131" d="M189.98 106.64L170.06 105.87" stroke="#724494" stroke-width="0.48"/>
<path id="Vector_132" d="M153.54 230.89L153.64 181.33" stroke="#724494" stroke-width="0.48"/>
<path id="Vector_133" opacity="0.4" d="M99 194.21L153.54 230.89" stroke="#724494" stroke-width="0.48"/>
<path id="Vector_134" d="M170.06 105.87L167.6 72" stroke="#724494" stroke-width="0.48"/>
<path id="Vector_135" d="M175.14 179.82L179.03 191.3" stroke="#724494" stroke-width="0.48"/>
<path id="Vector_136" d="M153.54 230.89L179.03 191.3" stroke="#724494" stroke-width="0.48"/>
<path id="Vector_137" opacity="0.4" d="M178.66 224.14L153.54 230.89" stroke="#724494" stroke-width="0.48"/>
<path id="Vector_138" d="M196.37 75.13L167.6 72" stroke="black"/>
<path id="Vector_139" d="M65.0596 205.02L98.9996 194.21" stroke="#724494" stroke-width="0.48"/>
<path id="Vector_140" opacity="0.4" d="M255.36 206.26L202.43 169.7" stroke="#724494" stroke-width="0.48"/>
<path id="Vector_141" opacity="0.4" d="M196.37 75.1299L170.06 105.87" stroke="#724494" stroke-width="0.48"/>
<path id="Vector_142" d="M196.37 75.1299L239.83 90.2899" stroke="#724494" stroke-width="0.48"/>
<path id="Vector_143" d="M201.979 208.04L179.029 191.3" stroke="#724494" stroke-width="0.48"/>
<path id="Vector_144" opacity="0.4" d="M151.46 206.47L179.03 191.3" stroke="#724494" stroke-width="0.48"/>
<path id="Vector_145" opacity="0.4" d="M255.359 206.26L201.979 208.04" stroke="#724494" stroke-width="0.48"/>
<path id="Vector_146" opacity="0.4" d="M151.46 206.47L201.98 208.04" stroke="#724494" stroke-width="0.48"/>
<path id="Vector_147" opacity="0.5" d="M227.78 167.44C228.25 167.44 228.63 167.82 228.63 168.29C228.63 168.76 228.25 169.14 227.78 169.14C227.31 169.14 226.93 168.76 226.93 168.29C226.93 167.82 227.31 167.44 227.78 167.44Z" fill="#A97BB5"/>
<path id="Vector_148" opacity="0.5" d="M99.6697 136.84C99.7997 136.84 99.9097 136.95 99.9097 137.08C99.9097 137.21 99.7997 137.32 99.6697 137.32C99.5397 137.32 99.4297 137.21 99.4297 137.08C99.4297 136.95 99.5397 136.84 99.6697 136.84Z" fill="#A97BB5"/>
<path id="Vector_149" opacity="0.5" d="M148.659 70.98C149.952 70.98 150.999 69.9324 150.999 68.64C150.999 67.3477 149.952 66.3 148.659 66.3C147.367 66.3 146.319 67.3477 146.319 68.64C146.319 69.9324 147.367 70.98 148.659 70.98Z" fill="#A97BB5"/>
<path id="Vector_150" opacity="0.5" d="M162.079 161.83C162.589 161.83 163.009 162.25 163.009 162.76C163.009 163.27 162.589 163.69 162.079 163.69C161.569 163.69 161.149 163.27 161.149 162.76C161.149 162.25 161.569 161.83 162.079 161.83Z" fill="#A97BB5"/>
<path id="Vector_151" opacity="0.5" d="M198.9 234.94C199.645 234.94 200.25 234.336 200.25 233.59C200.25 232.844 199.645 232.24 198.9 232.24C198.154 232.24 197.55 232.844 197.55 233.59C197.55 234.336 198.154 234.94 198.9 234.94Z" fill="#A97BB5"/>
<path id="Vector_152" opacity="0.5" d="M179.76 242.12C181.279 242.12 182.51 240.889 182.51 239.37C182.51 237.851 181.279 236.62 179.76 236.62C178.241 236.62 177.01 237.851 177.01 239.37C177.01 240.889 178.241 242.12 179.76 242.12Z" fill="#A97BB5"/>
<path id="Vector_153" opacity="0.5" d="M242.599 174.64C243.328 174.64 243.919 174.049 243.919 173.32C243.919 172.591 243.328 172 242.599 172C241.87 172 241.279 172.591 241.279 173.32C241.279 174.049 241.87 174.64 242.599 174.64Z" fill="#A97BB5"/>
<path id="Vector_154" opacity="0.5" d="M198.17 95.77C199.081 95.77 199.82 95.0312 199.82 94.12C199.82 93.2087 199.081 92.47 198.17 92.47C197.258 92.47 196.52 93.2087 196.52 94.12C196.52 95.0312 197.258 95.77 198.17 95.77Z" fill="#A97BB5"/>
<path id="Vector_155" opacity="0.5" d="M245.93 171.38C246.39 171.38 246.76 171.75 246.76 172.21C246.76 172.67 246.39 173.04 245.93 173.04C245.47 173.04 245.1 172.67 245.1 172.21C245.1 171.75 245.47 171.38 245.93 171.38Z" fill="#A97BB5"/>
<path id="Vector_156" opacity="0.5" d="M231.02 49.6999C231.732 49.6999 232.309 49.1223 232.309 48.4099C232.309 47.6974 231.732 47.1199 231.02 47.1199C230.307 47.1199 229.729 47.6974 229.729 48.4099C229.729 49.1223 230.307 49.6999 231.02 49.6999Z" fill="#A97BB5"/>
<path id="Vector_157" opacity="0.5" d="M204.33 194.28C205.25 194.28 205.99 195.02 205.99 195.94C205.99 196.86 205.25 197.6 204.33 197.6C203.41 197.6 202.67 196.86 202.67 195.94C202.67 195.02 203.41 194.28 204.33 194.28Z" fill="#A97BB5"/>
<path id="Vector_158" opacity="0.5" d="M257.46 89.28C258.36 89.28 259.09 90.01 259.09 90.91C259.09 91.81 258.36 92.54 257.46 92.54C256.56 92.54 255.83 91.81 255.83 90.91C255.83 90.01 256.56 89.28 257.46 89.28Z" fill="#A97BB5"/>
<path id="Vector_159" opacity="0.5" d="M37.7497 179.21C38.4597 179.21 39.0297 179.78 39.0297 180.49C39.0297 181.2 38.4597 181.77 37.7497 181.77C37.0397 181.77 36.4697 181.2 36.4697 180.49C36.4697 179.78 37.0397 179.21 37.7497 179.21Z" fill="#A97BB5"/>
<path id="Vector_160" opacity="0.5" d="M240.37 73.46C241.11 73.46 241.7 74.06 241.7 74.79C241.7 75.52 241.1 76.12 240.37 76.12C239.64 76.12 239.04 75.52 239.04 74.79C239.04 74.06 239.64 73.46 240.37 73.46Z" fill="#A97BB5"/>
<path id="Vector_161" opacity="0.5" d="M62.3398 62.71C63.1698 62.71 63.8398 63.38 63.8398 64.21C63.8398 65.04 63.1698 65.71 62.3398 65.71C61.5098 65.71 60.8398 65.04 60.8398 64.21C60.8398 63.38 61.5098 62.71 62.3398 62.71Z" fill="#A97BB5"/>
<path id="Vector_162" opacity="0.5" d="M87.4392 242.49C88.1492 242.49 88.7192 243.06 88.7192 243.77C88.7192 244.48 88.1492 245.05 87.4392 245.05C86.7292 245.05 86.1592 244.48 86.1592 243.77C86.1592 243.06 86.7292 242.49 87.4392 242.49Z" fill="#A97BB5"/>
<path id="Vector_163" opacity="0.5" d="M117.73 112.72C118.68 112.72 119.44 113.49 119.44 114.43C119.44 115.37 118.67 116.14 117.73 116.14C116.79 116.14 116.02 115.37 116.02 114.43C116.02 113.49 116.79 112.72 117.73 112.72Z" fill="#A97BB5"/>
<path id="Vector_164" opacity="0.5" d="M135.75 242.07C136.74 242.07 137.54 242.87 137.54 243.86C137.54 244.85 136.74 245.65 135.75 245.65C134.76 245.65 133.96 244.85 133.96 243.86C133.96 242.87 134.76 242.07 135.75 242.07Z" fill="#A97BB5"/>
<path id="Vector_165" opacity="0.5" d="M128.93 75.2C129.71 75.2 130.34 75.83 130.34 76.61C130.34 77.39 129.71 78.02 128.93 78.02C128.15 78.02 127.52 77.39 127.52 76.61C127.52 75.83 128.15 75.2 128.93 75.2Z" fill="#A97BB5"/>
<path id="Vector_166" opacity="0.5" d="M219.419 56.47C220.009 56.47 220.479 56.94 220.479 57.53C220.479 58.12 220.009 58.59 219.419 58.59C218.829 58.59 218.359 58.12 218.359 57.53C218.359 56.94 218.829 56.47 219.419 56.47Z" fill="#A97BB5"/>
<path id="Vector_167" opacity="0.5" d="M177.55 57.47C178.07 57.47 178.48 57.89 178.48 58.4C178.48 58.91 178.06 59.34 177.55 59.34C177.04 59.34 176.62 58.92 176.62 58.4C176.62 57.88 177.04 57.47 177.55 57.47Z" fill="#A97BB5"/>
<path id="Vector_168" opacity="0.5" d="M241.56 138.31C242.516 138.31 243.29 137.536 243.29 136.58C243.29 135.625 242.516 134.85 241.56 134.85C240.605 134.85 239.83 135.625 239.83 136.58C239.83 137.536 240.605 138.31 241.56 138.31Z" fill="#A97BB5"/>
<path id="Vector_169" opacity="0.5" d="M152.84 94.0299C153.21 94.0299 153.51 93.73 153.51 93.3599C153.51 92.9899 153.21 92.6899 152.84 92.6899C152.47 92.6899 152.17 92.9899 152.17 93.3599C152.17 93.73 152.47 94.0299 152.84 94.0299Z" fill="#A97BB5"/>
<path id="Vector_170" opacity="0.5" d="M87.0497 133.03C87.9497 133.03 88.6697 133.76 88.6697 134.65C88.6697 135.54 87.9397 136.27 87.0497 136.27C86.1597 136.27 85.4297 135.54 85.4297 134.65C85.4297 133.76 86.1597 133.03 87.0497 133.03Z" fill="#A97BB5"/>
<path id="Vector_171" opacity="0.5" d="M274.209 136.69C274.889 136.69 275.429 137.24 275.429 137.91C275.429 138.58 274.879 139.13 274.209 139.13C273.539 139.13 272.989 138.58 272.989 137.91C272.989 137.24 273.539 136.69 274.209 136.69Z" fill="#A97BB5"/>
<path id="Vector_172" opacity="0.5" d="M124.35 138.47C124.676 138.47 124.94 138.206 124.94 137.88C124.94 137.554 124.676 137.29 124.35 137.29C124.024 137.29 123.76 137.554 123.76 137.88C123.76 138.206 124.024 138.47 124.35 138.47Z" fill="#A97BB5"/>
<path id="Vector_173" opacity="0.5" d="M76.85 174.48C77.5735 174.48 78.16 173.893 78.16 173.17C78.16 172.446 77.5735 171.86 76.85 171.86C76.1265 171.86 75.54 172.446 75.54 173.17C75.54 173.893 76.1265 174.48 76.85 174.48Z" fill="#A97BB5"/>
<path id="Vector_174" opacity="0.5" d="M227.279 213.48C227.876 213.48 228.359 212.997 228.359 212.4C228.359 211.804 227.876 211.32 227.279 211.32C226.683 211.32 226.199 211.804 226.199 212.4C226.199 212.997 226.683 213.48 227.279 213.48Z" fill="#A97BB5"/>
<path id="Vector_175" opacity="0.5" d="M103.6 138.98C104.03 138.98 104.39 139.33 104.39 139.77C104.39 140.21 104.04 140.56 103.6 140.56C103.16 140.56 102.81 140.21 102.81 139.77C102.81 139.33 103.16 138.98 103.6 138.98Z" fill="#A97BB5"/>
<path id="Vector_176" opacity="0.5" d="M200.509 23.35C200.818 23.35 201.069 23.0993 201.069 22.79C201.069 22.4807 200.818 22.23 200.509 22.23C200.2 22.23 199.949 22.4807 199.949 22.79C199.949 23.0993 200.2 23.35 200.509 23.35Z" fill="#A97BB5"/>
<path id="Vector_177" opacity="0.5" d="M120.709 157.92C121.249 157.92 121.689 158.36 121.689 158.9C121.689 159.44 121.249 159.88 120.709 159.88C120.169 159.88 119.729 159.44 119.729 158.9C119.729 158.36 120.169 157.92 120.709 157.92Z" fill="#A97BB5"/>
<path id="Vector_178" d="M292.854 171.183C293.818 170.218 293.818 168.654 292.854 167.69C291.889 166.725 290.325 166.725 289.361 167.69C288.396 168.654 288.396 170.218 289.361 171.183C290.325 172.147 291.889 172.147 292.854 171.183Z" fill="#724494"/>
</g>
<g id="Group_2">
<path id="Vector_179" d="M156.602 99.4438L153.872 99.969L163.704 151.072L166.434 150.547L156.602 99.4438Z" fill="#724494"/>
<g id="Group_3">
<path id="Vector_180" d="M236.351 117.15C232.011 114.68 224.981 118.74 220.641 126.22C216.301 133.7 216.301 141.77 220.641 144.25L228.791 148.96L244.501 121.87L236.351 117.16V117.15Z" fill="url(#paint0_linear_1902_25154)"/>
<path id="Vector_181" d="M244.457 139.969C248.822 132.503 248.866 124.407 244.556 121.888C240.246 119.368 233.213 123.378 228.849 130.845C224.484 138.311 224.439 146.407 228.75 148.926C233.06 151.446 240.092 147.436 244.457 139.969Z" fill="#F6F7FC"/>
<path id="Vector_182" d="M243.731 123.07C247.631 125.15 247.631 132.36 243.731 139.18C239.821 145.99 233.491 149.83 229.591 147.74C225.691 145.65 225.691 138.45 229.591 131.63C233.501 124.82 239.831 120.98 243.731 123.07Z" fill="#E1D3E9"/>
</g>
<path id="Vector_183" d="M111.207 145.506L110.703 148.24L161.882 157.67L162.385 154.936L111.207 145.506Z" fill="#724494"/>
<path id="Vector_184" d="M222.66 138.52C222.17 137.93 221.49 137.69 221.15 137.97L202.78 153.47L204.57 155.59L222.93 140.1C223.27 139.81 223.15 139.11 222.65 138.52H222.66Z" fill="#724494"/>
<path id="Vector_185" d="M197.01 138.26L182.79 130C187.26 132.6 190.03 138.12 190.05 145.96C190.09 161.75 178.99 180.98 165.25 188.91C158.34 192.9 152.07 193.27 147.55 190.64L161.77 198.9C166.29 201.53 172.56 201.16 179.47 197.17C193.21 189.24 204.31 170.01 204.27 154.22C204.25 146.37 201.48 140.85 197.01 138.26Z" fill="url(#paint1_linear_1902_25154)"/>
<path id="Vector_186" d="M178.3 196.49C192.04 188.56 203.14 169.33 203.1 153.54C203.06 137.75 191.88 131.38 178.14 139.31C164.4 147.24 153.3 166.48 153.34 182.27C153.38 198.06 164.56 204.43 178.3 196.49Z" fill="#E1D3E9"/>
<path id="Vector_187" d="M178.3 196.49C192.04 188.56 203.14 169.33 203.1 153.54C203.07 141.8 196.88 135.28 188.07 135.95C189.34 138.64 190.05 142 190.06 145.95C190.1 161.74 179 180.97 165.26 188.9C161.73 190.94 158.38 192.03 155.33 192.26C156.58 194.92 158.38 196.93 160.6 198.22L160.75 198.31C165.26 200.85 171.46 200.44 178.31 196.49H178.3Z" fill="#CEABE3"/>
<g id="Group_4">
<path id="Vector_188" d="M153 192.38C153 191.27 153 186.13 153.03 185.06C153.23 178.66 154.75 172.91 166.24 167.35C187.38 156.04 187.38 173.79 187.38 180.77C187.38 187.75 187.38 186.65 187.38 186.65C187.38 187.77 186.91 188.89 185.95 189.92C181.88 194.29 179.51 196.65 171.95 199C167.24 200.46 160.38 199.57 156.62 197.4L156.55 197.36C154.21 196.01 152.99 194.2 153 192.38Z" fill="url(#paint2_linear_1902_25154)"/>
<path id="Vector_189" d="M176.9 172.66V174.34L174.65 177.68C174.65 177.68 167.82 178.42 163.34 175.28C158.86 172.14 164.64 165.36 164.64 165.36L176.9 172.65V172.66Z" fill="#FDEFF6"/>
<path id="Vector_190" d="M176.39 170.26L176.9 172.65V174.33L180.33 175.42C180.33 175.42 185.6 170.65 180.45 163.07C175.55 165.04 176.39 170.25 176.39 170.25V170.26Z" fill="#FDEFF6"/>
<path id="Vector_191" d="M170.04 170.7C171.81 170.15 173.23 169.33 174.18 168.31C174.77 167.68 174.56 166.89 173.69 166.39H173.67C172.79 165.87 171.44 165.76 170.34 166.1C168.57 166.65 167.15 167.47 166.2 168.49C165.61 169.12 165.82 169.9 166.69 170.41H166.71C167.59 170.93 168.94 171.04 170.04 170.7Z" fill="url(#paint3_linear_1902_25154)"/>
<g id="Group_5">
<path id="Vector_192" d="M171.51 173.84C178.569 173.84 184.29 168.118 184.29 161.06C184.29 154.002 178.569 148.28 171.51 148.28C164.452 148.28 158.73 154.002 158.73 161.06C158.73 168.118 164.452 173.84 171.51 173.84Z" fill="url(#paint4_linear_1902_25154)"/>
<path id="Vector_193" d="M172.29 144.74C179.24 146.25 181.32 142.4 181.32 142.4C181.32 142.4 182.7 147.23 178.09 147.86C173.47 148.49 172.29 144.74 172.29 144.74Z" fill="#363538"/>
<path id="Vector_194" d="M176.78 146.02C181.4 148.09 186.62 144.82 186.62 144.82C188.71 150.21 183.18 155.84 183.18 155.84C183.18 155.84 179.8 160.34 171.15 160.29C168.86 161.74 168.85 165.01 169.17 167.26C169.29 168.12 168.35 168.73 167.62 168.25L166.52 167.53C166.52 167.53 166.78 163.48 164.93 162.83C162.49 161.98 161.33 165.46 163.81 169.13C164.51 171.75 164.17 171.52 164.17 171.52C164.17 171.52 155.36 166.1 155.36 157.57C155.36 149.04 164.49 141.07 176.77 146.01L176.78 146.02Z" fill="#4E4D51"/>
<path id="Vector_195" d="M162.7 163.8C157.73 163.21 154.87 159.15 155.99 153.76C155.59 154.99 155.37 156.28 155.37 157.58C155.37 166.11 164.18 171.53 164.18 171.53C164.18 171.53 164.52 171.76 163.82 169.14C162.39 167.04 162.17 165 162.7 163.8Z" fill="#363538"/>
<path id="Vector_196" d="M183.18 155.84C183.18 155.84 179.8 160.34 171.15 160.29C168.86 161.74 168.85 165.01 169.17 167.26C169.23 167.71 169 168.09 168.66 168.29C167.85 166.35 167.78 164.05 167.95 162.14C168.12 160.18 169.73 158.67 171.7 158.58C173.53 158.5 175.46 158.62 179 156.8C186.51 152.96 186.61 144.82 186.61 144.82C188.7 150.21 183.17 155.84 183.17 155.84H183.18Z" fill="#363538"/>
</g>
<path id="Vector_197" d="M161.93 149.14C162.29 150.08 163.99 150.3 165.72 149.63C167.45 148.97 168.56 147.67 168.2 146.73C167.84 145.79 166.14 145.57 164.41 146.24C162.68 146.9 161.57 148.2 161.93 149.14Z" fill="#767677"/>
</g>
<g id="Group_6">
<path id="Vector_198" d="M154 81.23C149.89 78.89 143.22 82.73 139.11 89.83C135 96.92 135 104.58 139.11 106.92L146.84 111.38L161.73 85.69L154 81.23Z" fill="url(#paint5_linear_1902_25154)"/>
<path id="Vector_199" d="M161.68 102.865C165.819 95.7846 165.862 88.1084 161.776 85.7198C157.69 83.3311 151.022 87.1344 146.883 94.2148C142.744 101.295 142.701 108.971 146.787 111.36C150.873 113.749 157.541 109.945 161.68 102.865Z" fill="#F6F7FC"/>
<path id="Vector_200" d="M160.99 86.8499C164.69 88.8199 164.69 95.6599 160.99 102.12C157.29 108.58 151.28 112.22 147.58 110.24C143.88 108.26 143.88 101.43 147.58 94.9699C151.28 88.5099 157.29 84.8699 160.99 86.8499Z" fill="#E1D3E9"/>
</g>
<path id="Vector_201" d="M140.17 101.38C139.68 100.79 139.01 100.54 138.66 100.81L120.13 116.11L121.9 118.25L140.42 102.95C140.76 102.67 140.65 101.96 140.16 101.37L140.17 101.38Z" fill="#724494"/>
<g id="Group_7">
<path id="Vector_202" d="M125.45 118.87L117.44 114.25C109.81 109.9 97.4502 117.04 89.8202 130.19C82.1902 143.34 82.1902 157.53 89.8202 161.88L97.8302 166.5L100.44 162C106.44 159.67 112.81 153.91 117.44 145.93C122.07 137.95 123.88 129.59 122.89 123.28L125.45 118.87Z" fill="url(#paint6_linear_1902_25154)"/>
<path id="Vector_203" d="M125.45 118.87C133.08 123.22 133.08 137.41 125.45 150.56C117.82 163.71 105.46 170.85 97.8299 166.5C90.1999 162.15 90.1999 147.96 97.8299 134.81C105.46 121.66 117.82 114.52 125.45 118.87Z" fill="#F6F7FC"/>
<path id="Vector_204" d="M124.25 120.93C131.22 124.9 131.22 137.87 124.25 149.89C117.28 161.91 105.98 168.43 99.0205 164.46C92.0505 160.49 92.0505 147.52 99.0205 135.5C105.99 123.48 117.29 116.96 124.25 120.93Z" fill="#E1D3E9"/>
</g>
<path id="Vector_205" d="M179.29 133.07C196.36 123.22 210.24 131.13 210.29 150.74C210.35 170.35 196.56 194.24 179.49 204.09C162.42 213.94 148.54 206.03 148.49 186.42C148.44 166.81 162.22 142.92 179.29 133.07ZM179.47 197.17C193.21 189.24 204.31 170.01 204.27 154.22C204.23 138.43 193.05 132.06 179.31 139.99C165.57 147.92 154.47 167.16 154.51 182.95C154.55 198.74 165.73 205.11 179.47 197.17Z" fill="#9B72D0"/>
<path id="Vector_206" d="M187.061 122.66C181.441 119.39 173.661 119.85 165.071 124.81C148.001 134.66 134.211 158.55 134.271 178.16C134.301 187.9 137.741 194.76 143.281 197.98L157.501 206.24C151.951 203.02 148.511 196.16 148.491 186.42C148.431 166.81 162.221 142.92 179.291 133.07C187.881 128.11 195.661 127.65 201.281 130.92L187.061 122.66Z" fill="url(#paint7_linear_1902_25154)"/>
<g id="Group_8">
<path id="Vector_207" d="M140.6 180.17C139.1 179.33 137.74 179.27 136.76 179.84L122.16 188.32C123.14 187.75 124.5 187.81 126 188.65C129.06 190.35 131.57 194.61 131.62 198.16C131.64 199.96 131.02 201.23 130 201.82L144.6 193.34C145.62 192.75 146.24 191.48 146.22 189.68C146.18 186.13 143.66 181.88 140.6 180.17Z" fill="url(#paint8_linear_1902_25154)"/>
<path id="Vector_208" d="M130.111 201.76C117.771 209.73 105.441 217.71 93.1006 225.68C94.3106 224.9 95.0406 223.32 95.0106 221.12L131.621 198.16C131.641 199.9 131.061 201.14 130.111 201.76Z" fill="#DD872A"/>
<path id="Vector_209" d="M82.9407 221.37C82.9407 222.06 82.4707 222.35 81.8707 222.02C81.2707 221.69 80.7807 220.86 80.7707 220.16C80.7607 219.46 81.2407 219.18 81.8407 219.51C82.4407 219.84 82.9307 220.67 82.9407 221.37Z" fill="#CB7A2A"/>
<path id="Vector_210" d="M87.8903 209.07C86.0603 208.05 84.3903 207.93 83.1603 208.57C80.0303 210.21 78.9703 212.98 78.6603 214.09C78.4703 214.78 78.2803 215.66 78.3003 216.94C78.3003 217.28 78.3603 218.51 78.7703 219.77C79.1003 220.78 79.5303 221.69 80.0503 222.47C80.1903 222.68 80.5303 223.18 80.9703 223.68C81.5803 224.36 82.0603 224.76 82.1503 224.83C82.5603 225.16 83.4103 225.84 84.6203 226.35C85.5903 226.76 86.5503 227 87.4903 227.07C87.8703 227.1 89.0203 227.19 90.3203 226.86C90.9003 226.72 91.2203 226.62 91.8303 226.35C92.2303 226.18 92.7303 225.89 93.1003 225.67C94.3103 224.89 95.0403 223.31 95.0103 221.11C94.9603 216.62 91.7703 211.22 87.8903 209.06V209.07ZM81.8703 222.02C81.2703 221.69 80.7803 220.86 80.7703 220.16C80.7703 219.47 81.2403 219.18 81.8403 219.51C82.4403 219.84 82.9303 220.67 82.9403 221.37C82.9403 222.06 82.4703 222.35 81.8703 222.02Z" fill="url(#paint9_linear_1902_25154)"/>
<path id="Vector_211" d="M83.1604 208.57C96.1904 201.8 109.23 195.03 122.26 188.26C123.23 187.75 124.55 187.84 125.99 188.65C129.05 190.35 131.56 194.61 131.61 198.16L95.0004 221.12C94.9504 216.63 91.7604 211.23 87.8804 209.07C86.0404 208.05 84.3804 207.93 83.1504 208.57H83.1604Z" fill="url(#paint10_linear_1902_25154)"/>
</g>
</g>
</g>
<defs>
<linearGradient id="paint0_linear_1902_25154" x1="217.391" y1="132.69" x2="244.511" y2="132.69" gradientUnits="userSpaceOnUse">
<stop stop-color="#724494"/>
<stop offset="0.23" stop-color="#905FA4"/>
<stop offset="0.56" stop-color="#B581B7"/>
<stop offset="0.83" stop-color="#CC96C3"/>
<stop offset="1" stop-color="#D59EC8"/>
</linearGradient>
<linearGradient id="paint1_linear_1902_25154" x1="163.49" y1="199.9" x2="198.59" y2="139.11" gradientUnits="userSpaceOnUse">
<stop offset="0.07" stop-color="#C8A0E1"/>
<stop offset="0.59" stop-color="#784AB1"/>
<stop offset="0.87" stop-color="#613A7D"/>
</linearGradient>
<linearGradient id="paint2_linear_1902_25154" x1="153" y1="181.7" x2="187.38" y2="181.7" gradientUnits="userSpaceOnUse">
<stop offset="0.0859998" stop-color="#B77EFF"/>
<stop offset="0.63" stop-color="#E2CDFE"/>
<stop offset="1" stop-color="#E9DBFB"/>
</linearGradient>
<linearGradient id="paint3_linear_1902_25154" x1="-2425.27" y1="1669.54" x2="-2431.54" y2="1667.49" gradientUnits="userSpaceOnUse">
<stop stop-color="#9C1915"/>
<stop offset="0.85" stop-color="#C54330"/>
<stop offset="1" stop-color="#CD4B36"/>
</linearGradient>
<linearGradient id="paint4_linear_1902_25154" x1="165.12" y1="172.14" x2="177.9" y2="149.99" gradientUnits="userSpaceOnUse">
<stop offset="0.07" stop-color="#F49E69"/>
<stop offset="0.26" stop-color="#F5A56E"/>
<stop offset="0.55" stop-color="#F8BB7D"/>
<stop offset="0.86" stop-color="#FED992"/>
</linearGradient>
<linearGradient id="paint5_linear_1902_25154" x1="136.02" y1="95.97" x2="161.73" y2="95.97" gradientUnits="userSpaceOnUse">
<stop stop-color="#724494"/>
<stop offset="0.23" stop-color="#905FA4"/>
<stop offset="0.56" stop-color="#B581B7"/>
<stop offset="0.83" stop-color="#CC96C3"/>
<stop offset="1" stop-color="#D59EC8"/>
</linearGradient>
<linearGradient id="paint6_linear_1902_25154" x1="89.8602" y1="161.9" x2="117.39" y2="114.22" gradientUnits="userSpaceOnUse">
<stop stop-color="#724494"/>
<stop offset="0.23" stop-color="#905FA4"/>
<stop offset="0.56" stop-color="#B581B7"/>
<stop offset="0.83" stop-color="#CC96C3"/>
<stop offset="1" stop-color="#D59EC8"/>
</linearGradient>
<linearGradient id="paint7_linear_1902_25154" x1="139.621" y1="195.92" x2="183.201" y2="120.43" gradientUnits="userSpaceOnUse">
<stop stop-color="#5F397A"/>
<stop offset="0.5" stop-color="#7A4CB6"/>
<stop offset="0.966" stop-color="#9062CD"/>
</linearGradient>
<linearGradient id="paint8_linear_1902_25154" x1="139.24" y1="196.49" x2="131.41" y2="182.92" gradientUnits="userSpaceOnUse">
<stop offset="0.0309998" stop-color="#724494"/>
<stop offset="0.306" stop-color="#A072CD"/>
<stop offset="0.56" stop-color="#B78EE1"/>
<stop offset="1" stop-color="#C8A0E0"/>
</linearGradient>
<linearGradient id="paint9_linear_1902_25154" x1="84.8803" y1="226.57" x2="88.9403" y2="208.99" gradientUnits="userSpaceOnUse">
<stop stop-color="#BA6E2A"/>
<stop offset="0.49" stop-color="#DD872A"/>
<stop offset="0.98" stop-color="#F9B64C"/>
</linearGradient>
<linearGradient id="paint10_linear_1902_25154" x1="112.53" y1="211" x2="104.13" y2="196.46" gradientUnits="userSpaceOnUse">
<stop offset="0.12" stop-color="#DD872A"/>
<stop offset="0.33" stop-color="#E89A37"/>
<stop offset="0.69" stop-color="#F9B64C"/>
</linearGradient>
<clipPath id="clip0_1902_25154">
<rect width="320" height="320" fill="white"/>
</clipPath>
</defs>
</svg>
