<svg width="320" height="320" viewBox="0 0 320 320" fill="none" xmlns="http://www.w3.org/2000/svg">
<g id="pic">
<g id="Group">
<g id="a">
<g id="Group_2">
<path id="Vector" d="M220.531 191.96C221.923 191.96 223.051 190.832 223.051 189.44C223.051 188.048 221.923 186.92 220.531 186.92C219.139 186.92 218.011 188.048 218.011 189.44C218.011 190.832 219.139 191.96 220.531 191.96Z" fill="#724494"/>
<path id="Vector_2" d="M268.59 222.42C269.728 222.42 270.65 221.498 270.65 220.36C270.65 219.222 269.728 218.3 268.59 218.3C267.453 218.3 266.53 219.222 266.53 220.36C266.53 221.498 267.453 222.42 268.59 222.42Z" fill="#724494"/>
<path id="Vector_3" d="M188.881 165.69C189.891 165.69 190.711 164.871 190.711 163.86C190.711 162.849 189.891 162.03 188.881 162.03C187.87 162.03 187.051 162.849 187.051 163.86C187.051 164.871 187.87 165.69 188.881 165.69Z" fill="#724494"/>
<path id="Vector_4" d="M244.171 238.42C245.822 238.42 247.161 237.081 247.161 235.43C247.161 233.779 245.822 232.44 244.171 232.44C242.519 232.44 241.181 233.779 241.181 235.43C241.181 237.081 242.519 238.42 244.171 238.42Z" fill="#724494"/>
<path id="Vector_5" d="M85.5207 204.91C86.6308 204.91 87.5307 204.01 87.5307 202.9C87.5307 201.79 86.6308 200.89 85.5207 200.89C84.4106 200.89 83.5107 201.79 83.5107 202.9C83.5107 204.01 84.4106 204.91 85.5207 204.91Z" fill="#724494"/>
<path id="Vector_6" d="M101.49 190.18C102.733 190.18 103.74 189.173 103.74 187.93C103.74 186.687 102.733 185.68 101.49 185.68C100.248 185.68 99.2402 186.687 99.2402 187.93C99.2402 189.173 100.248 190.18 101.49 190.18Z" fill="#724494"/>
<path id="Vector_7" d="M239.271 250.94C240.151 250.94 240.861 251.65 240.861 252.53C240.861 253.41 240.151 254.12 239.271 254.12C238.391 254.12 237.681 253.41 237.681 252.53C237.681 251.65 238.391 250.94 239.271 250.94Z" fill="#724494"/>
<path id="Vector_8" d="M216.561 215.82C217.969 215.82 219.111 214.678 219.111 213.27C219.111 211.862 217.969 210.72 216.561 210.72C215.152 210.72 214.011 211.862 214.011 213.27C214.011 214.678 215.152 215.82 216.561 215.82Z" fill="#724494"/>
<path id="Vector_9" d="M180.09 187.7C181.55 187.7 182.73 188.88 182.73 190.34C182.73 191.8 181.55 192.98 180.09 192.98C178.63 192.98 177.45 191.8 177.45 190.34C177.45 188.88 178.63 187.7 180.09 187.7Z" fill="#724494"/>
<path id="Vector_10" d="M26.5604 176.8C28.0295 176.8 29.2204 175.609 29.2204 174.14C29.2204 172.671 28.0295 171.48 26.5604 171.48C25.0913 171.48 23.9004 172.671 23.9004 174.14C23.9004 175.609 25.0913 176.8 26.5604 176.8Z" fill="#724494"/>
<path id="Vector_11" d="M149.87 144.75C151.97 144.75 153.66 146.45 153.66 148.54C153.66 150.63 151.96 152.33 149.87 152.33C147.78 152.33 146.08 150.63 146.08 148.54C146.08 146.45 147.78 144.75 149.87 144.75Z" fill="#724494"/>
<path id="Vector_12" d="M167.67 127.55C169.04 127.55 170.15 128.66 170.15 130.03C170.15 131.4 169.04 132.51 167.67 132.51C166.3 132.51 165.19 131.4 165.19 130.03C165.19 128.66 166.3 127.55 167.67 127.55Z" fill="#724494"/>
<path id="Vector_13" d="M212.74 171.78C213.663 171.78 214.41 171.032 214.41 170.11C214.41 169.188 213.663 168.44 212.74 168.44C211.818 168.44 211.07 169.188 211.07 170.11C211.07 171.032 211.818 171.78 212.74 171.78Z" fill="#724494"/>
<path id="Vector_14" d="M165.09 185.69C166.41 185.69 167.48 186.76 167.48 188.08C167.48 189.4 166.41 190.47 165.09 190.47C163.77 190.47 162.7 189.4 162.7 188.08C162.7 186.76 163.77 185.69 165.09 185.69Z" fill="#724494"/>
<path id="Vector_15" d="M119.23 145.05C120.992 145.05 122.42 143.622 122.42 141.86C122.42 140.098 120.992 138.67 119.23 138.67C117.468 138.67 116.04 140.098 116.04 141.86C116.04 143.622 117.468 145.05 119.23 145.05Z" fill="#724494"/>
<path id="Vector_16" d="M185.49 199.52C186.02 199.52 186.45 199.95 186.45 200.48C186.45 201.01 186.02 201.44 185.49 201.44C184.96 201.44 184.53 201.01 184.53 200.48C184.53 199.95 184.96 199.52 185.49 199.52Z" fill="#724494"/>
<path id="Vector_17" d="M109.74 206.71C110.76 206.71 111.58 207.53 111.58 208.55C111.58 209.57 110.76 210.39 109.74 210.39C108.72 210.39 107.9 209.57 107.9 208.55C107.9 207.53 108.72 206.71 109.74 206.71Z" fill="#724494"/>
<path id="Vector_18" d="M230.62 171.66C231.67 171.66 232.53 172.51 232.53 173.57C232.53 174.63 231.68 175.48 230.62 175.48C229.56 175.48 228.71 174.63 228.71 173.57C228.71 172.52 229.56 171.66 230.62 171.66Z" fill="#724494"/>
<path id="Vector_19" d="M139.659 208.07C140.292 207.437 140.285 206.405 139.645 205.765C139.005 205.124 137.972 205.118 137.34 205.75C136.707 206.383 136.714 207.415 137.354 208.056C137.994 208.696 139.027 208.702 139.659 208.07Z" fill="#724494"/>
<path id="Vector_20" d="M45.7104 184.28C47.6986 184.28 49.3104 182.668 49.3104 180.68C49.3104 178.692 47.6986 177.08 45.7104 177.08C43.7221 177.08 42.1104 178.692 42.1104 180.68C42.1104 182.668 43.7221 184.28 45.7104 184.28Z" fill="#724494"/>
<path id="Vector_21" d="M213.37 143.43C214.89 143.43 216.12 144.66 216.12 146.18C216.12 147.7 214.89 148.93 213.37 148.93C211.85 148.93 210.62 147.7 210.62 146.18C210.62 144.66 211.85 143.43 213.37 143.43Z" fill="#724494"/>
<path id="Vector_22" d="M244.671 132.04C245.721 132.04 246.571 132.89 246.571 133.94C246.571 134.99 245.721 135.84 244.671 135.84C243.621 135.84 242.771 134.99 242.771 133.94C242.771 132.89 243.621 132.04 244.671 132.04Z" fill="#724494"/>
<path id="Vector_23" d="M142.283 119.266C142.464 118.154 141.709 117.106 140.597 116.925C139.485 116.744 138.437 117.499 138.256 118.611C138.075 119.723 138.83 120.771 139.942 120.952C141.054 121.133 142.102 120.378 142.283 119.266Z" fill="#724494"/>
<path id="Vector_24" d="M84.7596 235.716C86.1843 235.695 87.3218 234.522 87.3001 233.098C87.2785 231.673 86.106 230.535 84.6813 230.557C83.2565 230.579 82.1191 231.751 82.1407 233.176C82.1624 234.601 83.3349 235.738 84.7596 235.716Z" fill="#724494"/>
<path id="Vector_25" d="M64.0305 154.55C66.2705 154.55 68.0805 156.36 68.0805 158.6C68.0805 160.84 66.2705 162.65 64.0305 162.65C61.7905 162.65 59.9805 160.84 59.9805 158.6C59.9805 156.36 61.7905 154.55 64.0305 154.55Z" fill="#724494"/>
<path id="Vector_26" d="M182.49 145.53C184.351 145.53 185.86 144.021 185.86 142.16C185.86 140.299 184.351 138.79 182.49 138.79C180.629 138.79 179.12 140.299 179.12 142.16C179.12 144.021 180.629 145.53 182.49 145.53Z" fill="#724494"/>
<path id="Vector_27" d="M117.33 93.8999C118.48 93.8999 119.42 94.8299 119.42 95.9899C119.42 97.1399 118.49 98.0799 117.33 98.0799C116.17 98.0799 115.24 97.1499 115.24 95.9899C115.24 94.8399 116.17 93.8999 117.33 93.8999Z" fill="#724494"/>
<path id="Vector_28" d="M227.37 118.8C228.75 118.8 229.87 119.92 229.87 121.3C229.87 122.68 228.75 123.8 227.37 123.8C225.99 123.8 224.87 122.68 224.87 121.3C224.87 119.92 225.99 118.8 227.37 118.8Z" fill="#724494"/>
<path id="Vector_29" d="M178.821 222.3C180.121 222.3 181.171 223.35 181.171 224.65C181.171 225.95 180.121 227 178.821 227C177.521 227 176.471 225.95 176.471 224.65C176.471 223.35 177.521 222.3 178.821 222.3Z" fill="#724494"/>
<path id="Vector_30" d="M106.351 223.09C107.551 223.09 108.521 224.06 108.521 225.26C108.521 226.46 107.551 227.43 106.351 227.43C105.151 227.43 104.181 226.46 104.181 225.26C104.181 224.06 105.151 223.09 106.351 223.09Z" fill="#724494"/>
<path id="Vector_31" d="M166.53 142.13C168.739 142.13 170.53 140.339 170.53 138.13C170.53 135.921 168.739 134.13 166.53 134.13C164.321 134.13 162.53 135.921 162.53 138.13C162.53 140.339 164.321 142.13 166.53 142.13Z" fill="#724494"/>
<path id="Vector_32" d="M158.291 153.6C160.036 153.6 161.451 152.185 161.451 150.44C161.451 148.695 160.036 147.28 158.291 147.28C156.546 147.28 155.131 148.695 155.131 150.44C155.131 152.185 156.546 153.6 158.291 153.6Z" fill="#724494"/>
<path id="Vector_33" d="M43.4978 151.853C44.8395 151.823 45.9027 150.711 45.8725 149.369C45.8422 148.028 44.7301 146.964 43.3884 146.995C42.0467 147.025 40.9835 148.137 41.0137 149.479C41.0439 150.82 42.1561 151.884 43.4978 151.853Z" fill="#724494"/>
<path id="Vector_34" d="M90.7904 151.44C92.2304 151.44 93.3904 152.6 93.3904 154.04C93.3904 155.48 92.2304 156.64 90.7904 156.64C89.3504 156.64 88.1904 155.48 88.1904 154.04C88.1904 152.6 89.3504 151.44 90.7904 151.44Z" fill="#724494"/>
<path id="Vector_35" d="M166.94 157.89C168.8 157.89 170.31 159.4 170.31 161.26C170.31 163.12 168.8 164.63 166.94 164.63C165.08 164.63 163.57 163.12 163.57 161.26C163.57 159.4 165.08 157.89 166.94 157.89Z" fill="#724494"/>
<path id="Vector_36" d="M142.45 177.76C144.08 177.76 145.4 179.08 145.4 180.71C145.4 182.34 144.08 183.66 142.45 183.66C140.82 183.66 139.5 182.34 139.5 180.71C139.5 179.08 140.82 177.76 142.45 177.76Z" fill="#724494"/>
<path id="Vector_37" d="M246.25 162.9C248.08 162.9 249.56 164.38 249.56 166.21C249.56 168.04 248.08 169.52 246.25 169.52C244.42 169.52 242.94 168.04 242.94 166.21C242.94 164.38 244.42 162.9 246.25 162.9Z" fill="#724494"/>
<path id="Vector_38" d="M250.211 90.9686C251.925 90.2584 252.74 88.2929 252.029 86.5785C251.319 84.8641 249.354 84.0499 247.639 84.7601C245.925 85.4702 245.111 87.4357 245.821 89.1501C246.531 90.8646 248.497 91.6787 250.211 90.9686Z" fill="#724494"/>
<path id="Vector_39" d="M128.03 194.85C129 194.85 129.78 195.64 129.78 196.6C129.78 197.57 128.99 198.35 128.03 198.35C127.07 198.35 126.28 197.56 126.28 196.6C126.28 195.64 127.07 194.85 128.03 194.85Z" fill="#724494"/>
<path id="Vector_40" d="M137.46 215.03C138.43 215.03 139.21 215.82 139.21 216.78C139.21 217.75 138.42 218.53 137.46 218.53C136.5 218.53 135.71 217.74 135.71 216.78C135.71 215.82 136.5 215.03 137.46 215.03Z" fill="#724494"/>
<path id="Vector_41" d="M129.051 179.13C130.891 179.13 132.381 180.62 132.381 182.46C132.381 184.3 130.891 185.79 129.051 185.79C127.211 185.79 125.721 184.3 125.721 182.46C125.721 180.62 127.211 179.13 129.051 179.13Z" fill="#724494"/>
<path id="Vector_42" d="M60.8902 93.5599C62.0997 93.5599 63.0802 92.5794 63.0802 91.3699C63.0802 90.1604 62.0997 89.1799 60.8902 89.1799C59.6807 89.1799 58.7002 90.1604 58.7002 91.3699C58.7002 92.5794 59.6807 93.5599 60.8902 93.5599Z" fill="#724494"/>
<path id="Vector_43" d="M170.49 183.87C172.34 183.87 173.83 185.37 173.83 187.21C173.83 189.05 172.33 190.55 170.49 190.55C168.64 190.55 167.15 189.05 167.15 187.21C167.15 185.36 168.65 183.87 170.49 183.87Z" fill="#724494"/>
<path id="Vector_44" d="M181.43 210.77C182.8 210.77 183.91 211.88 183.91 213.25C183.91 214.62 182.8 215.73 181.43 215.73C180.06 215.73 178.95 214.62 178.95 213.25C178.95 211.88 180.06 210.77 181.43 210.77Z" fill="#724494"/>
<path id="Vector_45" d="M170.31 207.97C171.11 207.97 171.76 208.62 171.76 209.42C171.76 210.22 171.11 210.87 170.31 210.87C169.51 210.87 168.86 210.22 168.86 209.42C168.86 208.62 169.51 207.97 170.31 207.97Z" fill="#724494"/>
<path id="Vector_46" d="M52.8344 96.2259C53.1665 94.8118 52.2895 93.3963 50.8755 93.0641C49.4615 92.7319 48.0459 93.6089 47.7138 95.023C47.3816 96.437 48.2586 97.8525 49.6726 98.1847C51.0866 98.5169 52.5022 97.6399 52.8344 96.2259Z" fill="#724494"/>
<path id="Vector_47" d="M135.39 198.54C136.848 198.54 138.03 197.358 138.03 195.9C138.03 194.442 136.848 193.26 135.39 193.26C133.932 193.26 132.75 194.442 132.75 195.9C132.75 197.358 133.932 198.54 135.39 198.54Z" fill="#724494"/>
<path id="Vector_48" d="M78.7804 127.11C80.371 127.11 81.6604 125.82 81.6604 124.23C81.6604 122.639 80.371 121.35 78.7804 121.35C77.1898 121.35 75.9004 122.639 75.9004 124.23C75.9004 125.82 77.1898 127.11 78.7804 127.11Z" fill="#724494"/>
<path id="Vector_49" d="M253.97 210.43C255.914 210.43 257.49 208.854 257.49 206.91C257.49 204.966 255.914 203.39 253.97 203.39C252.026 203.39 250.45 204.966 250.45 206.91C250.45 208.854 252.026 210.43 253.97 210.43Z" fill="#724494"/>
<path id="Vector_50" d="M110.05 149.59C112.171 149.59 113.89 147.871 113.89 145.75C113.89 143.629 112.171 141.91 110.05 141.91C107.929 141.91 106.21 143.629 106.21 145.75C106.21 147.871 107.929 149.59 110.05 149.59Z" fill="#724494"/>
<path id="Vector_51" d="M183.66 164.15C185.36 164.15 186.74 165.53 186.74 167.23C186.74 168.93 185.36 170.31 183.66 170.31C181.96 170.31 180.58 168.93 180.58 167.23C180.58 165.53 181.96 164.15 183.66 164.15Z" fill="#724494"/>
<path id="Vector_52" d="M231.31 199.85C233.12 199.85 234.58 201.32 234.58 203.12C234.58 204.93 233.11 206.39 231.31 206.39C229.51 206.39 228.04 204.92 228.04 203.12C228.04 201.32 229.51 199.85 231.31 199.85Z" fill="#724494"/>
<path id="Vector_53" d="M34.3707 62.1799C35.6907 62.1799 36.7707 63.2499 36.7707 64.5799C36.7707 65.9099 35.7007 66.9799 34.3707 66.9799C33.0407 66.9799 31.9707 65.9099 31.9707 64.5799C31.9707 63.2499 33.0407 62.1799 34.3707 62.1799Z" fill="#724494"/>
<path id="Vector_54" d="M277.98 171.37C279.239 171.37 280.26 170.349 280.26 169.09C280.26 167.831 279.239 166.81 277.98 166.81C276.721 166.81 275.7 167.831 275.7 169.09C275.7 170.349 276.721 171.37 277.98 171.37Z" fill="#724494"/>
<path id="Vector_55" d="M90.7804 90.8398C92.3504 90.8398 93.6204 92.1098 93.6204 93.6798C93.6204 95.2498 92.3504 96.5198 90.7804 96.5198C89.2104 96.5198 87.9404 95.2498 87.9404 93.6798C87.9404 92.1098 89.2104 90.8398 90.7804 90.8398Z" fill="#724494"/>
<path id="Vector_56" d="M151.77 126.02C153.48 126.02 154.87 127.41 154.87 129.12C154.87 130.83 153.48 132.22 151.77 132.22C150.06 132.22 148.67 130.83 148.67 129.12C148.67 127.41 150.06 126.02 151.77 126.02Z" fill="#724494"/>
<path id="Vector_57" d="M156.51 96.8398C157.76 96.8398 158.77 97.8498 158.77 99.0998C158.77 100.35 157.76 101.36 156.51 101.36C155.26 101.36 154.25 100.35 154.25 99.0998C154.25 97.8498 155.26 96.8398 156.51 96.8398Z" fill="#724494"/>
<path id="Vector_58" d="M172.5 103.48C174.439 103.48 176.01 101.908 176.01 99.97C176.01 98.0314 174.439 96.46 172.5 96.46C170.562 96.46 168.99 98.0314 168.99 99.97C168.99 101.908 170.562 103.48 172.5 103.48Z" fill="#724494"/>
<path id="Vector_59" d="M193.841 173.94C195.521 173.94 196.881 175.3 196.881 176.98C196.881 178.66 195.521 180.02 193.841 180.02C192.161 180.02 190.801 178.66 190.801 176.98C190.801 175.3 192.161 173.94 193.841 173.94Z" fill="#724494"/>
<path id="Vector_60" d="M103.487 171.61C103.745 170.519 103.071 169.426 101.98 169.167C100.889 168.909 99.7949 169.583 99.5364 170.674C99.2779 171.765 99.9527 172.859 101.044 173.118C102.135 173.376 103.229 172.701 103.487 171.61Z" fill="#724494"/>
<path id="Vector_61" d="M199.19 194.99C201.234 194.99 202.89 193.333 202.89 191.29C202.89 189.246 201.234 187.59 199.19 187.59C197.147 187.59 195.49 189.246 195.49 191.29C195.49 193.333 197.147 194.99 199.19 194.99Z" fill="#724494"/>
<path id="Vector_62" d="M89.96 221.89L92.32 161.66" stroke="#C6AFD2" stroke-width="0.5" stroke-linecap="round"/>
<path id="Vector_63" d="M92.3202 164.99C94.1593 164.99 95.6502 163.499 95.6502 161.66C95.6502 159.821 94.1593 158.33 92.3202 158.33C90.4811 158.33 88.9902 159.821 88.9902 161.66C88.9902 163.499 90.4811 164.99 92.3202 164.99Z" fill="#724494"/>
<path id="Vector_64" d="M89.9605 219.95C91.0305 219.95 91.9005 220.82 91.9005 221.89C91.9005 222.96 91.0305 223.83 89.9605 223.83C88.8905 223.83 88.0205 222.96 88.0205 221.89C88.0205 220.82 88.8905 219.95 89.9605 219.95Z" fill="#724494"/>
<path id="Vector_65" d="M79.7206 202.39C80.3406 202.39 80.8406 202.89 80.8406 203.51C80.8406 204.13 80.3406 204.63 79.7206 204.63C79.1006 204.63 78.6006 204.13 78.6006 203.51C78.6006 202.89 79.1006 202.39 79.7206 202.39Z" fill="#724494"/>
<path id="Vector_66" opacity="0.6" d="M188.881 163.86L220.521 189.32" stroke="#724494" stroke-width="0.59"/>
<path id="Vector_67" opacity="0.4" d="M269.21 220.44L255.92 218.86" stroke="#724494" stroke-width="0.59"/>
<path id="Vector_68" opacity="0.4" d="M188.881 163.86L180.091 190.34" stroke="#724494" stroke-width="0.59"/>
<path id="Vector_69" d="M101.491 187.93L85.5205 202.9" stroke="#724494" stroke-width="0.59"/>
<path id="Vector_70" d="M244.32 235.39L239.41 252.18" stroke="#724494" stroke-width="0.59"/>
<path id="Vector_71" opacity="0.4" d="M216.561 213.27L255.921 218.86" stroke="#724494" stroke-width="0.59"/>
<path id="Vector_72" d="M216.561 213.27L244.321 235.39" stroke="#724494" stroke-width="0.59"/>
<path id="Vector_73" opacity="0.4" d="M106.37 225.26L101.49 187.93" stroke="#724494" stroke-width="0.59"/>
<path id="Vector_74" opacity="0.4" d="M216.561 213.27L180.091 190.34" stroke="#724494" stroke-width="0.59"/>
<path id="Vector_75" opacity="0.6" d="M212.74 170.11L244.32 235.39" stroke="#724494" stroke-width="0.59"/>
<path id="Vector_76" opacity="0.6" d="M216.56 213.27L212.74 170.11" stroke="#724494" stroke-width="0.59"/>
<path id="Vector_77" opacity="0.4" d="M101.49 187.93L109.8 208.43" stroke="#724494" stroke-width="0.59"/>
<path id="Vector_78" d="M165.091 188.08L180.091 190.34" stroke="#724494" stroke-width="0.59"/>
<path id="Vector_79" opacity="0.6" d="M244.32 235.39L230.62 173.57" stroke="#724494" stroke-width="0.59"/>
<path id="Vector_80" d="M185.491 200.48L180.091 190.34" stroke="#724494" stroke-width="0.59"/>
<path id="Vector_81" d="M149.87 148.54L167.67 130.03" stroke="#724494" stroke-width="0.59"/>
<path id="Vector_82" d="M106.37 225.26L109.8 208.43" stroke="#724494" stroke-width="0.59"/>
<path id="Vector_83" opacity="0.4" d="M106.37 225.26L138.5 207.22" stroke="#724494" stroke-width="0.59"/>
<path id="Vector_84" opacity="0.4" d="M165.09 188.08L149.87 148.54" stroke="#724494" stroke-width="0.59"/>
<path id="Vector_85" d="M149.87 148.54L119.23 141.86" stroke="#724494" stroke-width="0.59"/>
<path id="Vector_86" opacity="0.6" d="M119.23 141.86L167.67 130.03" stroke="#724494" stroke-width="0.59"/>
<path id="Vector_87" d="M212.74 170.11L230.62 173.57" stroke="#724494" stroke-width="0.59"/>
<path id="Vector_88" opacity="0.4" d="M45.7105 180.68L26.5605 174.14" stroke="#724494" stroke-width="0.59"/>
<path id="Vector_89" d="M165.091 188.08L185.491 200.48" stroke="#724494" stroke-width="0.59"/>
<path id="Vector_90" d="M212.74 170.11L213.42 145.72" stroke="#724494" stroke-width="0.59"/>
<path id="Vector_91" opacity="0.4" d="M212.74 170.11L244.67 133.94" stroke="#724494" stroke-width="0.59"/>
<path id="Vector_92" opacity="0.4" d="M165.09 188.08L138.71 207.15" stroke="#724494" stroke-width="0.59"/>
<path id="Vector_93" opacity="0.6" d="M140.271 118.94L167.671 130.03" stroke="#724494" stroke-width="0.59"/>
<path id="Vector_94" opacity="0.6" d="M185.49 200.48L213.42 145.72" stroke="#724494" stroke-width="0.59"/>
<path id="Vector_95" d="M230.62 173.57L213.42 145.72" stroke="#724494" stroke-width="0.59"/>
<path id="Vector_96" d="M244.67 133.94L230.62 173.57" stroke="#724494" stroke-width="0.59"/>
<path id="Vector_97" d="M140.27 118.94L119.23 141.86" stroke="#724494" stroke-width="0.59"/>
<path id="Vector_98" d="M244.67 133.94L213.42 145.72" stroke="#724494" stroke-width="0.59"/>
<path id="Vector_99" d="M106.37 225.26L84.5703 233.05" stroke="#724494" stroke-width="0.59"/>
<path id="Vector_100" opacity="0.4" d="M185.49 200.48L178.82 224.65" stroke="#724494" stroke-width="0.59"/>
<path id="Vector_101" opacity="0.4" d="M227.37 121.29L230.62 173.57" stroke="#724494" stroke-width="0.59"/>
<path id="Vector_102" d="M45.71 180.68L64.03 158.6" stroke="#724494" stroke-width="0.59"/>
<path id="Vector_103" d="M137.831 217.22L109.801 208.43" stroke="#724494" stroke-width="0.59"/>
<path id="Vector_104" opacity="0.4" d="M182.49 142.16L213.42 145.72" stroke="#724494" stroke-width="0.59"/>
<path id="Vector_105" d="M227.37 121.29L244.67 133.94" stroke="#724494" stroke-width="0.59"/>
<path id="Vector_106" d="M140.27 118.94L117.33 95.98" stroke="#724494" stroke-width="0.59"/>
<path id="Vector_107" opacity="0.6" d="M140.271 118.94L166.531 138.13" stroke="#724494" stroke-width="0.59"/>
<path id="Vector_108" opacity="0.4" d="M43.4404 149.42L45.7104 180.68" stroke="#724494" stroke-width="0.59"/>
<path id="Vector_109" opacity="0.6" d="M227.37 121.29L182.49 142.16" stroke="#724494" stroke-width="0.59"/>
<path id="Vector_110" d="M166.53 138.13L182.49 142.16" stroke="#724494" stroke-width="0.59"/>
<path id="Vector_111" opacity="0.6" d="M246.25 166.21L244.67 133.94" stroke="#724494" stroke-width="0.59"/>
<path id="Vector_112" d="M182.49 142.16L158.29 150.44" stroke="#724494" stroke-width="0.59"/>
<path id="Vector_113" d="M43.4404 149.42L64.0304 158.6" stroke="#724494" stroke-width="0.59"/>
<path id="Vector_114" opacity="0.6" d="M90.7903 154.04L64.0303 158.6" stroke="#724494" stroke-width="0.59"/>
<path id="Vector_115" d="M182.49 142.16L166.94 161.26" stroke="#724494" stroke-width="0.59"/>
<path id="Vector_116" d="M166.53 138.13L158.29 150.44" stroke="#724494" stroke-width="0.59"/>
<path id="Vector_117" d="M166.53 138.13L166.94 161.26" stroke="#724494" stroke-width="0.59"/>
<path id="Vector_118" opacity="0.6" d="M227.37 121.29L248.92 87.8599" stroke="#724494" stroke-width="0.59"/>
<path id="Vector_119" opacity="0.4" d="M137.83 217.22L128.03 196.6" stroke="#724494" stroke-width="0.59"/>
<path id="Vector_120" d="M180.54 232.64L178.82 224.65" stroke="#724494" stroke-width="0.59"/>
<path id="Vector_121" d="M166.94 161.26L158.29 150.44" stroke="#724494" stroke-width="0.59"/>
<path id="Vector_122" opacity="0.6" d="M43.4404 149.42L90.7904 154.04" stroke="#724494" stroke-width="0.59"/>
<path id="Vector_123" d="M181.43 213.26L178.82 224.65" stroke="#724494" stroke-width="0.59"/>
<path id="Vector_124" d="M142.45 180.71L166.94 161.26" stroke="#724494" stroke-width="0.59"/>
<path id="Vector_125" d="M142.45 180.71L138.71 207.15" stroke="#724494" stroke-width="0.59"/>
<path id="Vector_126" d="M142.451 180.71L129.271 182.91" stroke="#724494" stroke-width="0.59"/>
<path id="Vector_127" d="M170.49 187.21L166.94 161.26" stroke="#724494" stroke-width="0.59"/>
<path id="Vector_128" d="M128.03 196.6L129.27 183.18" stroke="#724494" stroke-width="0.59"/>
<path id="Vector_129" d="M142.451 180.71L135.391 195.9" stroke="#724494" stroke-width="0.59"/>
<path id="Vector_130" opacity="0.6" d="M90.7903 154.04L78.7803 124.23" stroke="#724494" stroke-width="0.59"/>
<path id="Vector_131" d="M181.43 213.26L180.54 232.64" stroke="#724494" stroke-width="0.59"/>
<path id="Vector_132" d="M181.43 213.26L170.49 187.21" stroke="#724494" stroke-width="0.59"/>
<path id="Vector_133" d="M180.541 232.64L170.311 209.42" stroke="#724494" stroke-width="0.59"/>
<path id="Vector_134" d="M60.8903 91.3699L50.2803 95.6399" stroke="#724494" stroke-width="0.59"/>
<path id="Vector_135" d="M170.311 209.42L170.491 187.21" stroke="#724494" stroke-width="0.59"/>
<path id="Vector_136" d="M135.39 195.9L128.03 196.6" stroke="#724494" stroke-width="0.59"/>
<path id="Vector_137" d="M181.431 213.26L170.311 209.42" stroke="#724494" stroke-width="0.59"/>
<path id="Vector_138" d="M135.391 195.9L129.271 182.91" stroke="#724494" stroke-width="0.59"/>
<path id="Vector_139" opacity="0.6" d="M246.25 166.21L254.13 207.08" stroke="#724494" stroke-width="0.59"/>
<path id="Vector_140" opacity="0.6" d="M60.8906 91.3699L78.7806 124.23" stroke="#724494" stroke-width="0.59"/>
<path id="Vector_141" opacity="0.6" d="M110.05 145.75L90.79 154.04" stroke="#724494" stroke-width="0.59"/>
<path id="Vector_142" opacity="0.4" d="M183.66 167.23L166.94 161.26" stroke="#724494" stroke-width="0.59"/>
<path id="Vector_143" d="M135.391 195.9L170.311 209.42" stroke="#724494" stroke-width="0.59"/>
<path id="Vector_144" opacity="0.6" d="M246.251 166.21L231.311 203.12" stroke="#724494" stroke-width="0.59"/>
<path id="Vector_145" opacity="0.6" d="M78.7803 124.23L50.2803 95.6399" stroke="#724494" stroke-width="0.59"/>
<path id="Vector_146" d="M183.66 167.23L170.49 187.21" stroke="#724494" stroke-width="0.59"/>
<path id="Vector_147" opacity="0.6" d="M60.8901 91.3698L34.3701 64.5698" stroke="#724494" stroke-width="0.59"/>
<path id="Vector_148" opacity="0.6" d="M90.7806 93.6799L60.8906 91.3699" stroke="#724494" stroke-width="0.59"/>
<path id="Vector_149" d="M50.2801 95.6398L34.3701 64.5698" stroke="#724494" stroke-width="0.59"/>
<path id="Vector_150" opacity="0.6" d="M110.05 145.75L78.7803 124.23" stroke="#724494" stroke-width="0.59"/>
<path id="Vector_151" opacity="0.6" d="M92.3203 161.66L78.7803 124.23" stroke="#724494" stroke-width="0.59"/>
<path id="Vector_152" opacity="0.6" d="M90.7803 93.6799L50.2803 95.6399" stroke="#724494" stroke-width="0.59"/>
<path id="Vector_153" d="M254.131 207.08L231.311 203.12" stroke="#724494" stroke-width="0.59"/>
<path id="Vector_154" d="M90.7803 93.6799L78.7803 124.23" stroke="#724494" stroke-width="0.59"/>
<path id="Vector_155" d="M254.131 207.08L277.661 169.63" stroke="#724494" stroke-width="0.59"/>
<path id="Vector_156" d="M92.3203 161.66L110.05 145.75" stroke="#724494" stroke-width="0.59"/>
<path id="Vector_157" d="M277.661 169.63L231.311 203.12" stroke="#724494" stroke-width="0.59"/>
<path id="Vector_158" opacity="0.6" d="M90.7803 93.6799L110.05 145.75" stroke="#724494" stroke-width="0.59"/>
<path id="Vector_159" d="M183.66 167.23L193.67 177" stroke="#724494" stroke-width="0.59"/>
<path id="Vector_160" d="M180.2 190.36L193.67 177" stroke="#724494" stroke-width="0.59"/>
<path id="Vector_161" opacity="0.6" d="M101.5 171.14L110.05 145.75" stroke="#724494" stroke-width="0.59"/>
<path id="Vector_162" d="M101.5 171.14L92.3203 161.66" stroke="#724494" stroke-width="0.59"/>
<path id="Vector_163" d="M151.771 129.13L156.51 99.0999" stroke="#724494" stroke-width="0.59"/>
<path id="Vector_164" d="M151.771 129.13L172.501 99.97" stroke="#724494" stroke-width="0.59"/>
<path id="Vector_165" opacity="0.4" d="M199.19 191.29L231.31 203.12" stroke="#724494" stroke-width="0.59"/>
<path id="Vector_166" d="M156.511 99.0999L172.501 99.9699" stroke="#724494" stroke-width="0.59"/>
<path id="Vector_167" d="M199.19 191.29L193.67 177" stroke="#724494" stroke-width="0.59"/>
<path id="Vector_168" opacity="0.4" d="M101.5 171.14L89.96 221.89" stroke="#724494" stroke-width="0.59"/>
<path id="Vector_169" opacity="0.5" d="M274.63 183.04C275.16 183.04 275.59 183.47 275.59 184C275.59 184.53 275.16 184.96 274.63 184.96C274.1 184.96 273.67 184.53 273.67 184C273.67 183.47 274.1 183.04 274.63 183.04Z" fill="#A97BB5"/>
<path id="Vector_170" opacity="0.5" d="M156.58 101.04C157.17 101.04 157.66 101.52 157.66 102.12C157.66 102.72 157.18 103.2 156.58 103.2C155.98 103.2 155.5 102.72 155.5 102.12C155.5 101.52 155.98 101.04 156.58 101.04Z" fill="#A97BB5"/>
<path id="Vector_171" opacity="0.5" d="M198.351 104.03C198.751 104.03 199.071 104.35 199.071 104.75C199.071 105.15 198.751 105.47 198.351 105.47C197.951 105.47 197.631 105.15 197.631 104.75C197.631 104.35 197.951 104.03 198.351 104.03Z" fill="#A97BB5"/>
<path id="Vector_172" opacity="0.5" d="M181.691 105.73C182.051 105.73 182.331 106.02 182.331 106.37C182.331 106.72 182.041 107.01 181.691 107.01C181.341 107.01 181.051 106.72 181.051 106.37C181.051 106.01 181.341 105.73 181.691 105.73Z" fill="#A97BB5"/>
<path id="Vector_173" opacity="0.5" d="M192.63 157.46C193.33 157.46 193.9 158.03 193.9 158.73C193.9 159.43 193.33 160 192.63 160C191.93 160 191.36 159.43 191.36 158.73C191.36 158.03 191.93 157.46 192.63 157.46Z" fill="#A97BB5"/>
<path id="Vector_174" opacity="0.5" d="M161.76 201.57C162.46 201.57 163.03 202.14 163.03 202.84C163.03 203.54 162.46 204.11 161.76 204.11C161.06 204.11 160.49 203.54 160.49 202.84C160.49 202.14 161.06 201.57 161.76 201.57Z" fill="#A97BB5"/>
<path id="Vector_175" opacity="0.5" d="M194.9 207.25C195.3 207.25 195.63 207.58 195.63 207.98C195.63 208.38 195.3 208.71 194.9 208.71C194.5 208.71 194.17 208.38 194.17 207.98C194.17 207.58 194.5 207.25 194.9 207.25Z" fill="#A97BB5"/>
<path id="Vector_176" opacity="0.5" d="M112.15 218.61C112.719 218.61 113.18 218.149 113.18 217.58C113.18 217.011 112.719 216.55 112.15 216.55C111.581 216.55 111.12 217.011 111.12 217.58C111.12 218.149 111.581 218.61 112.15 218.61Z" fill="#A97BB5"/>
<path id="Vector_177" opacity="0.5" d="M109.02 123.02C109.88 123.02 110.58 123.72 110.58 124.58C110.58 125.44 109.88 126.14 109.02 126.14C108.16 126.14 107.46 125.44 107.46 124.58C107.46 123.72 108.16 123.02 109.02 123.02Z" fill="#A97BB5"/>
<path id="Vector_178" opacity="0.5" d="M73.21 82.1899C74.01 82.1899 74.67 82.8399 74.67 83.6499C74.67 84.4599 74.02 85.1099 73.21 85.1099C72.4 85.1099 71.75 84.4599 71.75 83.6499C71.75 82.8399 72.4 82.1899 73.21 82.1899Z" fill="#A97BB5"/>
<path id="Vector_179" opacity="0.5" d="M110.651 125.7C111.271 125.7 111.781 126.21 111.781 126.83C111.781 127.45 111.271 127.96 110.651 127.96C110.031 127.96 109.521 127.45 109.521 126.83C109.521 126.21 110.031 125.7 110.651 125.7Z" fill="#A97BB5"/>
<path id="Vector_180" opacity="0.5" d="M89.7107 111.99C90.2807 111.99 90.7407 112.45 90.7407 113.02C90.7407 113.59 90.2807 114.05 89.7107 114.05C89.1407 114.05 88.6807 113.59 88.6807 113.02C88.6807 112.45 89.1407 111.99 89.7107 111.99Z" fill="#A97BB5"/>
<path id="Vector_181" opacity="0.5" d="M179.96 154.74C180.61 154.74 181.13 155.26 181.13 155.91C181.13 156.56 180.61 157.08 179.96 157.08C179.31 157.08 178.79 156.56 178.79 155.91C178.79 155.26 179.31 154.74 179.96 154.74Z" fill="#A97BB5"/>
<path id="Vector_182" opacity="0.5" d="M95.9401 64.8999C96.5501 64.8999 97.0501 65.3999 97.0501 66.0099C97.0501 66.6199 96.5501 67.1199 95.9401 67.1199C95.3301 67.1199 94.8301 66.6199 94.8301 66.0099C94.8301 65.3999 95.3301 64.8999 95.9401 64.8999Z" fill="#A97BB5"/>
<path id="Vector_183" opacity="0.5" d="M172.851 170.05C173.111 170.05 173.321 170.26 173.321 170.52C173.321 170.78 173.111 170.99 172.851 170.99C172.591 170.99 172.381 170.78 172.381 170.52C172.381 170.26 172.591 170.05 172.851 170.05Z" fill="#A97BB5"/>
<path id="Vector_184" opacity="0.5" d="M123.821 100.59C124.401 100.59 124.871 101.06 124.871 101.64C124.871 102.22 124.401 102.69 123.821 102.69C123.241 102.69 122.771 102.22 122.771 101.64C122.771 101.06 123.241 100.59 123.821 100.59Z" fill="#A97BB5"/>
<path id="Vector_185" opacity="0.5" d="M179.04 142.97C179.962 142.97 180.71 142.222 180.71 141.3C180.71 140.378 179.962 139.63 179.04 139.63C178.118 139.63 177.37 140.378 177.37 141.3C177.37 142.222 178.118 142.97 179.04 142.97Z" fill="#A97BB5"/>
<path id="Vector_186" opacity="0.5" d="M253.221 155.67C254.111 155.67 254.841 156.39 254.841 157.29C254.841 158.19 254.121 158.91 253.221 158.91C252.321 158.91 251.601 158.19 251.601 157.29C251.601 156.39 252.321 155.67 253.221 155.67Z" fill="#A97BB5"/>
<path id="Vector_187" opacity="0.5" d="M218.38 127.86C218.92 127.86 219.35 128.29 219.35 128.83C219.35 129.37 218.92 129.8 218.38 129.8C217.84 129.8 217.41 129.37 217.41 128.83C217.41 128.29 217.84 127.86 218.38 127.86Z" fill="#A97BB5"/>
<path id="Vector_188" opacity="0.6" d="M222.38 134.09C223.22 134.09 223.9 134.77 223.9 135.61C223.9 136.45 223.22 137.13 222.38 137.13C221.54 137.13 220.86 136.45 220.86 135.61C220.86 134.77 221.54 134.09 222.38 134.09Z" stroke="#724494" stroke-width="0.59"/>
<path id="Vector_189" opacity="0.5" d="M28.2209 176.56C29.1009 176.56 29.8109 177.27 29.8109 178.15C29.8109 179.03 29.1009 179.74 28.2209 179.74C27.3409 179.74 26.6309 179.03 26.6309 178.15C26.6309 177.27 27.3409 176.56 28.2209 176.56Z" fill="#A97BB5"/>
<path id="Vector_190" opacity="0.5" d="M128.171 79.7198C128.972 79.7198 129.621 79.0706 129.621 78.2698C129.621 77.469 128.972 76.8198 128.171 76.8198C127.37 76.8198 126.721 77.469 126.721 78.2698C126.721 79.0706 127.37 79.7198 128.171 79.7198Z" fill="#A97BB5"/>
<path id="Vector_191" opacity="0.5" d="M250.52 156.57C250.88 156.57 251.17 156.86 251.17 157.22C251.17 157.58 250.88 157.87 250.52 157.87C250.16 157.87 249.87 157.58 249.87 157.22C249.87 156.86 250.16 156.57 250.52 156.57Z" fill="#A97BB5"/>
<path id="Vector_192" opacity="0.5" d="M76.3102 118.72C76.9002 118.72 77.3802 119.2 77.3802 119.79C77.3802 120.38 76.9002 120.86 76.3102 120.86C75.7202 120.86 75.2402 120.38 75.2402 119.79C75.2402 119.2 75.7202 118.72 76.3102 118.72Z" fill="#A97BB5"/>
<path id="Vector_193" opacity="0.5" d="M217.771 200.42C218.651 200.42 219.361 201.13 219.361 202.01C219.361 202.89 218.651 203.6 217.771 203.6C216.891 203.6 216.181 202.89 216.181 202.01C216.181 201.13 216.891 200.42 217.771 200.42Z" fill="#A97BB5"/>
<path id="Vector_194" opacity="0.5" d="M184.941 178.66C185.401 178.66 185.781 179.04 185.781 179.5C185.781 179.96 185.401 180.34 184.941 180.34C184.481 180.34 184.101 179.96 184.101 179.5C184.101 179.04 184.481 178.66 184.941 178.66Z" fill="#A97BB5"/>
<path id="Vector_195" opacity="0.5" d="M82.6007 207.77C83.3407 207.77 83.9407 208.37 83.9407 209.11C83.9407 209.85 83.3407 210.45 82.6007 210.45C81.8607 210.45 81.2607 209.85 81.2607 209.11C81.2607 208.37 81.8607 207.77 82.6007 207.77Z" fill="#A97BB5"/>
<path id="Vector_196" opacity="0.5" d="M177.301 209.97C177.941 209.97 178.461 210.49 178.461 211.13C178.461 211.77 177.941 212.29 177.301 212.29C176.661 212.29 176.141 211.77 176.141 211.13C176.141 210.49 176.661 209.97 177.301 209.97Z" fill="#A97BB5"/>
<path id="Vector_197" opacity="0.5" d="M171.48 122.49C172.579 122.49 173.47 121.599 173.47 120.5C173.47 119.401 172.579 118.51 171.48 118.51C170.381 118.51 169.49 119.401 169.49 120.5C169.49 121.599 170.381 122.49 171.48 122.49Z" fill="#A97BB5"/>
<path id="Vector_198" opacity="0.5" d="M113.09 184.02C113.92 184.02 114.6 184.69 114.6 185.53C114.6 186.37 113.93 187.04 113.09 187.04C112.25 187.04 111.58 186.37 111.58 185.53C111.58 184.69 112.25 184.02 113.09 184.02Z" fill="#A97BB5"/>
<path id="Vector_199" opacity="0.5" d="M121.471 82.1699C122.531 82.1699 123.391 83.0299 123.391 84.0899C123.391 85.1499 122.531 86.0099 121.471 86.0099C120.411 86.0099 119.551 85.1499 119.551 84.0899C119.551 83.0299 120.411 82.1699 121.471 82.1699Z" fill="#A97BB5"/>
<path id="Vector_200" opacity="0.5" d="M181.641 149.14C182.673 149.14 183.51 148.303 183.51 147.27C183.51 146.237 182.673 145.4 181.641 145.4C180.608 145.4 179.771 146.237 179.771 147.27C179.771 148.303 180.608 149.14 181.641 149.14Z" fill="#A97BB5"/>
<path id="Vector_201" opacity="0.5" d="M262.98 222.15C263.4 222.15 263.73 222.49 263.73 222.9C263.73 223.32 263.39 223.65 262.98 223.65C262.57 223.65 262.23 223.31 262.23 222.9C262.23 222.49 262.57 222.15 262.98 222.15Z" fill="#A97BB5"/>
<path id="Vector_202" opacity="0.5" d="M254.481 161.04C254.671 161.04 254.821 161.19 254.821 161.38C254.821 161.57 254.671 161.72 254.481 161.72C254.291 161.72 254.141 161.57 254.141 161.38C254.141 161.19 254.291 161.04 254.481 161.04Z" fill="#A97BB5"/>
<path id="Vector_203" opacity="0.5" d="M117.271 229.36C118.221 229.36 118.991 228.59 118.991 227.64C118.991 226.69 118.221 225.92 117.271 225.92C116.321 225.92 115.551 226.69 115.551 227.64C115.551 228.59 116.321 229.36 117.271 229.36Z" fill="#A97BB5"/>
<path id="Vector_204" opacity="0.5" d="M76.7508 107.65C77.1108 107.65 77.4108 107.94 77.4108 108.31C77.4108 108.68 77.1208 108.97 76.7508 108.97C76.3808 108.97 76.0908 108.68 76.0908 108.31C76.0908 107.94 76.3808 107.65 76.7508 107.65Z" fill="#A97BB5"/>
<path id="Vector_205" opacity="0.5" d="M245.23 166.78C245.865 166.78 246.38 166.265 246.38 165.63C246.38 164.995 245.865 164.48 245.23 164.48C244.595 164.48 244.08 164.995 244.08 165.63C244.08 166.265 244.595 166.78 245.23 166.78Z" fill="#A97BB5"/>
<path id="Vector_206" opacity="0.4" d="M111.89 205.13C112.68 205.13 113.32 205.77 113.32 206.56C113.32 207.35 112.68 207.99 111.89 207.99C111.1 207.99 110.46 207.35 110.46 206.56C110.46 205.77 111.1 205.13 111.89 205.13Z" stroke="#724494" stroke-width="0.59"/>
<path id="Vector_207" opacity="0.5" d="M114.07 145.44C114.462 145.44 114.78 145.122 114.78 144.73C114.78 144.338 114.462 144.02 114.07 144.02C113.678 144.02 113.36 144.338 113.36 144.73C113.36 145.122 113.678 145.44 114.07 145.44Z" fill="#A97BB5"/>
<path id="Vector_208" opacity="0.5" d="M249.571 169.61C250.775 169.61 251.751 168.634 251.751 167.43C251.751 166.226 250.775 165.25 249.571 165.25C248.367 165.25 247.391 166.226 247.391 167.43C247.391 168.634 248.367 169.61 249.571 169.61Z" fill="#A97BB5"/>
<path id="Vector_209" opacity="0.5" d="M255.4 89.8298C255.83 89.8298 256.19 90.1798 256.19 90.6198C256.19 91.0598 255.84 91.4098 255.4 91.4098C254.96 91.4098 254.61 91.0598 254.61 90.6198C254.61 90.1798 254.96 89.8298 255.4 89.8298Z" fill="#A97BB5"/>
<path id="Vector_210" opacity="0.5" d="M45.8005 182.28C46.6405 182.28 47.3305 182.96 47.3305 183.81C47.3305 184.66 46.6505 185.34 45.8005 185.34C44.9505 185.34 44.2705 184.66 44.2705 183.81C44.2705 182.96 44.9505 182.28 45.8005 182.28Z" fill="#A97BB5"/>
<path id="Vector_211" opacity="0.5" d="M232.16 190.01C232.9 190.01 233.5 190.61 233.5 191.35C233.5 192.09 232.9 192.69 232.16 192.69C231.42 192.69 230.82 192.09 230.82 191.35C230.82 190.61 231.42 190.01 232.16 190.01Z" fill="#A97BB5"/>
<path id="Vector_212" opacity="0.5" d="M224.851 233.78C225.631 233.78 226.271 234.41 226.271 235.2C226.271 235.99 225.641 236.62 224.851 236.62C224.061 236.62 223.431 235.99 223.431 235.2C223.431 234.41 224.061 233.78 224.851 233.78Z" fill="#A97BB5"/>
<path id="Vector_213" opacity="0.5" d="M158.87 125.76C159.997 125.76 160.91 124.847 160.91 123.72C160.91 122.593 159.997 121.68 158.87 121.68C157.743 121.68 156.83 122.593 156.83 123.72C156.83 124.847 157.743 125.76 158.87 125.76Z" fill="#A97BB5"/>
<path id="Vector_214" opacity="0.5" d="M65.7103 180.05C66.2003 180.05 66.6003 180.45 66.6003 180.94C66.6003 181.43 66.2003 181.83 65.7103 181.83C65.2203 181.83 64.8203 181.43 64.8203 180.94C64.8203 180.45 65.2203 180.05 65.7103 180.05Z" fill="#A97BB5"/>
<path id="Vector_215" opacity="0.5" d="M228.18 237.07C228.58 237.07 228.91 237.4 228.91 237.8C228.91 238.2 228.58 238.53 228.18 238.53C227.78 238.53 227.45 238.2 227.45 237.8C227.45 237.4 227.78 237.07 228.18 237.07Z" fill="#A97BB5"/>
<path id="Vector_216" opacity="0.5" d="M229.431 230.43C229.621 230.43 229.771 230.58 229.771 230.77C229.771 230.96 229.621 231.11 229.431 231.11C229.241 231.11 229.091 230.96 229.091 230.77C229.091 230.58 229.241 230.43 229.431 230.43Z" fill="#A97BB5"/>
</g>
<g id="Group_3">
<g id="Vector_217" style="mix-blend-mode:multiply" opacity="0.24">
<path d="M207.621 224.19L141.221 262.75C140.291 263.29 138.781 263.29 137.851 262.75L133.561 260.28C132.631 259.74 132.631 258.87 133.561 258.34L199.961 219.78C200.891 219.24 202.401 219.24 203.331 219.78L207.621 222.25C208.551 222.79 208.551 223.66 207.621 224.19Z" fill="#361F51"/>
</g>
<g id="Vector_218" style="mix-blend-mode:multiply" opacity="0.24">
<path d="M186.68 218.76L124.95 254.4C124.3 254.77 123.25 254.77 122.61 254.4L119.63 252.68C118.98 252.31 118.98 251.7 119.63 251.33L181.36 215.69C182.01 215.32 183.06 215.32 183.7 215.69L186.68 217.41C187.33 217.78 187.33 218.39 186.68 218.76Z" fill="#361F51"/>
</g>
<g id="Vector_219" style="mix-blend-mode:multiply" opacity="0.24">
<path d="M177.361 212.71L115.631 248.35C114.981 248.72 113.931 248.72 113.291 248.35L110.311 246.63C109.661 246.26 109.661 245.65 110.311 245.28L172.041 209.64C172.691 209.27 173.741 209.27 174.381 209.64L177.361 211.36C178.011 211.73 178.011 212.34 177.361 212.71Z" fill="#361F51"/>
</g>
<g id="Group_4">
<path id="Vector_220" d="M177.071 204.88L115.821 240.24C112.081 242.4 109.061 240.11 109.061 235.13V114.67C109.061 109.69 112.091 103.9 115.821 101.75L177.071 66.3899C180.811 64.2299 183.831 66.5199 183.831 71.4999V191.96C183.831 196.94 180.801 202.73 177.071 204.88Z" fill="#724494"/>
<path id="Vector_221" d="M115.03 242.7L111.44 240.62L181.54 66.0498L184.99 68.0498L115.03 242.7Z" fill="#724494"/>
<g id="Group_5">
<path id="Vector_222" d="M180.63 206.93L119.38 242.29C115.64 244.45 112.62 242.16 112.62 237.18V116.72C112.62 111.74 115.65 105.95 119.38 103.8L180.63 68.44C184.37 66.28 187.39 68.57 187.39 73.55V194.01C187.39 198.99 184.36 204.78 180.63 206.93Z" fill="#A97BB5"/>
<path id="Vector_223" d="M180.63 68.44L119.38 103.8C115.64 105.96 112.62 111.74 112.62 116.72V133.59L187.4 90.42V73.55C187.4 68.57 184.37 66.28 180.64 68.44H180.63Z" fill="#9864A7"/>
</g>
</g>
<g id="Group_6">
<path id="Vector_224" d="M186.651 210.41L125.401 245.77C121.661 247.93 118.641 245.64 118.641 240.66V120.2C118.641 115.22 121.671 109.43 125.401 107.28L186.651 71.9199C190.391 69.7599 193.411 72.05 193.411 77.03V197.49C193.411 202.47 190.381 208.26 186.651 210.41Z" fill="#724494"/>
<path id="Vector_225" d="M124.561 248.2L121.011 246.15L191.111 71.5801L194.571 73.5801L124.561 248.2Z" fill="#724494"/>
<g id="Group_7">
<path id="Vector_226" d="M190.2 212.46L128.95 247.82C125.21 249.98 122.19 247.69 122.19 242.71V122.25C122.19 117.27 125.22 111.48 128.95 109.33L190.2 73.97C193.94 71.81 196.96 74.1 196.96 79.08V199.54C196.96 204.52 193.93 210.31 190.2 212.46Z" fill="#A97BB5"/>
<path id="Vector_227" d="M190.2 73.97L128.95 109.33C125.21 111.49 122.19 117.27 122.19 122.25V139.12L196.97 95.95V79.08C196.97 74.1 193.94 71.81 190.21 73.97H190.2Z" fill="#9864A7"/>
</g>
</g>
<g id="Group_8">
<g id="Group_9">
<path id="Vector_228" d="M137.55 254.1L139.87 143.45L131.53 138.61L131.6 250.64C131.6 252.05 132.1 253.05 132.91 253.52L138.86 256.98C138.05 256.51 137.55 255.52 137.55 254.1Z" fill="#CCBACA"/>
<path id="Vector_229" d="M137.55 254.1C137.55 256.95 139.58 258.1 142.06 256.66L204.9 220.38C207.38 218.95 209.39 215.47 209.38 212.62L209.32 106.76L137.49 148.23L137.55 254.09V254.1Z" fill="#FDEFF6"/>
</g>
<g id="Group_10">
<path id="Vector_230" d="M137.48 126.8L131.521 123.34L131.54 152.26L137.491 154.27L137.48 126.8Z" fill="#724494"/>
<path id="Vector_231" d="M202.05 78.9799C201.23 78.4999 200.1 78.5699 198.85 79.2899L136.01 115.57C133.53 117 131.52 120.48 131.53 123.33L137.48 126.79C137.48 123.93 139.48 120.46 141.96 119.03L204.8 82.7499C206.05 82.0299 207.18 81.9599 208 82.4399L202.05 78.9799Z" fill="#D2ABEE"/>
<g id="Vector_232" style="mix-blend-mode:screen" opacity="0.3">
<path d="M202.051 78.9799C201.231 78.4999 200.101 78.5699 198.851 79.2899L204.801 82.7499C206.051 82.0299 207.181 81.9599 208.001 82.4399L202.051 78.9799Z" fill="#B285D6"/>
</g>
<g id="Vector_233" style="mix-blend-mode:screen" opacity="0.3">
<path d="M136.01 115.57C133.53 117 131.52 120.48 131.53 123.33L137.48 126.79C137.48 123.93 139.48 120.46 141.96 119.03L136.01 115.57Z" fill="#B285D6"/>
</g>
<path id="Vector_234" d="M209.311 85.33C209.311 82.47 207.281 81.33 204.801 82.76L141.961 119.04C139.481 120.47 137.471 123.95 137.481 126.8L137.501 154.25L209.341 112.95L209.321 85.32L209.311 85.33Z" fill="#B285D6"/>
</g>
<path id="Vector_235" d="M200.931 203.18L150.381 232.37C149.621 232.81 149.001 232.34 149.001 231.33C149.001 230.31 149.621 229.14 150.381 228.7L200.931 199.51C201.691 199.07 202.311 199.54 202.311 200.55C202.311 201.57 201.691 202.74 200.931 203.18Z" fill="#966CC1"/>
<path id="Vector_236" d="M191.541 216.03L150.381 239.8C149.621 240.24 149.001 239.77 149.001 238.76C149.001 237.74 149.621 236.57 150.381 236.13L191.541 212.36C192.301 211.92 192.921 212.39 192.921 213.4C192.921 214.42 192.301 215.59 191.541 216.03Z" fill="#966CC1"/>
<path id="Vector_237" d="M186.621 108.04L162.351 122.05C161.591 122.49 160.971 122.02 160.971 121.01C160.971 119.99 161.591 118.82 162.351 118.38L186.621 104.37C187.381 103.93 188.001 104.4 188.001 105.41C188.001 106.43 187.381 107.6 186.621 108.04Z" fill="#D2ABEE"/>
<path id="Vector_238" d="M193.051 112.67L162.351 130.4C161.591 130.84 160.971 130.37 160.971 129.36C160.971 128.34 161.591 127.17 162.351 126.73L193.051 109C193.811 108.56 194.431 109.03 194.431 110.04C194.431 111.06 193.811 112.23 193.051 112.67Z" fill="#D2ABEE"/>
<path id="Vector_239" d="M195.786 177.17C204.208 159.741 202.936 141.698 192.946 136.871C182.956 132.043 168.03 142.259 159.608 159.689C151.186 177.118 152.457 195.161 162.447 199.988C172.438 204.816 187.364 194.599 195.786 177.17Z" fill="url(#paint0_linear_1902_24474)"/>
<g id="Group_11">
<path id="Vector_240" d="M161.861 196.42C161.861 195.28 161.861 190.02 161.891 188.92C162.101 182.36 163.661 176.47 175.421 170.77C197.091 159.18 197.091 177.37 197.091 184.52C197.091 191.67 197.091 190.55 197.091 190.55C197.091 191.69 196.611 192.85 195.621 193.9C191.451 198.38 187.931 200.41 180.171 202.82C175.351 204.32 169.411 203.79 165.561 201.57L165.491 201.53C163.091 200.15 161.841 198.29 161.861 196.42Z" fill="url(#paint1_linear_1902_24474)"/>
<g id="Group_12">
<path id="Vector_241" d="M186.35 177.93L188.52 178.46L187.3 181.35L186.48 182.55L185.4 182.48L183.9 180.73L186.35 177.93Z" fill="#41235B"/>
<path id="Vector_242" d="M186.481 182.55L185.401 182.48L183.881 199.25L186.351 200.66L188.821 196.41L187.301 181.35L186.481 182.55Z" fill="#41235B"/>
</g>
<path id="Vector_243" d="M186.35 176.2V177.92L184.04 181.34C184.04 181.34 177.04 182.09 172.45 178.88C167.86 175.67 173.78 168.72 173.78 168.72L186.35 176.19V176.2Z" fill="#FDEFF6"/>
<path id="Vector_244" d="M185.83 173.75L186.35 176.2V177.92L189.86 179.04C189.86 179.04 195.26 174.16 189.99 166.39C184.97 168.41 185.83 173.75 185.83 173.75Z" fill="#FDEFF6"/>
<path id="Vector_245" d="M179.321 174.19C181.131 173.63 182.591 172.79 183.561 171.74C184.161 171.09 183.951 170.29 183.051 169.77H183.031C182.131 169.24 180.751 169.12 179.621 169.47C177.811 170.03 176.351 170.87 175.381 171.92C174.781 172.57 174.991 173.37 175.891 173.89H175.911C176.811 174.42 178.191 174.54 179.321 174.19Z" fill="url(#paint2_linear_1902_24474)"/>
<g id="Group_13">
<path id="Vector_246" d="M180.83 177.42C188.065 177.42 193.93 171.555 193.93 164.32C193.93 157.085 188.065 151.22 180.83 151.22C173.596 151.22 167.73 157.085 167.73 164.32C167.73 171.555 173.596 177.42 180.83 177.42Z" fill="url(#paint3_linear_1902_24474)"/>
<path id="Vector_247" d="M181.62 147.6C188.74 149.15 190.87 145.2 190.87 145.2C190.87 145.2 192.29 150.15 187.56 150.79C182.83 151.44 181.62 147.6 181.62 147.6Z" fill="#363538"/>
<path id="Vector_248" d="M186.22 148.91C190.96 151.03 196.31 147.68 196.31 147.68C198.45 153.2 192.79 158.97 192.79 158.97C192.79 158.97 189.33 163.59 180.46 163.53C178.11 165.01 178.11 168.37 178.43 170.68C178.56 171.56 177.59 172.19 176.84 171.7L175.72 170.96C175.72 170.96 175.99 166.81 174.09 166.15C171.59 165.28 170.4 168.85 172.95 172.61C173.67 175.3 173.32 175.06 173.32 175.06C173.32 175.06 164.29 169.5 164.29 160.76C164.29 152.02 173.65 143.85 186.23 148.91H186.22Z" fill="#4E4D51"/>
<path id="Vector_249" d="M171.79 167.13C166.69 166.52 163.77 162.37 164.91 156.84C164.5 158.1 164.28 159.42 164.28 160.76C164.28 169.5 173.31 175.06 173.31 175.06C173.31 175.06 173.66 175.29 172.94 172.61C171.48 170.45 171.25 168.36 171.79 167.14V167.13Z" fill="#363538"/>
<path id="Vector_250" d="M192.79 158.97C192.79 158.97 189.33 163.59 180.46 163.53C178.11 165.01 178.11 168.37 178.43 170.68C178.5 171.14 178.26 171.54 177.91 171.73C177.08 169.74 177.01 167.38 177.18 165.42C177.35 163.41 179.01 161.86 181.02 161.77C182.89 161.68 184.87 161.81 188.5 159.95C196.2 156.01 196.3 147.68 196.3 147.68C198.44 153.2 192.78 158.97 192.78 158.97H192.79Z" fill="#363538"/>
</g>
<path id="Vector_251" d="M171.01 152.1C171.38 153.06 173.12 153.29 174.89 152.61C176.67 151.93 177.81 150.6 177.44 149.64C177.07 148.68 175.33 148.45 173.56 149.13C171.78 149.81 170.64 151.14 171.01 152.1Z" fill="#767677"/>
</g>
</g>
</g>
</g>
</g>
</g>
<defs>
<linearGradient id="paint0_linear_1902_24474" x1="154.036" y1="168.43" x2="201.356" y2="168.43" gradientUnits="userSpaceOnUse">
<stop stop-color="#724494"/>
<stop offset="1" stop-color="#BA8BDE"/>
</linearGradient>
<linearGradient id="paint1_linear_1902_24474" x1="167.001" y1="178" x2="194.501" y2="198" gradientUnits="userSpaceOnUse">
<stop stop-color="#FDCBF4"/>
<stop offset="0.876" stop-color="#A36EE6"/>
</linearGradient>
<linearGradient id="paint2_linear_1902_24474" x1="-2356.55" y1="1638.73" x2="-2362.98" y2="1636.65" gradientUnits="userSpaceOnUse">
<stop stop-color="#9C1915"/>
<stop offset="0.85" stop-color="#C54330"/>
<stop offset="1" stop-color="#CD4B36"/>
</linearGradient>
<linearGradient id="paint3_linear_1902_24474" x1="174.27" y1="175.67" x2="187.38" y2="152.97" gradientUnits="userSpaceOnUse">
<stop offset="0.07" stop-color="#F49E69"/>
<stop offset="0.26" stop-color="#F5A56E"/>
<stop offset="0.55" stop-color="#F8BB7D"/>
<stop offset="0.86" stop-color="#FED992"/>
</linearGradient>
</defs>
</svg>
